<svg xmlns="http://www.w3.org/2000/svg" viewBox="0 0 516 515.91"><defs><style>.cls-1{stroke:#000;stroke-miterlimit:10;stroke-width:4px;}</style></defs><g id="Layer_2" data-name="Layer 2"><g id="Capa_1" data-name="Capa 1"><path class="cls-1" d="M346.71,362.13l-34.46-7.66a8.47,8.47,0,0,1-6.68-8.32v-30a63.32,63.32,0,0,0,16-42.14V242A55.65,55.65,0,0,0,266,186.39H250A55.65,55.65,0,0,0,194.41,242V274a63.33,63.33,0,0,0,16,42.14v30a8.48,8.48,0,0,1-6.68,8.32l-34.47,7.66a39.32,39.32,0,0,0-31,38.61V506.41a7.5,7.5,0,1,0,15,0V400.74a24.41,24.41,0,0,1,19.23-24L207,369.11a23.38,23.38,0,0,0,18.42-23V328.62a63.43,63.43,0,0,0,65.14,0v17.53a23.39,23.39,0,0,0,18.42,23l34.47,7.66a24.42,24.42,0,0,1,19.23,24V506.41a7.5,7.5,0,0,0,15,0V400.74a39.33,39.33,0,0,0-31-38.61ZM209.4,274V242A40.64,40.64,0,0,1,250,201.39h16A40.64,40.64,0,0,1,306.6,242V274a48.6,48.6,0,0,1-97.2,0Z"/><path class="cls-1" d="M481.87,374.59c-20.12-36.38-48.27-76.24-82.06-116.6,34.28-40.94,62.74-81.35,82.88-118.08C516.34,78.58,523,35.05,502,14,480.76-7.19,436.71-.24,374.6,34.13,316,66.57,248.28,119.81,184.05,184.05c-20.57,20.57-40,41.49-58,62.36C93,206.74,65.6,167.69,46.22,132.27,17.6,80,9.53,39.73,24.63,24.63c11.48-11.48,37.25-9.83,72.55,4.64,37.29,15.29,82.45,43.52,130.58,81.64a7.5,7.5,0,0,0,9.31-11.75c-49.22-39-95.63-67.95-134.2-83.76C61-1.76,30.29-2.24,14,14c-21,21-14.39,64.35,19,125.44C53.21,176.29,81.77,216.88,116.2,258c-33.8,40.36-61.94,80.22-82.07,116.6C-.24,436.71-7.19,480.76,14,502c7.94,7.94,19.23,11.9,33.56,11.9,18.36,0,41.72-6.51,69.36-19.47a7.49,7.49,0,1,0-6.36-13.57C68.82,500.4,37.5,504.24,24.63,491.37c-15.31-15.31-6.85-56.25,22.62-109.52,19.36-35,46.36-73.34,78.8-112.27,16.66,19.33,34.56,38.71,53.45,57.8a7.5,7.5,0,1,0,10.66-10.54c-19.24-19.46-37.44-39.19-54.31-58.84,18.18-21.17,37.89-42.44,58.8-63.35S236.81,154,258,135.87c21.35,18.31,42.64,38,63.37,58.78,20.91,20.91,40.62,42.18,58.8,63.35-17.17,20-35.72,40.09-55.35,59.89a7.5,7.5,0,0,0,10.65,10.56C354.73,309,373,289.27,390,269.59c32.44,38.92,59.44,77.27,78.8,112.26,29.47,53.27,37.93,94.22,22.62,109.52-12.87,12.87-44.19,9-85.95-10.54a7.5,7.5,0,1,0-6.36,13.58c27.65,13,51,19.46,69.36,19.46,14.32,0,25.62-4,33.55-11.89,21.22-21.22,14.27-65.27-20.1-127.39ZM332,184.05c-20.4-20.41-41.35-39.87-62.38-58,38.94-32.45,77.29-59.45,112.28-78.81,53.27-29.47,94.22-37.93,109.52-22.62,15.15,15.14,7,55.55-21.82,108.07C450.17,168,422.87,206.91,390,246.41,372,225.54,352.53,204.62,332,184.05Z"/></g></g></svg>