<svg xmlns="http://www.w3.org/2000/svg" width="93.8" height="93.8" viewBox="0 0 93.8 93.8">
  <g id="box" transform="translate(0)">
    <path id="Path_1" data-name="Path 1" d="M.217,265.185a1.832,1.832,0,0,0,1.615.967h9.16V292.9a1.832,1.832,0,0,0,1.832,1.832H80.976a1.832,1.832,0,0,0,1.832-1.832V266.152h9.16a1.832,1.832,0,0,0,1.524-2.848L82.5,246.816A1.832,1.832,0,0,0,80.976,246H74.014a1.832,1.832,0,0,0,0,3.664H80l8.55,12.824H58.873l-8.55-12.824h7.2a1.832,1.832,0,0,0,0-3.664h-44.7a1.832,1.832,0,0,0-1.524.816L.308,263.3a1.832,1.832,0,0,0-.091,1.881Zm14.44.967H35.908a1.832,1.832,0,0,0,1.524-.816l7.636-11.454v37.185H14.656Zm41.712-.816a1.832,1.832,0,0,0,1.524.816H79.144v24.916H48.732V253.883ZM13.8,249.664H43.477l-8.55,12.824H5.255Z" transform="translate(0 -200.932)" fill="#fff"/>
    <path id="Path_2" data-name="Path 2" d="M114.32,4.586A9.738,9.738,0,0,0,106.076,0,10.1,10.1,0,0,0,96,10.437c0,6.335,5.127,10.5,12.888,16.793,1.36,1.1,2.766,2.245,4.26,3.489a1.832,1.832,0,0,0,2.345,0c1.494-1.245,2.9-2.386,4.26-3.489,7.761-6.3,12.888-10.459,12.888-16.793A10.1,10.1,0,0,0,122.564,0,9.739,9.739,0,0,0,114.32,4.586Zm14.656,5.852c0,4.59-4.588,8.313-11.532,13.948-1.009.819-2.044,1.659-3.124,2.548-1.08-.889-2.115-1.729-3.124-2.548-6.944-5.636-11.532-9.359-11.532-13.948a6.455,6.455,0,0,1,6.412-6.773c4.783,0,6.418,5.325,6.484,5.545a1.832,1.832,0,0,0,3.521,0c.016-.056,1.653-5.545,6.484-5.545A6.455,6.455,0,0,1,128.977,10.437Z" transform="translate(-78.412)" fill="#fff"/>
    <path id="Path_3" data-name="Path 3" d="M318.824,97.9a1.828,1.828,0,0,0,1.207-.453c1-.871,1.933-1.67,2.84-2.443,5.1-4.343,8.778-7.48,8.778-12.148,0-4.405-3.219-7.856-7.328-7.856a6.817,6.817,0,0,0-5.5,2.754,6.817,6.817,0,0,0-5.5-2.754C309.219,75,306,78.451,306,82.856c0,4.668,3.682,7.805,8.778,12.148.907.773,1.845,1.572,2.84,2.443A1.828,1.828,0,0,0,318.824,97.9Zm-9.16-15.045c0-2.032,1.284-4.192,3.664-4.192,2.7,0,3.686,3.312,3.732,3.47a1.83,1.83,0,0,0,3.529,0c.04-.142,1.024-3.471,3.732-3.471,2.38,0,3.664,2.16,3.664,4.192,0,2.976-2.819,5.379-7.49,9.359-.543.463-1.1.935-1.67,1.428-.573-.493-1.127-.965-1.67-1.428C312.483,88.234,309.664,85.832,309.664,82.856Z" transform="translate(-249.94 -61.26)" fill="#fff"/>
    <ellipse id="Ellipse_1" data-name="Ellipse 1" cx="1.5" cy="2" rx="1.5" ry="2" transform="translate(64 45)" fill="#fff"/>
  </g>
</svg>
