<svg xmlns="http://www.w3.org/2000/svg" width="87.336" height="87.261" viewBox="0 0 87.336 87.261">
  <g id="Group_10" data-name="Group 10" transform="translate(162.548 -269.449)">
    <g id="Layer_2" data-name="Layer 2" transform="translate(-162 270)">
      <g id="Capa_1" data-name="Capa 1" transform="translate(0 0)">
        <path id="Path_19" data-name="Path 19" d="M174.136,215.984a44.6,44.6,0,0,1-6.575-1.288,1.426,1.426,0,0,1-1.125-1.4v-5.052a10.663,10.663,0,0,0,2.694-7.1v-5.391a9.372,9.372,0,0,0-9.358-9.365h-2.694a9.372,9.372,0,0,0-9.362,9.365v5.389a10.665,10.665,0,0,0,2.695,7.1v5.052a1.428,1.428,0,0,1-1.125,1.4l-5.8,1.29a6.622,6.622,0,0,0-5.221,6.5v17.8a1.263,1.263,0,1,0,2.526,0v-17.8a4.111,4.111,0,0,1,3.238-4.042l5.812-1.285a3.937,3.937,0,0,0,3.1-3.873v-2.945a10.682,10.682,0,0,0,10.97,0v2.952a3.939,3.939,0,0,0,3.1,3.873l5.8,1.29a4.112,4.112,0,0,1,3.238,4.042v17.784a1.263,1.263,0,1,0,2.526,0v-17.8c.014-3.128-.967-5.718-4.449-6.5Zm-23.9-14.84v-5.389a6.844,6.844,0,0,1,6.837-6.839h2.694a6.844,6.844,0,0,1,6.837,6.839v5.389a8.185,8.185,0,1,1-16.369,0Z" transform="translate(-115.308 -155.337)" fill="#fff" stroke="#fff" stroke-miterlimit="10" stroke-width="1"/>
        <path id="Path_20" data-name="Path 20" d="M82.792,64.741A128.234,128.234,0,0,0,68.972,45.105,127.444,127.444,0,0,0,82.93,25.22c5.667-10.328,6.788-17.659,3.252-21.2-3.577-3.569-11-2.4-21.455,3.39-9.869,5.463-21.273,14.429-32.09,25.247-3.464,3.464-6.736,6.987-9.768,10.5A124.053,124.053,0,0,1,9.426,23.933C4.606,15.131,3.247,8.349,5.79,5.806c1.933-1.933,6.273-1.655,12.218.781C24.288,9.162,31.893,13.916,40,20.336a1.263,1.263,0,0,0,1.568-1.979c-8.289-6.568-16.1-11.443-22.6-14.106C11.915,1.362,6.743,1.281,4,4.016.463,7.552,1.576,14.853,7.2,25.141A128.01,128.01,0,0,0,21.211,45.107,128.253,128.253,0,0,0,7.39,64.743C1.6,75.2.431,82.621,4,86.2a7.669,7.669,0,0,0,5.652,2c3.092,0,7.026-1.1,11.681-3.279a1.262,1.262,0,0,0-1.071-2.285c-7.029,3.291-12.3,3.937-14.471,1.77C3.212,81.829,4.636,74.935,9.6,65.964A124.849,124.849,0,0,1,22.87,47.057c2.806,3.255,5.82,6.519,9,9.734a1.263,1.263,0,1,0,1.8-1.775c-3.24-3.277-6.305-6.6-9.146-9.909,3.062-3.565,6.381-7.147,9.9-10.669s7.1-6.846,10.669-9.9c3.6,3.084,7.181,6.4,10.672,9.9,3.521,3.521,6.841,7.1,9.9,10.669-2.892,3.368-6.015,6.751-9.321,10.086a1.263,1.263,0,1,0,1.794,1.779c3.243-3.276,6.32-6.6,9.183-9.913a124.84,124.84,0,0,1,13.27,18.905c4.963,8.971,6.388,15.867,3.809,18.444-2.167,2.167-7.442,1.516-14.474-1.775a1.263,1.263,0,1,0-1.071,2.287c4.656,2.189,8.589,3.277,11.681,3.277a7.7,7.7,0,0,0,5.65-2c3.574-3.574,2.4-10.992-3.385-21.453ZM57.553,32.653c-3.435-3.437-6.964-6.714-10.505-9.768A124.923,124.923,0,0,1,65.956,9.614C74.927,4.651,81.823,3.226,84.4,5.8c2.551,2.55,1.179,9.355-3.675,18.2A125.474,125.474,0,0,1,67.32,43.155C64.289,39.64,61.01,36.117,57.553,32.653Z" transform="translate(-1.975 -1.994)" fill="#fff" stroke="#fff" stroke-miterlimit="10" stroke-width="1"/>
      </g>
    </g>
  </g>
</svg>
