<svg xmlns="http://www.w3.org/2000/svg" width="57" height="57" viewBox="0 0 57 57">
  <g id="vegan" transform="translate(-570 -858)">
    <g id="Ellipse_1" data-name="Ellipse 1" transform="translate(570 858)" fill="none" stroke="#fff" stroke-width="2">
      <circle cx="28.5" cy="28.5" r="28.5" stroke="none"/>
      <circle cx="28.5" cy="28.5" r="27.5" fill="none"/>
    </g>
    <g id="Group_13" data-name="Group 13" transform="translate(558 845.5)">
      <path id="Path_7" data-name="Path 7" d="M42.152,23.475c-3.4,3.4-7.607,11.144-6.806,16.749l-4.4,4.4A5.476,5.476,0,0,0,24,45.3a5.4,5.4,0,0,0,0,7.674,5.615,5.615,0,0,0,3.07,1.535,5.023,5.023,0,0,0,1.535,3.07,5.4,5.4,0,0,0,7.674,0,5.554,5.554,0,0,0,.667-6.94l4.4-4.4c5.672.8,13.346-3.4,16.749-6.806,2.336-2.336.667-7.541-3.87-12.145C49.693,22.807,44.488,21.139,42.152,23.475ZM34.078,49.7a1.515,1.515,0,0,0-.4,1.068,1.419,1.419,0,0,0,.467,1l.2.133a2.69,2.69,0,1,1-4.538,1.535,1.473,1.473,0,0,0-1.6-1.6,2.575,2.575,0,0,1-2.269-.734,2.69,2.69,0,0,1,3.8-3.8h0l.133.133a1.419,1.419,0,0,0,1,.467,1.636,1.636,0,0,0,1.068-.4l4.4-4.4a5.3,5.3,0,0,0,.934,1.2,7.335,7.335,0,0,0,1.2.934ZM56.165,37.555c-.867.867-4.6-.2-8.208-3.87-3.6-3.6-4.738-7.34-3.87-8.208s4.6.2,8.208,3.87S57.033,36.687,56.165,37.555Z" fill="#fff"/>
    </g>
    <line id="Line_3" data-name="Line 3" x2="12" y2="12" transform="translate(578.5 867.5)" fill="none" stroke="#fff" stroke-width="2"/>
    <line id="Line_4" data-name="Line 4" x2="12" y2="12" transform="translate(605.5 894.5)" fill="none" stroke="#fff" stroke-width="2"/>
  </g>
</svg>
