<svg xmlns="http://www.w3.org/2000/svg" width="57" height="57" viewBox="0 0 57 57">
  <g id="natural" transform="translate(-570 -858)">
    <g id="Ellipse_1" data-name="Ellipse 1" transform="translate(570 858)" fill="none" stroke="#fff" stroke-width="2">
      <circle cx="28.5" cy="28.5" r="28.5" stroke="none"/>
      <circle cx="28.5" cy="28.5" r="27.5" fill="none"/>
    </g>
    <g id="noun_leaf_3484614" transform="translate(582.864 868.896)">
      <path id="Path_1" data-name="Path 1" d="M40.524,5c-2.788,4.1-10.986,8.232-19.68,10.246C13.3,16.995,12.3,23.568,14.25,28.67c.441-.583.9-1.157,1.383-1.707a25.749,25.749,0,0,1,4.26-3.861c1.545-1.123,3.108-2.133,4.7-3.151,2.032-1.295,4.169-2.417,6.222-3.606A27.752,27.752,0,0,0,36.427,12c.14-.135.311-.184.387-.11s.029.244-.107.386l-.06.063A27.7,27.7,0,0,1,31.233,16.8c-2.014,1.252-4.117,2.44-6.108,3.8-1.563,1.067-3.094,2.125-4.6,3.295a25.747,25.747,0,0,0-4.138,3.991,34.341,34.341,0,0,0-3.245,4.736c-.488.821-.92,1.667-1.368,2.506-.413.853-.854,1.7-1.237,2.563-.41.894-.2,1.475.282,1.678s1.052-.044,1.415-.931c.344-.863.737-1.7,1.107-2.546.4-.83.789-1.67,1.228-2.478s.876-1.6,1.357-2.376c2.04.5,8.861,1.915,13.317-.409C35.239,27.492,41.752,18.457,40.524,5Z" transform="translate(-10.316 -5)" fill="#fff"/>
    </g>
  </g>
</svg>
