<svg xmlns="http://www.w3.org/2000/svg" width="57" height="57" viewBox="0 0 57 57">
  <g id="natural" transform="translate(-570 -858)">
    <g id="Ellipse_1" data-name="Ellipse 1" transform="translate(570 858)" fill="none" stroke="#fff" stroke-width="2">
      <circle cx="28.5" cy="28.5" r="28.5" stroke="none"/>
      <circle cx="28.5" cy="28.5" r="27.5" fill="none"/>
    </g>
    <g id="organic" transform="translate(573 865.571)">
      <g id="Group_2" data-name="Group 2" transform="translate(10.47 2.584)">
        <path id="Path_4" data-name="Path 4" d="M28.734,20.8a22.34,22.34,0,0,1,2.751,5.231l3.41.271a24.154,24.154,0,0,1,3.952-8.021c2.247.852,5.115.814,6.781-.62,2.867-2.48,2.6-10,1.86-14.337A.89.89,0,0,0,45.9,2.939c-3.991,5.115-11,5.812-10.889,10.734a3.3,3.3,0,0,0,.969,2.48,15.942,15.942,0,0,1,6.82-5.076.135.135,0,0,0,.077-.039,24.239,24.239,0,0,0-3.914,3.914,24.71,24.71,0,0,0-5.735,9.8,23.994,23.994,0,0,0-2.4-4.534,23.926,23.926,0,0,0-4.8-5.89c.039,0,.039,0,.077.039a13.979,13.979,0,0,1,5.7,4.534,2.73,2.73,0,0,0,.891-2.092c.232-4.224-5.774-5-9.029-9.494a.786.786,0,0,0-1.395.31c-.736,3.681-1.2,10.114,1.2,12.322C24.742,21.113,26.874,21.268,28.734,20.8Z" transform="translate(-17.33 -2.584)" fill="#fff"/>
        <path id="Path_5" data-name="Path 5" d="M36.832,69.157a36.958,36.958,0,0,1-3.642.93,4.14,4.14,0,0,1-2.984,1.782,5.489,5.489,0,0,1-1.162.077,33.036,33.036,0,0,1-3.6-.271.659.659,0,0,1-.271-.039.667.667,0,0,1-.62-.62.645.645,0,0,1,.736-.7c.116,0,.194.039.31.039a20.266,20.266,0,0,0,4.417.194c1.937-.31,2.48-1.472,2.4-2.48a1.6,1.6,0,0,0-1.627-1.55,36.42,36.42,0,0,1-4.495-.194,30.537,30.537,0,0,0-4.882-.116,18.791,18.791,0,0,0-6.975,2.867c-1.279.852-2.712,1.821-3.565,2.441a.945.945,0,0,0-.194,1.356L14.318,77.8a.933.933,0,0,0,1.317.194l1.395-1.046a1.387,1.387,0,0,1,1.162-.194,30.459,30.459,0,0,0,6.936,1.55c3.836.271,11.276-4.146,13.446-5.58A1.987,1.987,0,0,0,36.832,69.157Z" transform="translate(-10.47 -41.522)" fill="#fff"/>
      </g>
    </g>
  </g>
</svg>
