<svg xmlns="http://www.w3.org/2000/svg" width="16.934" height="23.284" viewBox="0 0 16.934 23.284">
  <g id="location-icon" transform="translate(-4.232 -272.658)">
    <path id="Path_8" data-name="Path 8" d="M12.7,272.658a8.475,8.475,0,0,0-8.467,8.467c0,3.4,2.056,7.015,4.068,9.832a42.523,42.523,0,0,0,4.025,4.83.529.529,0,0,0,.748,0,42.518,42.518,0,0,0,4.025-4.83c2.012-2.817,4.066-6.437,4.066-9.832a8.475,8.475,0,0,0-8.467-8.467Zm0,1.059a7.4,7.4,0,0,1,7.408,7.408c0,2.955-1.912,6.477-3.869,9.217A34.043,34.043,0,0,1,12.7,294.59a34.12,34.12,0,0,1-3.537-4.248c-1.957-2.739-3.871-6.262-3.871-9.217a7.4,7.4,0,0,1,7.408-7.408Z" fill="#ff7f00"/>
    <path id="Path_9" data-name="Path 9" d="M12.7,277.42a3.705,3.705,0,1,0,3.705,3.705A3.712,3.712,0,0,0,12.7,277.42Zm0,1.059a2.646,2.646,0,1,1-2.645,2.646A2.639,2.639,0,0,1,12.7,278.479Z" fill="#ff7f00"/>
  </g>
</svg>
