<svg xmlns="http://www.w3.org/2000/svg" width="767.457" height="518.945" viewBox="0 0 767.457 518.945">
  <g id="undraw_diet_ghvw" transform="translate(0 0)">
    <ellipse id="Ellipse_35" data-name="Ellipse 35" cx="122.366" cy="9.212" rx="122.366" ry="9.212" transform="translate(522.725 500.521)" fill="#e6e6e6"/>
    <path id="Path_156" data-name="Path 156" d="M340.909,333.454c.039-9.376-7.949-17.045-17.325-17.045h-87c-9.228,0-17.2,7.542-17.309,16.77a16.936,16.936,0,0,0,6.57,13.611,3.788,3.788,0,0,1,1.5,3.468,16.852,16.852,0,0,0-.151,2.256v60.18A16.868,16.868,0,0,0,244.06,429.56h71.495a16.868,16.868,0,0,0,16.868-16.868V352.513a16.964,16.964,0,0,0-.116-1.978,3.659,3.659,0,0,1,1.54-3.376A16.946,16.946,0,0,0,340.909,333.454Z" transform="translate(-216.272 -190.527)" fill="#3f3d56"/>
    <path id="Path_157" data-name="Path 157" d="M337.142,331.8a13.5,13.5,0,0,0-13.5-11.717H236.556a13.528,13.528,0,0,0-13.3,10.478,13.317,13.317,0,0,0,6.365,14.342,3.663,3.663,0,0,1,1.714,4.147,13.06,13.06,0,0,0-.464,3.462v60.174a13.2,13.2,0,0,0,10.748,12.967,13.355,13.355,0,0,0,2.446.227h71.495a13.047,13.047,0,0,0,3.57-.492,13.191,13.191,0,0,0,9.618-12.7V352.51a13.136,13.136,0,0,0-.408-3.249,3.77,3.77,0,0,1-.113-.9,3.668,3.668,0,0,1,1.946-3.236l.006-.006A13.29,13.29,0,0,0,337.142,331.8Z" transform="translate(-216.272 -190.527)" fill="#4884c2"/>
    <path id="Path_158" data-name="Path 158" d="M328.746,358.275v-5.658h-9.618V320.086H313.47v32.531H283.2V320.086h-5.658v32.531H247.277V320.086h-5.658v32.531H230.87v5.658h10.749v16.973H230.87v5.658h10.749v16.973H230.87v5.658h10.749v22.121a13.358,13.358,0,0,0,2.444.226h3.213V403.536h30.268v22.347H283.2V403.536h30.268v22.347h2.088a13.047,13.047,0,0,0,3.57-.492V403.536h9.618v-5.658h-9.618V380.906h9.618v-5.658h-9.618V358.275Zm-81.469,0h30.268v16.973H247.277Zm0,39.6V380.906h30.268v16.973Zm66.194,0H283.2V380.906h30.268Zm0-22.63H283.2V358.275h30.268Z" transform="translate(-216.272 -190.527)" opacity="0.2"/>
    <path id="Path_159" data-name="Path 159" d="M340.513,190.527a60.423,60.423,0,0,1-120.845,0Z" transform="translate(-216.272 -190.527)" fill="#4884c2"/>
    <path id="Path_160" data-name="Path 160" d="M241.835,201.253c0,1.58-.56,2.86-1.251,2.86s-1.251-1.281-1.251-2.86a4.661,4.661,0,0,1,1.251-2.86,4.661,4.661,0,0,1,1.251,2.86Z" transform="translate(-216.272 -190.527)" fill="#3f3d56"/>
    <path id="Path_161" data-name="Path 161" d="M305.118,211.264c0,1.58-.56,2.86-1.251,2.86s-1.251-1.281-1.251-2.86a4.661,4.661,0,0,1,1.251-2.86,4.661,4.661,0,0,1,1.251,2.86Z" transform="translate(-216.272 -190.527)" fill="#3f3d56"/>
    <path id="Path_162" data-name="Path 162" d="M258.639,205.544c0,1.58-.56,2.86-1.251,2.86s-1.251-1.281-1.251-2.86a4.662,4.662,0,0,1,1.251-2.86A4.662,4.662,0,0,1,258.639,205.544Z" transform="translate(-216.272 -190.527)" fill="#3f3d56"/>
    <path id="Path_163" data-name="Path 163" d="M283.666,228.068c0,1.58-.56,2.86-1.251,2.86s-1.251-1.281-1.251-2.86a4.661,4.661,0,0,1,1.251-2.86A4.662,4.662,0,0,1,283.666,228.068Z" transform="translate(-216.272 -190.527)" fill="#3f3d56"/>
    <path id="Path_164" data-name="Path 164" d="M256.851,225.208c0,1.58-.56,2.86-1.251,2.86s-1.251-1.281-1.251-2.86a4.662,4.662,0,0,1,1.251-2.86A4.662,4.662,0,0,1,256.851,225.208Z" transform="translate(-216.272 -190.527)" fill="#3f3d56"/>
    <path id="Path_165" data-name="Path 165" d="M319.419,198.393c0,1.58-.56,2.86-1.251,2.86s-1.251-1.281-1.251-2.86a4.662,4.662,0,0,1,1.251-2.86,4.661,4.661,0,0,1,1.251,2.86Z" transform="translate(-216.272 -190.527)" fill="#3f3d56"/>
    <path id="Path_166" data-name="Path 166" d="M296.537,233.788c0,1.58-.56,2.86-1.251,2.86s-1.251-1.281-1.251-2.86a4.662,4.662,0,0,1,1.251-2.86A4.662,4.662,0,0,1,296.537,233.788Z" transform="translate(-216.272 -190.527)" fill="#3f3d56"/>
    <path id="Path_167" data-name="Path 167" d="M280.091,254.346a63.891,63.891,0,0,1-63.819-63.819h6.793a57.026,57.026,0,1,0,114.052,0h6.793a63.891,63.891,0,0,1-63.819,63.819Z" transform="translate(-216.272 -190.527)" fill="#3f3d56"/>
    <rect id="Rectangle_43" data-name="Rectangle 43" width="20" height="20" transform="translate(190.819 21.91)" fill="#ff9700"/>
    <rect id="Rectangle_44" data-name="Rectangle 44" width="161" height="2" transform="translate(245.819 30.91)" fill="#3f3d56"/>
    <rect id="Rectangle_45" data-name="Rectangle 45" width="20" height="20" transform="translate(190.819 172.458)" fill="#ff9700"/>
    <rect id="Rectangle_46" data-name="Rectangle 46" width="161" height="2" transform="translate(245.819 181.458)" fill="#3f3d56"/>
    <rect id="Rectangle_47" data-name="Rectangle 47" width="20" height="20" transform="translate(190.819 321.959)" fill="#ff9700"/>
    <rect id="Rectangle_48" data-name="Rectangle 48" width="161" height="2" transform="translate(245.819 330.959)" fill="#3f3d56"/>
    <path id="Path_168" data-name="Path 168" d="M848.6,327.872l-25.548,20.137-54.135-19.026s-18.406-20.7-28.815-5.283c-3.565,5.281,19.784,15.038,21.986,15.944,5.507,2.267,58.258,31.207,63.428,27.41s34.253-23,34.253-23Z" transform="translate(-216.272 -190.527)" fill="#a0616a"/>
    <path id="Path_169" data-name="Path 169" d="M935.806,293.52c-24.214-9.048-47.247-13.329-65.922,0V250.5a32.961,32.961,0,0,1,32.961-32.961h0A32.961,32.961,0,0,1,935.806,250.5Z" transform="translate(-216.272 -190.527)" fill="#2f2e41"/>
    <path id="Path_170" data-name="Path 170" d="M874.965,387.491l-1.979,13.85s-4.946,14.839,0,42.539L793.349,661.03l58.862,16.818L881.4,559.133l41.056-90.52L918.494,571.5,897.718,681.311l61.336-2.473,17.873-188.293a166.794,166.794,0,0,0-14.945-86.825c-4.958-10.53-10.289-18.829-15.127-20.034C932.344,380.072,874.965,387.491,874.965,387.491Z" transform="translate(-216.272 -190.527)" fill="#2f2e41"/>
    <path id="Path_171" data-name="Path 171" d="M800.768,659.546,780.487,681.31s-39.077,20.281-11.377,22.754,37.1-8.409,37.1-8.409,34.625-2.473,34.13-7.42-2.968-21.27-2.968-21.27Z" transform="translate(-216.272 -190.527)" fill="#2f2e41"/>
    <path id="Path_172" data-name="Path 172" d="M910.826,664.794v15.334s.495,6.43,0,7.914-7.914,19.786,16.818,15.829,14.839-19.291,14.839-19.291l-5.936-22.259Z" transform="translate(-216.272 -190.527)" fill="#2f2e41"/>
    <circle id="Ellipse_36" data-name="Ellipse 36" cx="24.856" cy="24.856" r="24.856" transform="translate(661.414 40.409)" fill="#a0616a"/>
    <path id="Path_173" data-name="Path 173" d="M919.73,269.519s-3.463,32.647,0,38.582-35.12-5.936-35.12-5.936,8.409-22.259,5.441-31.163S919.73,269.519,919.73,269.519Z" transform="translate(-216.272 -190.527)" fill="#a0616a"/>
    <path id="Path_174" data-name="Path 174" d="M939.516,363.5l7.914,21.764-73.7,8.409s-7.914-1.484-7.914-7.914-8.409-29.184-8.409-29.184-20.595-16.692-30.488-21.144c-3.586-1.613,1.778-.947,4.8-7.793.905-2.058,1.988-4.229,3.171-6.43.965-1.805,2-3.636,3.067-5.441,1.291-2.2,2.622-4.368,3.913-6.43,3.908-6.237,7.474-11.481,8.617-13.6,3.463-6.43,36.015-7,36.015-7,9.309,5.857,36.2,7,36.2,7s18.5,7.741,26.206,13.6C949.463,309.758,939.516,363.5,939.516,363.5Z" transform="translate(-216.272 -190.527)" fill="#e6e6e6"/>
    <path id="Path_175" data-name="Path 175" d="M923.516,225.954v-.59l-.7.039a32.986,32.986,0,0,0-28.349-5.665,32.844,32.844,0,0,1,12.652,6.537L883.292,227.6l-10.056,22.346h6.805l5.485-10.056v10.056h23.017l1.564-7.821,4.345,7.821h4.522c.028.558.071,1.111.071,1.676l-4.469,43.017,21.229-8.939V251.62A32.892,32.892,0,0,0,923.516,225.954Z" transform="translate(-216.272 -190.527)" fill="#2f2e41"/>
    <path id="Path_176" data-name="Path 176" d="M956.828,339.758l-1.484,39.077-3.957,75.681s5.441,32.647-8.409,32.152-3.463-38.582-3.463-38.582l-3.957-59.852,3.957-42.045Z" transform="translate(-216.272 -190.527)" fill="#a0616a"/>
    <path id="Path_177" data-name="Path 177" d="M960.786,361.028c0,4.452-24.98,3.215-24.98,3.215L922.7,295.735s18.5,7.741,26.206,13.6a23.23,23.23,0,0,1,4.388,6.43c.589,1.588,1.147,3.428,1.677,5.441s1.014,4.17,1.474,6.43a263.161,263.161,0,0,1,4.343,33.388Z" transform="translate(-216.272 -190.527)" fill="#e6e6e6"/>
    <path id="Path_178" data-name="Path 178" d="M279.418,519.951l-37.862-3.92a12.02,12.02,0,1,0-20.7,6.466,12.025,12.025,0,1,0,20.563,5.559l38-3.493Z" transform="translate(-216.272 -190.527)" fill="#ccc"/>
    <path id="Path_179" data-name="Path 179" d="M317.92,545.973c14.884,3.66,29.879-6.9,30.655-22.205q.032-.637.032-1.282t-.032-1.282C347.8,505.9,332.8,495.339,317.92,499l-50.495,12.417a11.07,11.07,0,1,0,0,22.14Z" transform="translate(-216.272 -190.527)" fill="#4884c2"/>
  </g>
</svg>
