<svg xmlns="http://www.w3.org/2000/svg" width="769.924" height="727.778" viewBox="0 0 769.924 727.778">
  <g id="undraw_online_groceries_a02y" transform="translate(0 0)">
    <rect id="Rectangle_10" data-name="Rectangle 10" width="519.557" height="2.241" transform="translate(250.367 723.942)" fill="#3f3d56"/>
    <path id="Path_21" data-name="Path 21" d="M888,428.993a11.02,11.02,0,0,1-2.155,16.227l-53.77,36.917L808.4,497.921a6.509,6.509,0,0,1-8.649-1.294h0a6.509,6.509,0,0,1,1.769-9.751l22.933-13.316,40.023-38.118-25.729-27.635L857.8,393.513Z" transform="translate(-215.038 -86.111)" fill="#a0616a"/>
    <path id="Path_22" data-name="Path 22" d="M546.52,690.482H533.367l-7.812-108.635,33.353-.953Z" fill="#a0616a"/>
    <path id="Path_23" data-name="Path 23" d="M762.511,811.851c-3.507,1.6-6.445-11.367-9.4-8.46-8.275,8.132-20.946,9.9-31.991,6.352l3.866-.043a5.173,5.173,0,0,1-3.26-6.741h0a5.173,5.173,0,0,1,3.589-3.2l8.8-2.2,13.818-24.3,14.106-.953h0a33.7,33.7,0,0,1,6.233,28.749C766.987,806.278,765.011,810.71,762.511,811.851Z" transform="translate(-215.038 -86.111)" fill="#2f2e41"/>
    <path id="Path_24" data-name="Path 24" d="M634.1,690.482H620.943l-7.812-108.635,34.306-6.67Z" fill="#a0616a"/>
    <path id="Path_25" data-name="Path 25" d="M850.087,811.851c-3.507,1.6-6.445-11.367-9.4-8.46-8.275,8.132-20.946,9.9-31.991,6.352l3.866-.043a5.173,5.173,0,0,1-3.26-6.741h0a5.173,5.173,0,0,1,3.589-3.2l8.8-2.2,13.818-24.3,15.059-1.906.38.622a38.827,38.827,0,0,1,4.161,31.749C853.852,807.735,852.148,810.911,850.087,811.851Z" transform="translate(-215.038 -86.111)" fill="#2f2e41"/>
    <path id="Path_26" data-name="Path 26" d="M864.048,395.97c-12.1,1.683-20.469,8.307-23.88,21.521l-22.233-41.05A12.155,12.155,0,0,1,821.808,361h0a12.155,12.155,0,0,1,16.511,2.417Z" transform="translate(-215.038 -86.111)" fill="#4884c2"/>
    <path id="Path_27" data-name="Path 27" d="M887.346,656.523c-54.058,23.918-109.381,26.861-165.811,11.435,20.606-79.922,44.938-152.188,44.788-211.552l55.27-4.765,8.51,13.491a299.309,299.309,0,0,1,41.072,104.76Z" transform="translate(-215.038 -86.111)" fill="#2f2e41"/>
    <circle id="Ellipse_2" data-name="Ellipse 2" cx="28.588" cy="28.588" r="28.588" transform="translate(553.191 190.191)" fill="#a0616a"/>
    <path id="Path_28" data-name="Path 28" d="M613.225,269.284l-35.258,1.906-5.718-31.447,28.588-4.764Z" fill="#a0616a"/>
    <path id="Path_29" data-name="Path 29" d="M824.452,456.407,785.825,457.5l-19.5,2.724c-9.573-31.621-17.632-63.17,1.906-89.576l22.87-22.871,34.306-.953.454.26a27.626,27.626,0,0,1,12.657,32.14C830,406.883,824.535,433.007,824.452,456.407Z" transform="translate(-215.038 -86.111)" fill="#4884c2"/>
    <path id="Path_30" data-name="Path 30" d="M765.37,545.03l-2.4,32.747a7.294,7.294,0,0,1-6.789,6.746h0a7.294,7.294,0,0,1-7.777-7.452l.763-32.041L772.994,454.5l.953-55.27,26.682-.953-1.906,63.847Z" transform="translate(-215.038 -86.111)" fill="#a0616a"/>
    <path id="Path_31" data-name="Path 31" d="M803.487,403.042c-11.312-4.6-21.878-3.06-31.447,6.671l1.311-46.666a12.155,12.155,0,0,1,11.083-11.422h0a12.155,12.155,0,0,1,13.081,10.36Z" transform="translate(-215.038 -86.111)" fill="#4884c2"/>
    <path id="Path_32" data-name="Path 32" d="M857.328,432.107h-87.67c20.452-54.157,27.047-104.539,0-147.705.464-12.965,17.093-24.2,30.007-22.963h0c15.252,1.467,35.747,12.674,38.6,27.728Z" transform="translate(-215.038 -86.111)" fill="#2f2e41"/>
    <path id="Path_33" data-name="Path 33" d="M577.928,259.058h-4V149.513a63.4,63.4,0,0,0-63.4-63.4H278.44a63.4,63.4,0,0,0-63.4,63.4V750.487a63.4,63.4,0,0,0,63.4,63.4H510.527a63.4,63.4,0,0,0,63.4-63.4V337.034h4Z" transform="translate(-215.038 -86.111)" fill="#3f3d56"/>
    <path id="Path_34" data-name="Path 34" d="M513.085,102.606h-30.3A22.495,22.495,0,0,1,461.963,133.6H329a22.495,22.495,0,0,1-20.827-30.99H279.881a47.348,47.348,0,0,0-47.348,47.348V750.046a47.348,47.348,0,0,0,47.348,47.348h233.2a47.348,47.348,0,0,0,47.348-47.348V149.954a47.348,47.348,0,0,0-47.348-47.348Z" transform="translate(-215.038 -86.111)" fill="#fff"/>
    <rect id="Rectangle_11" data-name="Rectangle 11" width="246" height="211" transform="translate(58.445 110.234)" fill="#e6e6e6"/>
    <circle id="Ellipse_3" data-name="Ellipse 3" cx="18" cy="18" r="18" transform="translate(113.445 329.234)" fill="#4884c2"/>
    <path id="Path_35" data-name="Path 35" d="M140.445,345.734h-7.5v-7.5h-3v7.5h-7.5v3h7.5v7.5h3v-7.5h7.5Z" fill="#fff"/>
    <circle id="Ellipse_4" data-name="Ellipse 4" cx="18" cy="18" r="18" transform="translate(208.445 329.234)" fill="#4884c2"/>
    <rect id="Rectangle_12" data-name="Rectangle 12" width="3" height="18" transform="translate(235.444 345.734) rotate(90)" fill="#fff"/>
    <path id="Path_36" data-name="Path 36" d="M405.658,222.66H386.217a2.577,2.577,0,0,0-2.577,2.577v8.533a2.577,2.577,0,0,0,2.577,2.577h3.222v12.785h13V236.347h3.222a2.577,2.577,0,0,0,2.577-2.577v-8.533a2.577,2.577,0,0,0-2.577-2.577Z" transform="translate(-215.038 -86.111)" fill="#4884c2"/>
    <path id="Path_37" data-name="Path 37" d="M425.129,300.752A99.945,99.945,0,0,1,407.742,241.5a2.108,2.108,0,0,0-1.645-2.1v-3.687H385.565v3.636h-.283a2.107,2.107,0,0,0-2.1,2.109q0,.077.006.153,2.426,33.821-16.386,60.66a5.806,5.806,0,0,0-1.051,3.518l2.245,69.445a6.012,6.012,0,0,0,5.96,5.8h46.439a6.014,6.014,0,0,0,5.964-5.9l.865-67.425a12.169,12.169,0,0,0-2.092-6.948Z" transform="translate(-215.038 -86.111)" fill="#3f3d56"/>
    <path id="Path_38" data-name="Path 38" d="M401.605,225.44a5.561,5.561,0,1,1-11.121,0" transform="translate(-215.038 -86.111)" opacity="0.2"/>
    <path id="Path_39" data-name="Path 39" d="M417.778,323.82h-5.623a14.759,14.759,0,0,0-29.174,0h-5.624a4.15,4.15,0,0,0-4.1,4.781l6.108,39.7h35.074l7.419-39.57a4.15,4.15,0,0,0-4.079-4.915Z" transform="translate(-215.038 -86.111)" fill="#4884c2"/>
    <rect id="Rectangle_13" data-name="Rectangle 13" width="246" height="211" transform="translate(58.445 407.234)" fill="#e6e6e6"/>
    <circle id="Ellipse_5" data-name="Ellipse 5" cx="18" cy="18" r="18" transform="translate(113.445 626.234)" fill="#4884c2"/>
    <path id="Path_40" data-name="Path 40" d="M140.445,642.734h-7.5v-7.5h-3v7.5h-7.5v3h7.5v7.5h3v-7.5h7.5Z" fill="#fff"/>
    <circle id="Ellipse_6" data-name="Ellipse 6" cx="18" cy="18" r="18" transform="translate(208.445 626.234)" fill="#4884c2"/>
    <rect id="Rectangle_14" data-name="Rectangle 14" width="3" height="18" transform="translate(235.444 642.734) rotate(90)" fill="#fff"/>
    <path id="Path_41" data-name="Path 41" d="M444.911,643.242h.136a23.04,23.04,0,0,0,21.573-14.45A75.416,75.416,0,1,0,366.154,670.1a22.843,22.843,0,0,0,25.37-4.7,75.167,75.167,0,0,1,53.387-22.156Z" transform="translate(-215.038 -86.111)" fill="#fff"/>
    <circle id="Ellipse_7" data-name="Ellipse 7" cx="24.906" cy="24.906" r="24.906" transform="translate(166.224 484.489)" fill="#f9a825"/>
  </g>
</svg>
