<svg xmlns="http://www.w3.org/2000/svg" width="660.19" height="612" viewBox="0 0 660.19 612">
  <g id="undraw_barbecue_3x93" transform="translate(0 -0.019)">
    <ellipse id="Ellipse_32" data-name="Ellipse 32" cx="327" cy="22" rx="327" ry="22" transform="translate(0 568.019)" fill="#3f3d56"/>
    <rect id="Rectangle_31" data-name="Rectangle 31" width="10" height="6" transform="translate(322 351.019)" fill="#3f3d56"/>
    <rect id="Rectangle_32" data-name="Rectangle 32" width="11" height="6" transform="translate(343 351.019)" fill="#3f3d56"/>
    <rect id="Rectangle_33" data-name="Rectangle 33" width="11" height="6" transform="translate(365 351.019)" fill="#3f3d56"/>
    <rect id="Rectangle_34" data-name="Rectangle 34" width="11" height="6" transform="translate(387 351.019)" fill="#3f3d56"/>
    <rect id="Rectangle_35" data-name="Rectangle 35" width="11" height="6" transform="translate(409 351.019)" fill="#3f3d56"/>
    <rect id="Rectangle_36" data-name="Rectangle 36" width="11" height="6" transform="translate(431 351.019)" fill="#3f3d56"/>
    <rect id="Rectangle_37" data-name="Rectangle 37" width="11" height="6" transform="translate(453 351.019)" fill="#3f3d56"/>
    <rect id="Rectangle_38" data-name="Rectangle 38" width="11" height="6" transform="translate(475 351.019)" fill="#3f3d56"/>
    <rect id="Rectangle_39" data-name="Rectangle 39" width="11" height="6" transform="translate(497 351.019)" fill="#3f3d56"/>
    <rect id="Rectangle_40" data-name="Rectangle 40" width="11" height="6" transform="translate(519 351.019)" fill="#3f3d56"/>
    <rect id="Rectangle_41" data-name="Rectangle 41" width="11" height="6" transform="translate(541 351.019)" fill="#3f3d56"/>
    <path id="Path_124" data-name="Path 124" d="M845.172,503.512a131.531,131.531,0,1,1-263.062,0Z" transform="translate(-268.352 -148.628)" fill="#3f3d56"/>
    <path id="Path_125" data-name="Path 125" d="M855.218,480.14l-83.668-249.4a131.441,131.441,0,0,1,166.533,82.865c.886,2.64,1.69,5.3,2.4,7.956A131.538,131.538,0,0,1,855.218,480.14Z" transform="translate(-284.755 -124.416)" fill="#3f3d56"/>
    <ellipse id="Ellipse_33" data-name="Ellipse 33" cx="16.5" cy="16" rx="16.5" ry="16" transform="translate(557 343.019)" fill="#3f3d56"/>
    <path id="Path_126" data-name="Path 126" d="M683.176,541.012a4.567,4.567,0,0,0,0,9.134h78.553a4.567,4.567,0,0,0,0-9.134Z" transform="translate(-276.708 -151.876)" fill="#4884c2"/>
    <path id="Path_127" data-name="Path 127" d="M599.864,636.41l-16.356.6L524.584,510.293l14.909-6.932Z" transform="translate(-45.423 -43.584)" fill="#3f3d56"/>
    <path id="Path_128" data-name="Path 128" d="M368,636.41l16.356.6L443.28,510.293l-14.909-6.932Z" transform="translate(-31.865 -43.584)" fill="#3f3d56"/>
    <rect id="Rectangle_42" data-name="Rectangle 42" width="135" height="9" transform="translate(378 520.019)" fill="#3f3d56"/>
    <path id="Path_129" data-name="Path 129" d="M774.82,226.294a4.111,4.111,0,0,0-3.93,5.311l3.465,11.357a4.111,4.111,0,0,0,7.864-2.4l-3.465-11.357A4.119,4.119,0,0,0,774.82,226.294Z" transform="translate(-284.683 -124.625)" fill="#4884c2"/>
    <path id="Path_130" data-name="Path 130" d="M575.719,506.012a4.11,4.11,0,0,0,0,8.221h11.874a4.11,4.11,0,0,0,0-8.221Z" transform="translate(-267.443 -148.845)" fill="#4884c2"/>
    <path id="Path_131" data-name="Path 131" d="M677.721,473.012H628.4c-.311,0-.612.009-.913.036a12.785,12.785,0,0,0-.027,25.5c.311.027.621.037.941.037h49.324a12.788,12.788,0,1,0,0-25.576Z" transform="translate(-271.253 -145.988)" fill="#ff6584"/>
    <path id="Path_132" data-name="Path 132" d="M624.034,497.574c8.4-1.078,15.016-11.683,15.016-24.562h-1.827c0,12.6-6.558,22.835-14.615,22.835v1.023Z" transform="translate(-271.859 -145.987)" opacity="0.2"/>
    <path id="Path_133" data-name="Path 133" d="M643.609,497.674v-1.827c8.058,0,14.615-10.244,14.615-22.835h1.827C660.05,486.61,652.675,497.674,643.609,497.674Z" transform="translate(-273.677 -145.988)" opacity="0.2"/>
    <path id="Path_134" data-name="Path 134" d="M664.609,497.674v-1.827c8.058,0,14.615-10.244,14.615-22.835h1.827C681.05,486.61,673.675,497.674,664.609,497.674Z" transform="translate(-275.496 -145.988)" opacity="0.2"/>
    <path id="Path_135" data-name="Path 135" d="M775.721,473.012H726.4c-.311,0-.612.009-.913.036a12.785,12.785,0,0,0-.027,25.5c.311.027.621.037.941.037h49.324a12.788,12.788,0,1,0,0-25.576Z" transform="translate(-279.738 -145.988)" fill="#ff6584"/>
    <path id="Path_136" data-name="Path 136" d="M722.034,497.574c8.4-1.078,15.017-11.683,15.017-24.562h-1.827c0,12.6-6.558,22.835-14.615,22.835v1.023Z" transform="translate(-280.345 -145.987)" opacity="0.2"/>
    <path id="Path_137" data-name="Path 137" d="M741.609,497.674v-1.827c8.058,0,14.615-10.244,14.615-22.835h1.827C758.05,486.61,750.675,497.674,741.609,497.674Z" transform="translate(-282.163 -145.988)" opacity="0.2"/>
    <path id="Path_138" data-name="Path 138" d="M762.609,497.674v-1.827c8.058,0,14.615-10.244,14.615-22.835h1.827C779.05,486.61,771.675,497.674,762.609,497.674Z" transform="translate(-283.981 -145.988)" opacity="0.2"/>
    <path id="Path_139" data-name="Path 139" d="M677.815,338.442c-6.464-3.492-14.456.316-17.677,6.5-3.918,7.519-.67,16.559,3.9,22.985,4.748,6.678,11.192,12.191,14.361,19.908a33.277,33.277,0,0,1-12.982,40.982c-2.973,1.881-.226,6.625,2.766,4.732a38.912,38.912,0,0,0,13.881-50.771,54.293,54.293,0,0,0-7.132-10.079c-4.755-5.627-10.74-11.831-11.038-19.66a12.372,12.372,0,0,1,.211-3.032,10.655,10.655,0,0,1,.632-2.034,9.918,9.918,0,0,1,2.879-3.592,8.761,8.761,0,0,1,3.92-1.775,5.878,5.878,0,0,1,3.515.569c3.1,1.677,5.874-3.053,2.766-4.732Z" transform="translate(-274.957 -134.22)" fill="#e6e6e6"/>
    <path id="Path_140" data-name="Path 140" d="M768.163,374.789a15.985,15.985,0,0,0-15.992,3.717,9.712,9.712,0,0,0-2.6,8.48c.522,3.321,2.619,6.271,4.894,8.648,4.451,4.651,10.681,7.659,14.413,13a16.313,16.313,0,0,1,3.015,7.735,14.612,14.612,0,0,1-1.337,7.311c-2.784,5.659-8.311,9.509-14.14,11.987-1.362.579-1.663,2.587-.983,3.749a2.813,2.813,0,0,0,3.749.983c10.727-4.56,20.651-14.774,17.693-27.322-1.556-6.6-6.326-11.259-11.463-15.309a64.241,64.241,0,0,1-7.209-6.152c-1.776-1.887-3.622-4.463-3.3-7.019a3.882,3.882,0,0,1,1.231-2.309,10.624,10.624,0,0,1,2.715-1.8,10.212,10.212,0,0,1,7.851-.407,2.766,2.766,0,0,0,3.371-1.914,2.8,2.8,0,0,0-1.914-3.371Z" transform="translate(-282.84 -137.416)" fill="#e6e6e6"/>
    <path id="Path_141" data-name="Path 141" d="M722.365,289.3a9.4,9.4,0,0,0-5.842-2.249,10.317,10.317,0,0,0-5.689,1.839,19.584,19.584,0,0,0-7.538,11.294c-2.769,10.608.843,22.041,5.862,31.384,2.537,4.723,5.493,9.206,8.047,13.919a61.775,61.775,0,0,1,5.628,14.282,69.044,69.044,0,0,1,.678,31.173c-2.193,10.259-6.807,20.417-14.656,27.5a2.74,2.74,0,0,0,3.875,3.875c6.967-6.282,11.626-14.9,14.438-23.762a72.858,72.858,0,0,0,2.661-30.96,70.97,70.97,0,0,0-3.513-15.183,83.815,83.815,0,0,0-6.971-14.23c-5.151-8.709-10.635-17.518-11.38-27.888-.367-5.1.271-10.415,3.426-14.516-.173.224.138-.163.14-.165q.287-.344.595-.669a12.118,12.118,0,0,1,1.259-1.172c-.1.075-.338.237.1-.069.22-.152.444-.3.674-.434.187-.11.38-.208.572-.31q.171-.087.346-.164-.4.172.045,0c.214-.067,1.276-.3.687-.222a5.523,5.523,0,0,1,.592-.038c.084,0,.823.036.462,0-.422-.046.334.075.339.076a5.418,5.418,0,0,1,.7.22c-.57-.228.935.618.588.348a2.831,2.831,0,0,0,3.875,0c.946-.945,1.175-2.962,0-3.875Z" transform="translate(-278.762 -129.885)" fill="#e6e6e6"/>
    <path id="Path_142" data-name="Path 142" d="M249.732,608.934l-20.66,5.48L191.127,439.02l42.584-3.8Z" transform="translate(-16.549 -37.684)" fill="#ffb9b9"/>
    <path id="Path_143" data-name="Path 143" d="M148.04,611.734l-21.135,3.193L108.331,436.439l42.743.876Z" transform="translate(-9.38 -37.789)" fill="#ffb9b9"/>
    <path id="Path_144" data-name="Path 144" d="M373.944,450.333l1.952,36.428a9.353,9.353,0,0,1-10.186,9.815h0a9.353,9.353,0,0,1-8.47-8.5L353.706,447.8,325.879,353.36l.843-60.714,32.887,1.687Z" transform="translate(-246.165 -130.37)" fill="#ffb9b9"/>
    <path id="Path_145" data-name="Path 145" d="M392.451,553.546q-24.709-8.579-57.341-3.373c3.085-36.546,4.872-70.482,3.373-97.816H450.635Z" transform="translate(-246.965 -144.199)" fill="#2f2e41"/>
    <path id="Path_146" data-name="Path 146" d="M473.75,552.783c-16.979,8.982-41.539,13.281-69.989,15.178L368.344,454.966,455.2,453.28Z" transform="translate(-249.843 -144.279)" fill="#2f2e41"/>
    <path id="Path_147" data-name="Path 147" d="M525.11,756.826l-61.1,2.262c-7.827.29-8.239-6.431-6.762-14.122l7.233-20.655c16.286,15.955,17.819,16.847,24.8-5.85l21.307,16.829,15.771,2.7a9.487,9.487,0,0,1,7.884,9.366h0a9.487,9.487,0,0,1-9.136,9.466Z" transform="translate(-257.482 -167.241)" fill="#2f2e41"/>
    <path id="Path_148" data-name="Path 148" d="M423.8,756.826l-61.1,2.262c-7.827.29-8.239-6.431-6.762-14.122l7.233-20.655c16.286,15.955,17.819,16.847,24.8-5.85l21.307,16.829,15.771,2.7a9.487,9.487,0,0,1,7.884,9.366h0a9.487,9.487,0,0,1-9.136,9.466Z" transform="translate(-248.71 -167.241)" fill="#2f2e41"/>
    <circle id="Ellipse_34" data-name="Ellipse 34" cx="32.886" cy="32.886" r="32.886" transform="translate(156.448 7.12)" fill="#ffb9b9"/>
    <path id="Path_149" data-name="Path 149" d="M185.142,102.7l-38.789-11.8,26.141-38.79,29.513,12.649Z" transform="translate(-12.672 -4.51)" fill="#ffb9b9"/>
    <path id="Path_150" data-name="Path 150" d="M454.994,440.842c-39.875,8.965-84.139,5.408-122.27-5.059,9.131-50.918,4.723-105.611-4.216-150.1-7-34.82,11.46-64.039,42.162-78.422a85.5,85.5,0,0,1,20.441-4.6c21.536-1.908,40.486,14.24,42.733,35.744Z" transform="translate(-246.265 -122.565)" fill="#4884c2"/>
    <path id="Path_151" data-name="Path 151" d="M112.327,192.569,84.5,189.2l8.433-43.848h19.394Z" transform="translate(-7.317 -12.584)" fill="#4884c2"/>
    <path id="Path_152" data-name="Path 152" d="M441.467,160.2l-5.038-2.239a8.612,8.612,0,0,0-11.822,5.7h0l-7.021,12.686L400.1,173.583l.611-26.855a37.539,37.539,0,0,1,45.321-30.806l.477.108c8.537,1.931,19.62,8.2,25.406,14.779l10.78,12.259a4.236,4.236,0,0,1-2.709,7.005L465.241,151.7Z" transform="translate(-252.592 -114.988)" fill="#2f2e41"/>
    <path id="Path_153" data-name="Path 153" d="M552.737,408.17l-18.884,16.564a1.37,1.37,0,1,1-1.807-2.06L550.93,406.11l-3.614-4.12-18.884,16.564a1.37,1.37,0,0,1-1.807-2.06l18.884-16.564-3.614-4.12-18.884,16.564a1.37,1.37,0,1,1-1.807-2.06l18.884-16.564-4.517-5.15-26.686,23.407a13.829,13.829,0,0,0-2.941,17.159l-80.569,70.67,7.228,8.24,80.516-70.624a13.392,13.392,0,0,0,17.124-.44l27.01-23.692Z" transform="translate(-254.781 -138.678)" fill="#e6e6e6"/>
    <path id="Path_154" data-name="Path 154" d="M459.8,450.333l1.952,36.428a9.353,9.353,0,0,1-10.186,9.815h0a9.353,9.353,0,0,1-8.47-8.5L439.562,447.8,411.735,353.36l.843-60.714,32.886,1.687Z" transform="translate(-253.6 -130.37)" fill="#ffb9b9"/>
    <path id="Path_155" data-name="Path 155" d="M447.834,297.853c-10.006-9.6-23.214-9.951-37.946-5.9V246.633a20.455,20.455,0,0,1,20.455-20.455h0a18.731,18.731,0,0,1,18.726,19.172Z" transform="translate(-253.44 -124.614)" fill="#4884c2"/>
  </g>
</svg>
