<svg xmlns="http://www.w3.org/2000/svg" width="661.93" height="646.154" viewBox="0 0 661.93 646.154">
  <g id="undraw_gone_shopping_vwmc" transform="translate(0 0)">
    <path id="Path_42" data-name="Path 42" d="M711.661,406.335l-6.99,16.309L661.8,479.492s-29.356,31.686-13.047,33.55,27.026-29.356,27.026-29.356l50.325-49.858,5.592-22.832Z" transform="translate(-269.035 -126.923)" fill="#9f616a"/>
    <path id="Path_43" data-name="Path 43" d="M733.095,340.168l-6.754,1.891s-30.329,80.57-27.534,90.355,15.377,21.9,20.969,20.969S733.095,340.168,733.095,340.168Z" transform="translate(-269.035 -126.923)" fill="#4884c2"/>
    <path id="Path_44" data-name="Path 44" d="M827.473,754.22s-2.966,14.863,5.949,8.915,13.563-17.453,13.563-17.453Z" transform="translate(-269.035 -126.923)" fill="#2f2e41"/>
    <path id="Path_45" data-name="Path 45" d="M721.912,418.916S627.321,752.549,660.87,762.334s82.942-.932,82.476-7.455-8.853-135.6-8.853-135.6,48.927,171.475,109.5,131.4,47.063-47.529,41.471-50.325S795.534,564.764,796,540.068s-.932-102.047-11.183-113.7Z" transform="translate(-269.035 -126.923)" fill="#2f2e41"/>
    <path id="Path_46" data-name="Path 46" d="M661.535,646.154H87.455v-2.182H661.93Z" fill="#3f3d56"/>
    <path id="Path_47" data-name="Path 47" d="M781.993,300.3a19.568,19.568,0,0,1-2.431-26.383c-.394.369-.779.753-1.148,1.161a19.571,19.571,0,1,0,29.033,26.251c.369-.408.712-.829,1.04-1.259A19.568,19.568,0,0,1,781.993,300.3Z" transform="translate(-269.035 -126.923)" fill="#2f2e41"/>
    <circle id="Ellipse_8" data-name="Ellipse 8" cx="40.306" cy="40.306" r="40.306" transform="translate(470.817 97.452)" fill="#2f2e41"/>
    <path id="Path_48" data-name="Path 48" d="M671.588,760.936s-10.717,10.717,0,10.717,20.969-6.99,20.969-6.99Z" transform="translate(-269.035 -126.923)" fill="#2f2e41"/>
    <path id="Path_49" data-name="Path 49" d="M754.53,289.844s6.99,28.89,1.864,34.482-16.309,9.785-16.309,9.785l1.864,52.188s21.435-7.455,22.366-8.387,20.037-31.22,20.037-31.22l18.639-17.707s-28.424-13.513-20.037-36.811S754.53,289.844,754.53,289.844Z" transform="translate(-269.035 -126.923)" fill="#9f616a"/>
    <circle id="Ellipse_9" data-name="Ellipse 9" cx="24.23" cy="24.23" r="24.23" transform="translate(474.936 169.441) rotate(-80.783)" fill="#9f616a"/>
    <path id="Path_50" data-name="Path 50" d="M784.818,426.372s10.717-35.414,15.843-40.073,17.707-48.461,17.707-48.461-7.921-10.717-14.445-10.717-12.581,2.33-20.037,9.319c-3.511,3.292-9.915,6.913-15.708,9.824a17.378,17.378,0,0,1-23.524-7.852c-1.158-2.461-1.54-4.82-.375-6.632,0,0-17.241,4.66-18.173,11.183s0,20.037-1.4,22.832-5.592,6.99-3.728,24.7-1.945,40.1-1.945,40.1C736.441,447.2,760.555,436.946,784.818,426.372Z" transform="translate(-269.035 -126.923)" fill="#4884c2"/>
    <ellipse id="Ellipse_10" data-name="Ellipse 10" cx="20.503" cy="13.979" rx="20.503" ry="13.979" transform="translate(482 113.761)" fill="#2f2e41"/>
    <circle id="Ellipse_11" data-name="Ellipse 11" cx="19.571" cy="19.571" r="19.571" transform="translate(517.879 87.666)" fill="#2f2e41"/>
    <path id="Path_51" data-name="Path 51" d="M820.464,248.139a19.568,19.568,0,0,1-19.5-17.937c-.045.536-.073,1.078-.073,1.628a19.571,19.571,0,1,0,39.141.017v-.017c0-.55-.028-1.093-.073-1.631A19.568,19.568,0,0,1,820.464,248.139Z" transform="translate(-269.035 -126.923)" fill="#2f2e41"/>
    <path id="Path_56" data-name="Path 56" d="M819.765,402.142l-2.33,26.094,4.66,78.283s10.717,39.607-5.592,38.675-10.251-41.471-10.251-41.471L798.8,412.859Z" transform="translate(-269.035 -126.923)" fill="#9f616a"/>
    <path id="Path_57" data-name="Path 57" d="M806.252,331.315l12.115,6.524s16.309,110.848,6.99,121.565S796.933,474.314,796,470.121s-4.194-89.413-4.194-89.413Z" transform="translate(-269.035 -126.923)" fill="#4884c2"/>
    <path id="Path_58" data-name="Path 58" d="M335,126.923H321.407a1.8,1.8,0,0,0-1.8,1.8v5.965a1.8,1.8,0,0,0,1.8,1.8h2.252v8.937h9.085v-8.937H335a1.8,1.8,0,0,0,1.8-1.8v-5.965a1.8,1.8,0,0,0-1.8-1.8Z" transform="translate(-269.035 -126.923)" fill="#e6e6e6"/>
    <path id="Path_59" data-name="Path 59" d="M348.607,181.511a69.863,69.863,0,0,1-12.154-41.421,1.473,1.473,0,0,0-1.15-1.47v-2.577H320.951v2.541h-.2a1.473,1.473,0,0,0-1.471,1.475q0,.054,0,.107,1.7,23.642-11.454,42.4a4.059,4.059,0,0,0-.734,2.459l1.569,48.543a4.2,4.2,0,0,0,4.166,4.056H345.3a4.2,4.2,0,0,0,4.169-4.127l.6-47.131a8.506,8.506,0,0,0-1.463-4.857Z" transform="translate(-269.035 -126.923)" fill="#e6e6e6"/>
    <path id="Path_60" data-name="Path 60" d="M343.469,197.635H315.213a2.9,2.9,0,0,0-2.867,3.342l4.27,27.753h24.518l5.186-27.66a2.9,2.9,0,0,0-2.851-3.436Z" transform="translate(-269.035 -126.923)" fill="#fff"/>
    <path id="Path_61" data-name="Path 61" d="M486.268,272.339H472.679a1.8,1.8,0,0,0-1.8,1.8v5.965a1.8,1.8,0,0,0,1.8,1.8h2.252v8.937h9.085v-8.937h2.252a1.8,1.8,0,0,0,1.8-1.8v-5.965A1.8,1.8,0,0,0,486.268,272.339Z" transform="translate(-269.035 -126.923)" fill="#e6e6e6"/>
    <path id="Path_62" data-name="Path 62" d="M499.879,326.927a69.863,69.863,0,0,1-12.154-41.421,1.473,1.473,0,0,0-1.15-1.47v-2.577H472.223V284h-.2a1.473,1.473,0,0,0-1.471,1.475q0,.054,0,.107,1.7,23.642-11.454,42.4a4.058,4.058,0,0,0-.735,2.459l1.569,48.543a4.2,4.2,0,0,0,4.166,4.056h32.461a4.2,4.2,0,0,0,4.169-4.127l.6-47.131a8.506,8.506,0,0,0-1.461-4.857Z" transform="translate(-269.035 -126.923)" fill="#e6e6e6"/>
    <path id="Path_63" data-name="Path 63" d="M494.74,343.051H466.485a2.9,2.9,0,0,0-2.867,3.342l4.27,27.753H492.4l5.186-27.66a2.9,2.9,0,0,0-2.851-3.435Z" transform="translate(-269.035 -126.923)" fill="#fff"/>
    <path id="Path_64" data-name="Path 64" d="M315.892,477.914h-6.446a.855.855,0,0,0-.855.855V481.6a.855.855,0,0,0,.855.855h1.068v4.239h4.31v-4.239h1.068a.855.855,0,0,0,.855-.855v-2.829a.855.855,0,0,0-.855-.855Z" transform="translate(-269.035 -126.923)" fill="#e6e6e6"/>
    <path id="Path_65" data-name="Path 65" d="M322.348,503.807a33.139,33.139,0,0,1-5.765-19.648.7.7,0,0,0-.546-.7v-1.223H309.23v1.206h-.094a.7.7,0,0,0-.7.7q0,.025,0,.051a30.244,30.244,0,0,1-5.433,20.113,1.925,1.925,0,0,0-.348,1.167L303.4,528.5a1.993,1.993,0,0,0,1.976,1.924h15.4a1.994,1.994,0,0,0,1.977-1.958l.287-22.356A4.035,4.035,0,0,0,322.348,503.807Z" transform="translate(-269.035 -126.923)" fill="#e6e6e6"/>
    <rect id="Rectangle_15" data-name="Rectangle 15" width="14.692" height="7.346" transform="translate(36.405 385.348)" fill="#fff"/>
    <path id="Path_66" data-name="Path 66" d="M345.9,477.914h-6.446a.855.855,0,0,0-.855.855V481.6a.855.855,0,0,0,.855.855h1.068v4.239h4.31v-4.239H345.9a.855.855,0,0,0,.855-.855v-2.829a.855.855,0,0,0-.854-.855Z" transform="translate(-269.035 -126.923)" fill="#e6e6e6"/>
    <path id="Path_67" data-name="Path 67" d="M352.354,503.807a33.139,33.139,0,0,1-5.765-19.648.7.7,0,0,0-.546-.7v-1.223h-6.808v1.206h-.094a.7.7,0,0,0-.7.7q0,.025,0,.051a30.243,30.243,0,0,1-5.433,20.113,1.925,1.925,0,0,0-.348,1.167l.744,23.026a1.993,1.993,0,0,0,1.976,1.924h15.4a1.994,1.994,0,0,0,1.977-1.958l.287-22.356a4.035,4.035,0,0,0-.694-2.3Z" transform="translate(-269.035 -126.923)" fill="#e6e6e6"/>
    <rect id="Rectangle_16" data-name="Rectangle 16" width="14.692" height="7.346" transform="translate(66.411 385.348)" fill="#fff"/>
    <path id="Path_68" data-name="Path 68" d="M375.9,477.914h-6.445a.855.855,0,0,0-.855.855V481.6a.855.855,0,0,0,.855.855h1.068v4.239h4.31v-4.239H375.9a.855.855,0,0,0,.855-.855v-2.829a.855.855,0,0,0-.855-.855Z" transform="translate(-269.035 -126.923)" fill="#e6e6e6"/>
    <path id="Path_69" data-name="Path 69" d="M382.36,503.807a33.139,33.139,0,0,1-5.765-19.648.7.7,0,0,0-.546-.7v-1.223h-6.808v1.206h-.094a.7.7,0,0,0-.7.7q0,.025,0,.051a30.244,30.244,0,0,1-5.433,20.113,1.925,1.925,0,0,0-.348,1.167l.744,23.026a1.993,1.993,0,0,0,1.976,1.924h15.4a1.994,1.994,0,0,0,1.977-1.958l.287-22.356a4.035,4.035,0,0,0-.694-2.3Z" transform="translate(-269.035 -126.923)" fill="#e6e6e6"/>
    <rect id="Rectangle_17" data-name="Rectangle 17" width="14.692" height="7.346" transform="translate(96.417 385.348)" fill="#fff"/>
    <path id="Path_70" data-name="Path 70" d="M462.661,421.658H449.072a1.8,1.8,0,0,0-1.8,1.8v5.965a1.8,1.8,0,0,0,1.8,1.8h2.252v8.937h9.085v-8.937h2.252a1.8,1.8,0,0,0,1.8-1.8V423.46a1.8,1.8,0,0,0-1.8-1.8Z" transform="translate(-269.035 -126.923)" fill="#e6e6e6"/>
    <path id="Path_71" data-name="Path 71" d="M476.271,476.246a69.863,69.863,0,0,1-12.154-41.421,1.473,1.473,0,0,0-1.15-1.47v-2.577H448.616v2.541h-.2a1.473,1.473,0,0,0-1.471,1.474q0,.054,0,.107,1.7,23.642-11.454,42.4a4.059,4.059,0,0,0-.734,2.459l1.569,48.543a4.2,4.2,0,0,0,4.166,4.056H472.96a4.2,4.2,0,0,0,4.169-4.127l.6-47.131A8.506,8.506,0,0,0,476.271,476.246Z" transform="translate(-269.035 -126.923)" fill="#e6e6e6"/>
    <path id="Path_72" data-name="Path 72" d="M471.133,492.37H442.878a2.9,2.9,0,0,0-2.867,3.342l4.27,27.753H468.8l5.186-27.66a2.9,2.9,0,0,0-2.851-3.436Z" transform="translate(-269.035 -126.923)" fill="#fff"/>
    <path id="Path_73" data-name="Path 73" d="M470.079,243.875h-81c5.663-30.619,4.36-67.592,0-107.354h81C465.835,176.283,464.567,213.256,470.079,243.875Z" transform="translate(-269.035 -126.923)" fill="#e6e6e6"/>
    <circle id="Ellipse_14" data-name="Ellipse 14" cx="19.519" cy="19.519" r="19.519" transform="translate(141.512 40.828)" fill="#fff"/>
    <path id="Path_74" data-name="Path 74" d="M395.908,386.363h-81c5.663-30.619,4.36-67.592,0-107.354h81C391.663,318.771,390.395,355.744,395.908,386.363Z" transform="translate(-269.035 -126.923)" fill="#e6e6e6"/>
    <circle id="Ellipse_15" data-name="Ellipse 15" cx="19.519" cy="19.519" r="19.519" transform="translate(67.34 183.316)" fill="#fff"/>
    <path id="Path_75" data-name="Path 75" d="M515.949,250.707h-81c5.663-30.619,4.36-67.592,0-107.354h81C511.7,183.115,510.436,220.088,515.949,250.707Z" transform="translate(-269.035 -126.923)" fill="#e6e6e6"/>
    <circle id="Ellipse_16" data-name="Ellipse 16" cx="19.519" cy="19.519" r="19.519" transform="translate(187.381 47.66)" fill="#fff"/>
    <path id="Path_76" data-name="Path 76" d="M515.949,245.827h-81c5.663-30.619,4.36-67.592,0-107.354h81C511.7,178.235,510.436,215.208,515.949,245.827Z" transform="translate(-269.035 -126.923)" fill="#e6e6e6"/>
    <circle id="Ellipse_17" data-name="Ellipse 17" cx="19.519" cy="19.519" r="19.519" transform="translate(187.381 42.78)" fill="#fff"/>
    <path id="Path_77" data-name="Path 77" d="M515.949,250.707h-81c5.663-30.619,4.36-67.592,0-107.354h81C511.7,183.115,510.436,220.088,515.949,250.707Z" transform="translate(-269.035 -126.923)" fill="#e6e6e6"/>
    <circle id="Ellipse_18" data-name="Ellipse 18" cx="19.519" cy="19.519" r="19.519" transform="translate(187.381 47.66)" fill="#fff"/>
    <rect id="Rectangle_18" data-name="Rectangle 18" width="265.457" height="29.278" transform="translate(0 111.096)" fill="#e6e6e6"/>
    <rect id="Rectangle_19" data-name="Rectangle 19" width="265.457" height="29.278" transform="translate(0 256.512)" fill="#e6e6e6"/>
    <rect id="Rectangle_20" data-name="Rectangle 20" width="265.457" height="29.278" transform="translate(0 401.928)" fill="#e6e6e6"/>
  </g>
</svg>
