<svg id="undraw_good_doggy_4wfq" xmlns="http://www.w3.org/2000/svg" xmlns:xlink="http://www.w3.org/1999/xlink" width="778.51" height="554.739" viewBox="0 0 778.51 554.739">
  <defs>
    <linearGradient id="linear-gradient" x1="-0.013" y1="0.424" x2="0.96" y2="0.424" gradientUnits="objectBoundingBox">
      <stop offset="0" stop-color="gray" stop-opacity="0.251"/>
      <stop offset="0.54" stop-color="gray" stop-opacity="0.122"/>
      <stop offset="1" stop-color="gray" stop-opacity="0.102"/>
    </linearGradient>
  </defs>
  <path id="Path_291" data-name="Path 291" d="M846.056,682.578c-5.8,2.992-11.886,5.576-17.877,8.111-22.165,9.35-44.673,18.8-68.476,22.01-44.73,5.992-90.878-10.312-134.817-.139-36.806,8.494-67.245,34.523-103.2,46.115-16.72,5.388-34.116,7.5-51.667,7.5h-2.266c-2.16,0-4.312-.081-6.473-.163-17.8-.669-35.665-3.261-53.11-6.66-55.083-10.6-111.143-30.024-153.256-65.786C377.531,671.157,630.119,636.773,846.056,682.578Z" transform="translate(-146.97 -211.437)" fill="#252223" opacity="0.1"/>
  <path id="Path_292" data-name="Path 292" d="M741.826,202.983V150.811H710.849v52.172H674.165v-80.7h-26.9V61.955h-22.01V0H579.6V61.955h-22.01v60.324H531.506V49.727H516.833V13.043h-8.967V49.727H455.693V281.242H415.749V256.786H391.293v24.456H351.348V202.983H279.611V150.811H248.634v52.172H247V303.252H214.4V244.558H175.267v58.694H142.659V122.279H117.388V61.955H24.456v60.324H0V441.02H778.51V202.983Z" fill="#4884c2" opacity="0.3"/>
  <rect id="Rectangle_51" data-name="Rectangle 51" width="33" height="20" transform="translate(16.071 141.111)" fill="#fff" opacity="0.4"/>
  <rect id="Rectangle_52" data-name="Rectangle 52" width="34" height="20" transform="translate(126.071 161.111) rotate(180)" fill="#fff" opacity="0.4"/>
  <rect id="Rectangle_53" data-name="Rectangle 53" width="33" height="20" transform="translate(16.071 179.111)" fill="#fff" opacity="0.4"/>
  <rect id="Rectangle_54" data-name="Rectangle 54" width="34" height="20" transform="translate(126.071 199.111) rotate(180)" fill="#fff" opacity="0.4"/>
  <rect id="Rectangle_55" data-name="Rectangle 55" width="33" height="20" transform="translate(16.071 218.111)" fill="#fff" opacity="0.4"/>
  <rect id="Rectangle_56" data-name="Rectangle 56" width="34" height="20" transform="translate(126.071 238.111) rotate(180)" fill="#fff" opacity="0.4"/>
  <rect id="Rectangle_57" data-name="Rectangle 57" width="33" height="19" transform="translate(16.071 256.111)" fill="#fff" opacity="0.4"/>
  <rect id="Rectangle_58" data-name="Rectangle 58" width="34" height="19" transform="translate(126.071 275.111) rotate(180)" fill="#fff" opacity="0.4"/>
  <rect id="Rectangle_59" data-name="Rectangle 59" width="33" height="19" transform="translate(16.071 294.111)" fill="#fff" opacity="0.4"/>
  <rect id="Rectangle_60" data-name="Rectangle 60" width="34" height="19" transform="translate(126.071 313.111) rotate(180)" fill="#fff" opacity="0.4"/>
  <rect id="Rectangle_61" data-name="Rectangle 61" width="33" height="20" transform="translate(16.071 332.111)" fill="#fff" opacity="0.4"/>
  <rect id="Rectangle_62" data-name="Rectangle 62" width="34" height="20" transform="translate(126.071 352.111) rotate(180)" fill="#fff" opacity="0.4"/>
  <rect id="Rectangle_63" data-name="Rectangle 63" width="33" height="19" transform="translate(16.071 371.111)" fill="#fff" opacity="0.4"/>
  <rect id="Rectangle_64" data-name="Rectangle 64" width="34" height="19" transform="translate(126.071 390.111) rotate(180)" fill="#fff" opacity="0.4"/>
  <rect id="Rectangle_65" data-name="Rectangle 65" width="80" height="9" transform="translate(154.071 323.111)" fill="#fff" opacity="0.4"/>
  <rect id="Rectangle_66" data-name="Rectangle 66" width="80" height="9" transform="translate(154.071 338.111)" fill="#fff" opacity="0.4"/>
  <rect id="Rectangle_67" data-name="Rectangle 67" width="80" height="10" transform="translate(154.071 352.111)" fill="#fff" opacity="0.4"/>
  <rect id="Rectangle_68" data-name="Rectangle 68" width="80" height="10" transform="translate(364.071 328.111)" fill="#fff" opacity="0.4"/>
  <rect id="Rectangle_69" data-name="Rectangle 69" width="80" height="9" transform="translate(364.071 343.111)" fill="#fff" opacity="0.4"/>
  <rect id="Rectangle_70" data-name="Rectangle 70" width="80" height="11" transform="translate(364.071 356.111)" fill="#fff" opacity="0.4"/>
  <rect id="Rectangle_71" data-name="Rectangle 71" width="80" height="9" transform="translate(154.071 367.111)" fill="#fff" opacity="0.4"/>
  <rect id="Rectangle_72" data-name="Rectangle 72" width="80" height="9" transform="translate(154.071 382.111)" fill="#fff" opacity="0.4"/>
  <rect id="Rectangle_73" data-name="Rectangle 73" width="80" height="10" transform="translate(154.071 396.111)" fill="#fff" opacity="0.4"/>
  <rect id="Rectangle_74" data-name="Rectangle 74" width="22" height="28" transform="translate(264.071 222.111)" fill="#fff" opacity="0.4"/>
  <rect id="Rectangle_75" data-name="Rectangle 75" width="22" height="28" transform="translate(334.071 250.111) rotate(180)" fill="#fff" opacity="0.4"/>
  <rect id="Rectangle_76" data-name="Rectangle 76" width="22" height="28" transform="translate(264.071 267.111)" fill="#fff" opacity="0.4"/>
  <rect id="Rectangle_77" data-name="Rectangle 77" width="22" height="28" transform="translate(334.071 295.111) rotate(180)" fill="#fff" opacity="0.4"/>
  <rect id="Rectangle_78" data-name="Rectangle 78" width="22" height="29" transform="translate(264.071 313.111)" fill="#fff" opacity="0.4"/>
  <rect id="Rectangle_79" data-name="Rectangle 79" width="22" height="29" transform="translate(334.071 342.111) rotate(180)" fill="#fff" opacity="0.4"/>
  <rect id="Rectangle_80" data-name="Rectangle 80" width="22" height="28" transform="translate(264.071 359.111)" fill="#fff" opacity="0.4"/>
  <rect id="Rectangle_81" data-name="Rectangle 81" width="22" height="28" transform="translate(334.071 387.111) rotate(180)" fill="#fff" opacity="0.4"/>
  <rect id="Rectangle_82" data-name="Rectangle 82" width="30" height="38" transform="translate(455.071 68.111)" fill="#fff" opacity="0.4"/>
  <rect id="Rectangle_83" data-name="Rectangle 83" width="30" height="38" transform="translate(455.071 122.111)" fill="#fff" opacity="0.4"/>
  <rect id="Rectangle_84" data-name="Rectangle 84" width="30" height="37" transform="translate(455.071 176.111)" fill="#fff" opacity="0.4"/>
  <rect id="Rectangle_85" data-name="Rectangle 85" width="30" height="37" transform="translate(455.071 230.111)" fill="#fff" opacity="0.4"/>
  <rect id="Rectangle_86" data-name="Rectangle 86" width="30" height="37" transform="translate(455.071 284.111)" fill="#fff" opacity="0.4"/>
  <rect id="Rectangle_87" data-name="Rectangle 87" width="30" height="37" transform="translate(455.071 338.111)" fill="#fff" opacity="0.4"/>
  <rect id="Rectangle_88" data-name="Rectangle 88" width="109.236" height="31.793" transform="translate(548.218 145.104)" fill="#fff" opacity="0.4"/>
  <rect id="Rectangle_89" data-name="Rectangle 89" width="109" height="32" transform="translate(549.071 213.111)" fill="#fff" opacity="0.4"/>
  <rect id="Rectangle_90" data-name="Rectangle 90" width="109.236" height="31.793" transform="translate(549.033 282.057)" fill="#fff" opacity="0.4"/>
  <rect id="Rectangle_91" data-name="Rectangle 91" width="108" height="33" transform="translate(550.071 350.111)" fill="#fff" opacity="0.4"/>
  <rect id="Rectangle_92" data-name="Rectangle 92" width="15" height="31" transform="translate(24.071 79.111)" fill="#fff" opacity="0.4"/>
  <rect id="Rectangle_93" data-name="Rectangle 93" width="36" height="47" transform="translate(742.071 222.111)" fill="#fff" opacity="0.4"/>
  <rect id="Rectangle_94" data-name="Rectangle 94" width="36" height="48" transform="translate(742.071 290.111)" fill="#fff" opacity="0.4"/>
  <rect id="Rectangle_95" data-name="Rectangle 95" width="36" height="47" transform="translate(742.071 359.111)" fill="#fff" opacity="0.4"/>
  <path id="Path_293" data-name="Path 293" d="M168.23,588.05s-64.18,38.722,54.129,98.337c0,0,26.086-48.39-2.755-87.845A38.852,38.852,0,0,0,169.192,587.5Z" transform="translate(-127.739 -197.124)" fill="#4884c2"/>
  <path id="Path_294" data-name="Path 294" d="M173.08,588.3s54.92,42.023,53.387,99.152" transform="translate(-131.848 -198.189)" fill="none" stroke="#535461" stroke-miterlimit="10" stroke-width="1"/>
  <path id="Path_295" data-name="Path 295" d="M240.435,663.211s-20.111-68.281,3.774-118.537a107.876,107.876,0,0,0,8.714-67.661,180.9,180.9,0,0,0-9.579-31.793" transform="translate(-142.832 -171.747)" fill="none" stroke="#535461" stroke-miterlimit="10" stroke-width="2"/>
  <path id="Path_296" data-name="Path 296" d="M257.13,402.795c0,8.364-15.146,32.608-15.146,32.608s-15.154-24.268-15.154-32.608a15.154,15.154,0,1,1,30.3,0Z" transform="translate(-141.78 -161.041)" fill="#4884c2"/>
  <path id="Path_297" data-name="Path 297" d="M287.856,457.867c-4.549,7.027-30.456,19.157-30.456,19.157s.465-28.605,5.013-35.624a15.154,15.154,0,1,1,25.443,16.468Z" transform="translate(-147.43 -169.762)" fill="#4884c2"/>
  <path id="Path_298" data-name="Path 298" d="M285.258,553.836c-7.467,3.766-35.958,1.158-35.958,1.158s14.845-24.456,22.32-28.222a15.154,15.154,0,1,1,13.639,27.065Z" transform="translate(-145.933 -186.518)" fill="#4884c2"/>
  <path id="Path_299" data-name="Path 299" d="M267.851,627.432c-6.725,4.973-35.241,7.223-35.241,7.223s10.492-26.616,17.225-31.589a15.153,15.153,0,1,1,18.018,24.369Z" transform="translate(-142.849 -200.369)" fill="#4884c2"/>
  <path id="Path_300" data-name="Path 300" d="M217.329,482.762c6,5.829,33.969,11.869,33.969,11.869s-6.848-27.774-12.856-33.6a15.15,15.15,0,1,0-21.113,21.733Z" transform="translate(-139.176 -173.877)" fill="#4884c2"/>
  <path id="Path_301" data-name="Path 301" d="M197.021,568.127c7.467,3.774,35.958,1.166,35.958,1.166s-14.845-24.456-22.312-28.222a15.153,15.153,0,1,0-13.648,27.059Z" transform="translate(-134.732 -189.16)" fill="#4884c2"/>
  <path id="Path_302" data-name="Path 302" d="M190.066,654.592c6.725,4.973,35.249,7.223,35.249,7.223s-10.5-26.616-17.233-31.589a15.153,15.153,0,1,0-18.017,24.369Z" transform="translate(-133.851 -205.388)" fill="#4884c2"/>
  <path id="Path_303" data-name="Path 303" d="M257.13,402.795c0,8.364-15.146,32.608-15.146,32.608s-15.154-24.268-15.154-32.608a15.154,15.154,0,1,1,30.3,0Z" transform="translate(-141.78 -161.041)" opacity="0.25"/>
  <path id="Path_304" data-name="Path 304" d="M287.856,457.867c-4.549,7.027-30.456,19.157-30.456,19.157s.465-28.605,5.013-35.624a15.154,15.154,0,1,1,25.443,16.468Z" transform="translate(-147.43 -169.762)" opacity="0.25"/>
  <path id="Path_305" data-name="Path 305" d="M285.258,553.836c-7.467,3.766-35.958,1.158-35.958,1.158s14.845-24.456,22.32-28.222a15.154,15.154,0,1,1,13.639,27.065Z" transform="translate(-145.933 -186.518)" opacity="0.25"/>
  <path id="Path_306" data-name="Path 306" d="M267.851,627.432c-6.725,4.973-35.241,7.223-35.241,7.223s10.492-26.616,17.225-31.589a15.153,15.153,0,1,1,18.018,24.369Z" transform="translate(-142.849 -200.369)" opacity="0.25"/>
  <path id="Path_307" data-name="Path 307" d="M217.329,482.762c6,5.829,33.969,11.869,33.969,11.869s-6.848-27.774-12.856-33.6a15.15,15.15,0,1,0-21.113,21.733Z" transform="translate(-139.176 -173.877)" opacity="0.25"/>
  <path id="Path_308" data-name="Path 308" d="M197.021,568.127c7.467,3.774,35.958,1.166,35.958,1.166s-14.845-24.456-22.312-28.222a15.153,15.153,0,1,0-13.648,27.059Z" transform="translate(-134.732 -189.16)" opacity="0.25"/>
  <path id="Path_309" data-name="Path 309" d="M190.066,654.592c6.725,4.973,35.249,7.223,35.249,7.223s-10.5-26.616-17.233-31.589a15.153,15.153,0,1,0-18.017,24.369Z" transform="translate(-133.851 -205.388)" opacity="0.25"/>
  <path id="Path_310" data-name="Path 310" d="M1010.485,641.581s-20.111-68.281,3.774-118.537a107.878,107.878,0,0,0,8.723-67.661,182.293,182.293,0,0,0-9.578-31.793" transform="translate(-285.142 -167.75)" fill="none" stroke="#535461" stroke-miterlimit="10" stroke-width="2"/>
  <path id="Path_311" data-name="Path 311" d="M1027.219,381.244c0,8.364-15.154,32.608-15.154,32.608s-15.155-24.268-15.155-32.608a15.155,15.155,0,0,1,30.309,0Z" transform="translate(-284.097 -157.123)" fill="#4884c2"/>
  <path id="Path_312" data-name="Path 312" d="M1057.906,436.239c-4.549,7.027-30.456,19.157-30.456,19.157s.473-28.605,5.022-35.624a15.15,15.15,0,1,1,25.434,16.467Z" transform="translate(-289.741 -165.766)" fill="#4884c2"/>
  <path id="Path_313" data-name="Path 313" d="M1055.316,532.206c-7.475,3.766-35.966,1.158-35.966,1.158s14.853-24.456,22.32-28.222a15.155,15.155,0,1,1,13.646,27.064Z" transform="translate(-288.244 -182.52)" fill="#4884c2"/>
  <path id="Path_314" data-name="Path 314" d="M1037.909,605.8c-6.734,4.973-35.249,7.223-35.249,7.223s10.5-26.616,17.225-31.589a15.154,15.154,0,1,1,18.024,24.366Z" transform="translate(-285.159 -196.371)" fill="#4884c2"/>
  <path id="Path_315" data-name="Path 315" d="M987.379,461.1c6.008,5.829,33.969,11.869,33.969,11.869s-6.848-27.774-12.848-33.6A15.154,15.154,0,1,0,987.378,461.1Z" transform="translate(-281.486 -169.873)" fill="#4884c2"/>
  <path id="Path_316" data-name="Path 316" d="M967.11,546.5c7.475,3.774,35.966,1.166,35.966,1.166s-14.845-24.456-22.32-28.222A15.153,15.153,0,1,0,967.109,546.5Z" transform="translate(-277.049 -185.163)" fill="#4884c2"/>
  <path id="Path_317" data-name="Path 317" d="M960.117,632.962c6.733,4.973,35.249,7.223,35.249,7.223s-10.5-26.608-17.225-31.589a15.154,15.154,0,1,0-18.024,24.366Z" transform="translate(-276.162 -201.391)" fill="#4884c2"/>
  <path id="Path_318" data-name="Path 318" d="M900.035,656.3s-10.809-36.684,2.03-63.7a58.018,58.018,0,0,0,4.687-36.358,97.615,97.615,0,0,0-5.152-17.07" transform="translate(-265.407 -189.11)" fill="none" stroke="#535461" stroke-miterlimit="10" stroke-width="2"/>
  <path id="Path_319" data-name="Path 319" d="M909.024,516.382c0,4.5-8.152,17.543-8.152,17.543s-8.152-13.043-8.152-17.543a8.152,8.152,0,1,1,16.3,0Z" transform="translate(-264.842 -183.392)" fill="#4884c2"/>
  <path id="Path_320" data-name="Path 320" d="M925.519,546.009c-2.446,3.774-16.369,10.3-16.369,10.3s.253-15.375,2.7-19.149a8.152,8.152,0,0,1,13.671,8.853Z" transform="translate(-267.878 -188.106)" fill="#4884c2"/>
  <path id="Path_321" data-name="Path 321" d="M924.128,597.539c-4.019,2.022-19.328.62-19.328.62s7.981-13.141,11.992-15.162a8.152,8.152,0,0,1,7.337,14.543Z" transform="translate(-267.074 -197.075)" fill="#4884c2"/>
  <path id="Path_322" data-name="Path 322" d="M914.767,637c-3.611,2.674-18.937,3.88-18.937,3.88s5.641-14.3,9.261-16.972A8.152,8.152,0,1,1,914.767,637Z" transform="translate(-265.417 -204.424)" fill="#4884c2"/>
  <path id="Path_323" data-name="Path 323" d="M887.556,559.257c3.261,3.13,18.252,6.375,18.252,6.375s-3.677-14.926-6.9-18.057a8.152,8.152,0,1,0-11.347,11.682Z" transform="translate(-263.379 -190.187)" fill="#4884c2"/>
  <path id="Path_324" data-name="Path 324" d="M876.772,605.229c4.019,2.022,19.328.628,19.328.628s-7.981-13.141-12-15.171a8.152,8.152,0,0,0-7.337,14.543Z" transform="translate(-261.122 -198.496)" fill="#4884c2"/>
  <path id="Path_325" data-name="Path 325" d="M873.028,651.71c3.611,2.674,18.937,3.88,18.937,3.88s-5.666-14.307-9.252-16.981a8.152,8.152,0,0,0-9.684,13.1Z" transform="translate(-260.639 -207.226)" fill="#4884c2"/>
  <path id="Path_326" data-name="Path 326" d="M374.17,155.649h-5.608a3.929,3.929,0,1,0,0-7.85H323.13a3.929,3.929,0,1,0,0,7.85h5.608a3.929,3.929,0,0,0,0,7.858h-7.85a3.929,3.929,0,1,0,0,7.85h45.431a3.929,3.929,0,1,0,0-7.85h7.85a3.929,3.929,0,0,0,0-7.858Z" transform="translate(-158.404 -116.781)" fill="#252223" opacity="0.1"/>
  <path id="Path_327" data-name="Path 327" d="M620.17,276.649h-5.609a3.929,3.929,0,1,0,0-7.85H569.13a3.929,3.929,0,1,0,0,7.85h5.609a3.929,3.929,0,1,0,0,7.858h-7.85a3.929,3.929,0,1,0,0,7.85h45.431a3.929,3.929,0,1,0,0-7.85h7.85a3.929,3.929,0,0,0,0-7.858Z" transform="translate(-203.867 -139.143)" fill="#252223" opacity="0.1"/>
  <path id="Path_328" data-name="Path 328" d="M1039.17,118.649h-5.609a3.929,3.929,0,1,0,0-7.85H988.13a3.929,3.929,0,1,0,0,7.85h5.609a3.929,3.929,0,1,0,0,7.858h-7.85a3.929,3.929,0,1,0,0,7.85h45.431a3.929,3.929,0,1,0,0-7.85h7.85a3.929,3.929,0,0,0,0-7.858Z" transform="translate(-281.301 -109.943)" fill="#252223" opacity="0.1"/>
  <path id="Path_329" data-name="Path 329" d="M827.723,638.036a1.223,1.223,0,1,0-1.223-1.223A1.223,1.223,0,0,0,827.723,638.036Z" transform="translate(-252.604 -206.929)" fill="#535461"/>
  <g id="Group_40" data-name="Group 40" transform="translate(213.657 108.6)" opacity="0.5">
    <path id="Path_330" data-name="Path 330" d="M596.492,495.509l-11.845-55.759h1.215l-.187-.946h.342l-6.13-30.162s.31-31.507,1.8-43.694c1.092-8.894,2.821-20.225,1.557-29.763a8.962,8.962,0,0,0,.481-.815,8.6,8.6,0,0,0,.929-3.261,13.443,13.443,0,0,0-1.027-7.867l12.318-7.7c.277,0,.563.057.815.073a2.608,2.608,0,0,0-.2-.53,27.39,27.39,0,0,0,27.113-17.812,18.162,18.162,0,0,0,3.97,4.272c3.318,2.486,8.543,3.041,11.307-.049a9.512,9.512,0,0,0,1.981-4.263c.163-.7.277-1.418.375-2.128,1.565-8.331-1.867-16.923-6.293-24.228-5.535-9.122-12.88-17.38-22.214-22.565s-20.787-7.043-30.888-3.587-20.274,12.839-21.2,23.478c-.456,5.437.2,7.956-.929,13.3-.562,2.658.652,7.834.636,10.769a13.3,13.3,0,0,0-.2,1.63c-.163,3.261,1.133,6.342,2.079,9.473-13.32.668-48.349,3.367-58.466,13.654-12.587,12.79-43.45,17.364-43.45,17.364l-51.4,10.345-17.934,7.614.2.815-.359.155s.636,2.372,1.549,5.5a23.29,23.29,0,0,0-7.41,13.858c-.995,5.535-.465,12.66,3.041,21.749,0,0,17.7,32.5,18.921,45.61l22.336,44.583c-1.916,3.823-21.056,42.463-24.35,64.091a44.165,44.165,0,0,0-.53,4.7s-.122,1.141-.424,3.041c-1.312,8.013-5.462,27.717-15.595,36.928h0l.13.114h0l-.293.285.228.2c-3.041,5.812,1.353,13.687,1.353,13.687l5,22.32,5.592.9,5.886-2.4,3.261,6.269s25.393,4.076,32.608,3.84-6.114-12.464-10.785-16.092c-2.592-2.005-4.622-10.247-5.91-17.184a10.81,10.81,0,0,0,1.818-1.883s-3.106-16.3,6.244-38.673c3.986-9.521,8.274-20.47,11.9-29.9,1.948,12.668,3.994,25.719,5.5,34.629,2.193,12.9,1.908,20.779,1.231,25.222a14.985,14.985,0,0,1-1.084,4.508,1.153,1.153,0,0,1,.082.13,2.342,2.342,0,0,1-.155.334c.049.082.1.155.139.236-5.1,5.837.212,15.358.212,15.358l5,22.255,5.592.9,5.886-2.4,3.261,6.269s25.393,4.076,32.608,3.84-6.114-12.464-10.793-16.092c-3.644-2.829-6.171-18.016-7.108-24.529.677-.065,1.052-.114,1.052-.114l-.073-.448h.155l-3.2-18.684c-5.462-4.7-4.7-71.525-4.7-71.525s-2.845,6.986-2.935,6.424c.277-1.125,1.3-4.3,3.685-11.078a66.659,66.659,0,0,0,3.09-11.967c2.584-15.9-2.234-25.63-2.234-25.63.318-3.2-3.049-15.611-7.027-28.833l12.5-24.358a9.962,9.962,0,0,0,5.445.448l9.464-17.119S520.622,391,526.222,391.906c5.209.815,21.529-2.755,27.839-9.554a12.916,12.916,0,0,0,1.239-1.59c5.079-7.785,2.992,40.646,2.992,40.646l-2.715,16.777-.147.929,8.095.163L582.6,504.7s1.2,22.19,22.874,27.122S596.492,495.509,596.492,495.509ZM466.2,419.891c-1.174-3.619-2.2-6.742-2.975-9.081l4.035-3.147s.505.424,1.361,1.1Z" transform="translate(-384.594 -242.969)" fill="url(#linear-gradient)"/>
  </g>
  <path id="Path_331" data-name="Path 331" d="M500.769,677.629s2.763,23.282,7.337,26.82,17.551,15.415,10.516,15.676-31.792-3.734-31.792-3.734l-3.2-6.114-5.706,2.331-5.454-.88-4.891-21.758s-6.864-12.293,2.8-17.258S500.769,677.629,500.769,677.629Z" transform="translate(-185.835 -213.532)" fill="#3a384d"/>
  <path id="Path_332" data-name="Path 332" d="M470.965,438.852s19.2,57.137,18.472,64.474c0,0,7.035,14.184-.726,36.235s-.815,5-.815,5-.734,65.126,4.581,69.715l3.114,18.211s-29.934,3.554-34.972-5.649c0,0,3.9-6.823.082-29.347s-11.168-72.153-11.168-72.153L429.61,412.13Z" transform="translate(-179.256 -165.632)" opacity="0.1"/>
  <path id="Path_333" data-name="Path 333" d="M471.055,438.292s19.2,57.169,18.472,64.506c0,0,7.035,14.184-.726,36.235s-.815,5-.815,5-.734,65.134,4.581,69.715l3.114,18.22s-29.934,3.546-34.972-5.657c0,0,3.9-6.823.082-29.347s-11.176-72.177-11.176-72.177L429.7,411.57Z" transform="translate(-179.273 -165.528)" fill="#bec7de"/>
  <path id="Path_334" data-name="Path 334" d="M434.744,414.554l19.524,110.98s7.337,49.653,11.176,72.177-.082,29.347-.082,29.347c1.467,2.682,5.03,4.272,9.35,5.193-6.065-.709-11.535-2.364-13.443-5.853,0,0,3.9-6.823.09-29.347s-11.176-72.177-11.176-72.177L430.26,411.66Z" transform="translate(-179.376 -165.545)" opacity="0.1"/>
  <path id="Path_335" data-name="Path 335" d="M427.328,668.619s2.755,23.282,7.337,26.82,17.551,15.415,10.516,15.676-31.793-3.734-31.793-3.734l-3.2-6.114-5.706,2.34-5.454-.889-4.891-21.758s-6.864-12.293,2.788-17.258S427.328,668.619,427.328,668.619Z" transform="translate(-172.262 -211.866)" fill="#3a384d"/>
  <path id="Path_336" data-name="Path 336" d="M470.965,438.852s19.2,57.137,18.472,64.474c0,0,7.035,14.184-.726,36.235s-.815,5-.815,5-.734,65.126,4.581,69.715l3.114,18.211s-29.934,3.554-34.972-5.649c0,0,3.9-6.823.082-29.347s-11.168-72.153-11.168-72.153L429.61,412.13Z" transform="translate(-179.256 -165.632)" opacity="0.1"/>
  <path id="Path_337" data-name="Path 337" d="M402.7,381.9s-21.366,8.2-9.872,38.021c0,0,17.258,31.678,18.456,44.461L433.133,508s-23.3,46.107-24.333,66.911c0,0-3.114,27.929-15.684,39.406,0,0,27.04,23.013,37.108,9.725,0,0-3.024-15.864,6.1-37.695s19.94-51.276,19.94-51.276,26.16-17.682,8.731-54.055l-19.565-80.989-.318-18.228L430.1,376.58Z" transform="translate(-171.831 -159.062)" opacity="0.1"/>
  <path id="Path_338" data-name="Path 338" d="M401.5,382.268s-21.366,8.2-9.872,38.021c0,0,17.249,31.687,18.448,44.469l21.847,43.613s-23.3,46.1-24.317,66.911c0,0-3.114,27.92-15.692,39.406,0,0,27.04,23.013,37.116,9.725,0,0-3.033-15.872,6.089-37.695s19.94-51.308,19.94-51.308,26.168-17.682,8.739-54.055l-19.565-80.989-.318-18.228-15-5.217Z" transform="translate(-171.609 -159.125)" opacity="0.1"/>
  <path id="Path_339" data-name="Path 339" d="M401.592,381.721s-21.366,8.209-9.872,38.021c0,0,12.676,23.274,17.046,37.972a113.309,113.309,0,0,0,7.337,18.334l15.913,31.793s-23.3,46.107-24.325,66.911c0,0-3.114,27.929-15.692,39.406,0,0,27.04,23.013,37.116,9.725,0,0-3.033-15.864,6.089-37.695s19.94-51.308,19.94-51.308,26.168-17.682,8.739-54.055l-19.565-80.99L444,381.607l-15-5.217Z" transform="translate(-171.626 -159.027)" fill="#bec7de"/>
  <path id="Path_340" data-name="Path 340" d="M401.592,381.716l27.431-5.356,3.579,1.247-25.556,4.981s-21.366,8.2-9.872,38.021c0,0,12.668,23.274,17.046,37.972a113.312,113.312,0,0,0,7.337,18.334l15.921,31.793S414.146,554.8,413.143,575.6c0,0-3.122,27.929-15.693,39.406,0,0,11.649,9.913,22.5,12.97C407.983,627.733,392,614.119,392,614.119c12.578-11.478,15.692-39.406,15.692-39.406,1.027-20.8,24.325-66.911,24.325-66.911L416.1,476.009a113.311,113.311,0,0,1-7.337-18.334C404.4,443,391.72,419.7,391.72,419.7,380.226,389.925,401.592,381.716,401.592,381.716Z" transform="translate(-171.626 -159.021)" opacity="0.1"/>
  <path id="Path_341" data-name="Path 341" d="M506.238,451.344l-17.013,33.138s4.989,44.151-4.541,45.406-5.706-48.455-5.706-48.455l9.171-42.333Z" transform="translate(-188.24 -170.616)" fill="#be7c5e"/>
  <path id="Path_342" data-name="Path 342" d="M621.72,479.754l12.163,57.422s29.852,40.246,8.723,35.436-22.3-26.469-22.3-26.469L599.93,476.2Z" transform="translate(-210.732 -177.472)" fill="#be7c5e"/>
  <path id="Path_343" data-name="Path 343" d="M632.277,331.042,602.2,349.954,591.46,321.186s24.9,1.7,27.8-7.622S632.277,331.042,632.277,331.042Z" transform="translate(-209.167 -147.052)" fill="#be7c5e"/>
  <path id="Path_344" data-name="Path 344" d="M490.215,238.5l-1.924-8.242L458.643,232,446.7,279.938l22.247.8L481.4,261.311l6.791-18.945Z" transform="translate(-82.553 -42.554)" fill="#be7c5e"/>
  <path id="Path_345" data-name="Path 345" d="M570.4,336.378l2.446-13.818s-54.871.685-67.139,13.149-42.349,16.932-42.349,16.932l-50.1,10.076-17.518,7.426s4.94,18.5,7.06,19.785,25.776-18.211,25.776-18.211l8.967,2.38-29.2,30.7,53.892,52.988.995-29.2,6.9-5.4s16.41,13.858,23.73,11.755l9.228-16.687s19.076-11.364,24.529-10.483c5.079.815,20.991-2.682,27.138-9.31a11.623,11.623,0,0,0,1.174-1.492c4.956-7.589,2.918,39.618,2.918,39.618l-2.788,17.258,29.73.611-5.967-29.4s.3-30.708,1.753-42.594,4.076-28.23-1.247-38.42l-10.467,9.962-18.211,29.233,6.913-25.45Z" transform="translate(-172.997 -149.079)" opacity="0.1"/>
  <path id="Path_346" data-name="Path 346" d="M570.606,335.176,568.006,321s-49.8,1.043-62.069,13.508-42.39,16.923-42.39,16.923l-50.1,10.084L396,368.95s4.94,18.5,7.06,19.777,25.785-18.2,25.785-18.2l8.967,2.38-29.2,30.7L462.5,456.591l.995-29.208,6.929-5.4s16.41,13.858,23.73,11.763l9.228-16.687s18.969-11.364,24.456-10.459c5.079.815,20.991-2.69,27.138-9.318a11.626,11.626,0,0,0,1.174-1.492c4.956-7.589,2.918,39.627,2.918,39.627l-2.788,17.258,29.73.611-5.967-29.4s.3-30.716,1.753-42.594,4.076-28.238-1.247-38.42l-10.467,9.921L551.849,382l6.913-25.45Z" transform="translate(-173.045 -148.79)" fill="#7faff2"/>
  <path id="Path_347" data-name="Path 347" d="M525.707,360.53s-29.681,25.035-32.787,38.518" transform="translate(-190.956 -156.096)" opacity="0.1"/>
  <path id="Path_348" data-name="Path 348" d="M566.791,387s-22.825,17.282-26.9,28.271" transform="translate(-199.636 -160.988)" opacity="0.1"/>
  <path id="Path_349" data-name="Path 349" d="M490.538,418.92s-2.144,10.369-2.568,15.9" transform="translate(-190.041 -166.887)" opacity="0.1"/>
  <path id="Path_350" data-name="Path 350" d="M468.974,441.392S434.785,410.7,430,411.328" transform="translate(-179.328 -165.482)" opacity="0.1"/>
  <path id="Path_351" data-name="Path 351" d="M624.313,314.2c2.78-8.918,12.171,15.26,12.962,17.339a25.136,25.136,0,0,1-2.666-.293,26.575,26.575,0,0,1-17.739-11.241C620.53,318.859,623.449,317.041,624.313,314.2Z" transform="translate(-213.863 -147.171)" opacity="0.1"/>
  <circle id="Ellipse_85" data-name="Ellipse 85" cx="26.689" cy="26.689" r="26.689" transform="translate(397.953 130.521)" fill="#be7c5e"/>
  <path id="Path_352" data-name="Path 352" d="M653.876,296.809c2.1,3.448,4,7.19,7.239,9.6s8.331,2.959,11.021-.049a9.293,9.293,0,0,0,1.924-4.158c1.973-8.4-1.475-17.119-5.951-24.529-5.4-8.894-12.562-16.94-21.652-22.01s-20.266-6.872-30.113-3.5-17.934,12.391-18.749,22.76c-.448,5.3.889,10.7-.212,15.913-.571,2.715-1.8,5.3-1.94,8.07-.261,5.144,3.261,9.929,2.943,15.073-.2,3.171-1.818,6.049-2.812,9.073-2.446,7.288-1.125,15.22-1.63,22.882s-3.856,16.255-11.193,18.521c8.111,4.076,19.3-.212,22.6-8.674,1-2.584,1.37-5.454,2.894-7.769,2.576-3.913,7.932-5.462,10.092-9.619s.285-9.22-2.079-13.255-5.315-8.095-5.364-12.766a11.233,11.233,0,0,1,7.337-10.451,31.677,31.677,0,0,1,6.97-1.076,36.9,36.9,0,0,0,16.173-6.171C647.639,290.581,649.319,289.31,653.876,296.809Z" transform="translate(-207.557 -135.752)" opacity="0.1"/>
  <path id="Path_353" data-name="Path 353" d="M654.082,295.382c2.1,3.456,4,7.19,7.239,9.611s8.331,2.959,11.021-.049a9.334,9.334,0,0,0,1.924-4.157c1.973-8.4-1.475-17.119-5.951-24.529-5.4-8.9-12.562-16.94-21.652-22.01s-20.266-6.864-30.113-3.5-19.76,12.521-20.633,22.891c-.448,5.3.2,7.753-.9,12.953-.571,2.715.758,8.152.62,10.907-.261,5.144,3.261,9.929,2.943,15.073-.2,3.171-1.818,6.049-2.812,9.065-2.446,7.3-1.125,15.228-1.63,22.891s-3.856,16.247-11.193,18.513c8.111,4.076,19.3-.212,22.6-8.674,1-2.576,1.37-5.445,2.894-7.761,2.576-3.913,7.932-5.462,10.092-9.619s.285-9.228-2.071-13.263-5.323-8.087-5.372-12.766a11.234,11.234,0,0,1,7.337-10.443,31.677,31.677,0,0,1,6.97-1.076,37,37,0,0,0,16.173-6.171C647.862,289.154,649.541,287.89,654.082,295.382Z" transform="translate(-207.592 -135.49)" fill="#723647"/>
  <rect id="Rectangle_96" data-name="Rectangle 96" width="14.698" height="3.22" rx="1.61" transform="translate(404.02 177.428) rotate(-170.82)" fill="#252a62"/>
  <path id="Path_354" data-name="Path 354" d="M573.639,593.4c.188,12.766,10.956,22.825,23.722,22.825h1.777a6.016,6.016,0,0,1,4.206,1.7,5.821,5.821,0,0,1,1.7,2.984,5.441,5.441,0,0,1,.179,1.41v22.54a22.573,22.573,0,0,0,3.571,12.228,32.257,32.257,0,0,1,5.315,17.4h0a10.875,10.875,0,0,0,11.07,10.875,11.1,11.1,0,0,0,10.646-11.217V668.5l2.967.342V674.5a10.866,10.866,0,0,0,11.062,10.858,11.1,11.1,0,0,0,10.655-11.217v-2.853c2.959,1.239,19.744,1.239,24.4,0l1.263-.1v3.261a10.875,10.875,0,0,0,11.07,10.907,11.1,11.1,0,0,0,10.646-11.217v-4.679l.986-.09V674.5a10.874,10.874,0,0,0,11.07,10.85,11.054,11.054,0,0,0,10.6-9.693,13.425,13.425,0,0,0,.1-1.524V650.562a36.121,36.121,0,0,0-7.7-22.336,6.7,6.7,0,0,1-.187-7.907c5.527-8.095,13.7-21.757,13.434-31.442a10.6,10.6,0,0,0-2.584-7.166c-.106-.122-.22-.236-.326-.351-7.956-8.331-21.961-1.777-20.747,9.676a32.37,32.37,0,0,1-.815,11.453,35.493,35.493,0,0,1-2.226,6.138,10.435,10.435,0,0,1-10.655,5.927,36.359,36.359,0,0,0-4.451-.269H648.735a12.823,12.823,0,0,1-12.146-8.7,12.388,12.388,0,0,1-.693-4.133V565.912A6.913,6.913,0,0,0,628.771,559,6.75,6.75,0,0,0,624,561.225a7.409,7.409,0,0,0-1.924,4.973,3.652,3.652,0,0,1-3.66,3.66H596.84a23.2,23.2,0,0,0-23.2,23.543Z" transform="translate(-205.873 -192.774)" fill="#f3ad55"/>
  <path id="Path_355" data-name="Path 355" d="M740,703.289a10.875,10.875,0,0,0,10.728,8.152,11.054,11.054,0,0,0,10.6-9.693C754.673,699.98,745.56,698.757,740,703.289Z" transform="translate(-236.618 -218.861)" fill="#fbdca3"/>
  <path id="Path_356" data-name="Path 356" d="M712.1,703.289a10.883,10.883,0,0,0,10.736,8.152,11.046,11.046,0,0,0,10.549-9.693C726.814,699.98,717.725,698.757,712.1,703.289Z" transform="translate(-231.462 -218.861)" fill="#fbdca3"/>
  <path id="Path_357" data-name="Path 357" d="M654,703.289a10.875,10.875,0,0,0,10.728,8.152,11.054,11.054,0,0,0,10.6-9.693C668.673,699.98,659.576,698.757,654,703.289Z" transform="translate(-220.725 -218.861)" fill="#fbdca3"/>
  <path id="Path_358" data-name="Path 358" d="M623.7,703.289a10.875,10.875,0,0,0,10.736,8.152,11.046,11.046,0,0,0,10.549-9.693C638.414,699.98,629.3,698.757,623.7,703.289Z" transform="translate(-215.125 -218.861)" fill="#fbdca3"/>
  <path id="Path_359" data-name="Path 359" d="M742.94,606.709c7.671-3.081,17.029-8.723,24.456-13.614a10.6,10.6,0,0,0-2.584-7.166c-.106-.122-.22-.236-.326-.351-7.956-8.331-21.961-1.777-20.747,9.676A32.371,32.371,0,0,1,742.94,606.709Z" transform="translate(-237.161 -196.993)" fill="#fbdca3"/>
  <path id="Path_360" data-name="Path 360" d="M718.928,626.885s-21.122,26.592-55.678-.065" transform="translate(-222.434 -205.308)" fill="#fbdca3"/>
  <path id="Path_361" data-name="Path 361" d="M648.637,566.27s-12.831,16.785,0,37.5" transform="translate(-218.68 -194.118)" fill="#fbdca3"/>
  <path id="Path_362" data-name="Path 362" d="M612.39,636.51s11.307,14.038.147,25.206" transform="translate(-213.035 -207.099)" fill="#fbdca3"/>
  <path id="Path_363" data-name="Path 363" d="M611.18,630.011c.815.815.554,1.549.815,2.706l36.684-9.611c-1.973-1.524-4.426-3.326-5.234-5.706C639.06,620.783,630.362,626.506,611.18,630.011Z" transform="translate(-212.811 -203.567)" opacity="0.1"/>
  <path id="Path_364" data-name="Path 364" d="M610.08,628.516a5.821,5.821,0,0,1,1.7,2.984l35.779-9.326a12.79,12.79,0,0,1-4.3-6.024C638.856,619.566,629.262,624.995,610.08,628.516Z" transform="translate(-212.608 -203.336)" fill="#383f4d"/>
  <path id="Path_365" data-name="Path 365" d="M642.34,618.57s-11.193,8.421-29.95,11.03" transform="translate(-213.035 -203.783)" opacity="0.1"/>
  <path id="Path_366" data-name="Path 366" d="M642.34,617.36s-11.193,8.421-29.95,11.03" transform="translate(-213.035 -203.56)" fill="#f3ad55"/>
  <path id="Path_367" data-name="Path 367" d="M609.44,615.431s-18.75,5.927-23.69-12.831Z" transform="translate(-208.112 -200.832)" opacity="0.1"/>
  <path id="Path_368" data-name="Path 368" d="M609.44,614.221s-18.75,5.926-23.69-12.831Z" transform="translate(-208.112 -200.608)" fill="#fbdca3"/>
  <ellipse id="Ellipse_86" data-name="Ellipse 86" cx="1.973" cy="3.456" rx="1.973" ry="3.456" transform="translate(365.794 394.855)" fill="#383f4d"/>
  <path id="Path_369" data-name="Path 369" d="M756.206,678.389,752.26,646.8s11.845,18.75,3.946,31.589" transform="translate(-238.884 -209)" opacity="0.1"/>
  <path id="Path_370" data-name="Path 370" d="M751.05,646.8s11.845,18.75,3.946,31.589Z" transform="translate(-238.66 -209)" fill="#fbdca3"/>
</svg>
