<svg xmlns="http://www.w3.org/2000/svg" xmlns:xlink="http://www.w3.org/1999/xlink" width="855.394" height="573.768" viewBox="0 0 855.394 573.768">
  <defs>
    <linearGradient id="linear-gradient" x1="0.5" y1="1" x2="0.5" gradientUnits="objectBoundingBox">
      <stop offset="0" stop-color="gray" stop-opacity="0.251"/>
      <stop offset="0.54" stop-color="gray" stop-opacity="0.122"/>
      <stop offset="1" stop-color="gray" stop-opacity="0.102"/>
    </linearGradient>
  </defs>
  <g id="undraw_fish_bowl_uu88" transform="translate(0 0.03)">
    <path id="Path_371" data-name="Path 371" d="M931.394,775.472c0,4.473-39.129,8.562-103.831,11.7-11.762.563-24.372,1.1-37.742,1.632q-17.336.661-36.33,1.233-18.414.547-38.223,1.02c-41.725,1-87.841,1.714-136.838,2.073q-17.834.139-36.15.2-19.075.073-38.582.065C267.484,793.4,76,785.389,76,775.5S267.484,757.54,503.7,757.54c101.692,0,195.075,1.485,268.486,3.967l8.023.269h.049C872.716,765.09,931.394,769.987,931.394,775.472Z" transform="translate(-76 -219.668)" fill="#3f3d56"/>
    <path id="Path_372" data-name="Path 372" d="M931.394,775.472c0,4.473-39.129,8.562-103.831,11.7-11.762.563-24.372,1.1-37.742,1.632q-17.336.661-36.33,1.233-18.414.547-38.223,1.02c-41.725,1-87.841,1.714-136.838,2.073q-17.834.139-36.15.2-19.075.073-38.582.065C267.484,793.4,76,785.389,76,775.5S267.484,757.54,503.7,757.54c101.692,0,195.075,1.485,268.486,3.967l8.023.269h.049C872.716,765.09,931.394,769.987,931.394,775.472Z" transform="translate(-76 -219.668)" opacity="0.1"/>
    <path id="Path_373" data-name="Path 373" d="M931.394,767.25c0,4.473-39.129,8.562-103.831,11.7-11.762.571-24.372,1.11-37.742,1.632q-17.336.661-36.33,1.233-18.414.547-38.223,1.02c-41.725,1-87.841,1.714-136.838,2.073q-17.834.122-36.15.2-19.075.065-38.582.065c-236.213,0-427.7-8.015-427.7-17.908S267.484,749.35,503.7,749.35c101.692,0,195.075,1.486,268.486,3.967l8.023.269h.049C872.716,756.867,931.394,761.765,931.394,767.25Z" transform="translate(-76 -218.163)" fill="#3f3d56"/>
    <path id="Path_374" data-name="Path 374" d="M931.394,767.236c0,4.473-39.129,8.562-103.831,11.713-11.762.563-24.372,1.1-37.742,1.632q-17.336.645-36.33,1.232-18.414.547-38.215,1.02c-41.733,1-87.849,1.714-136.847,2.073q-17.826.122-36.15.2-19.075.073-38.582.082c-236.213,0-427.7-8.023-427.7-17.957,0-8.529,142.5-15.671,333.318-17.467q16.324-.163,33.016-.261,30.053-.171,61.363-.18t61.363.18q16.724.106,33.008.261c64.848.6,124.13,1.837,174.107,3.526l8.023.269h.057C872.716,756.862,931.394,761.759,931.394,767.236Z" transform="translate(-76 -218.157)" fill="#3f3d56"/>
    <path id="Path_375" data-name="Path 375" d="M810.454,321.941l-66.179,3.053,65.028-13.28a82.543,82.543,0,0,0-4.9-17.092,82.715,82.715,0,1,0-106-126.513l46.149,59.584-54.025-50.85A82.887,82.887,0,0,0,674.08,240.3l47.292,13.059-45.708-5.273a83.817,83.817,0,0,0,3.591,10.864,82.723,82.723,0,0,0-27.964,98.387,82.715,82.715,0,0,0,10.864,140.683,28.517,28.517,0,0,0-4.293,8.913,27.179,27.179,0,0,0-.318,14.267,28.265,28.265,0,0,0-7.575,26.568,28.266,28.266,0,0,0-7.574,26.568,28.249,28.249,0,0,0-7.575,26.568,27.254,27.254,0,0,0-7.256,12.3c-3.42,12,1.241,23.858,10.415,26.47s19.377-5,22.8-17.01A27.269,27.269,0,0,0,661.1,608.4a28.315,28.315,0,0,0,7.575-26.568,28.323,28.323,0,0,0,7.575-26.576,28.3,28.3,0,0,0,7.574-26.568,27.164,27.164,0,0,0,7.248-12.3,28.283,28.283,0,0,0,1.061-9.7,82.715,82.715,0,0,0,84.152-113.715,82.756,82.756,0,0,0,34.126-71.011Z" transform="translate(-175.438 -107.102)" fill="#f2f2f2"/>
    <ellipse id="Ellipse_87" data-name="Ellipse 87" cx="99.815" cy="10.554" rx="99.815" ry="10.554" transform="translate(327.882 538.15)" opacity="0.1"/>
    <circle id="Ellipse_88" data-name="Ellipse 88" cx="198.667" cy="198.667" r="198.667" transform="translate(229.03 153.288)" fill="#3f3d56"/>
    <path id="Path_376" data-name="Path 376" d="M727.911,492.589a165.084,165.084,0,0,1-165.08,165.08c-5.232,0-10.415-.237-15.508-.718A165.106,165.106,0,0,1,397.858,498.155q-.1-2.783-.1-5.567,0-6.252.465-12.406a165.107,165.107,0,0,1,323.1-33.889c.351,1.233.7,2.449,1.037,3.714q1.836,6.938,3.1,14.112a166.5,166.5,0,0,1,2.449,28.47Z" transform="translate(-135.135 -140.642)" fill="#fff" opacity="0.74"/>
    <path id="Path_377" data-name="Path 377" d="M727.931,516.134A165.078,165.078,0,0,1,397.87,521.7c18.822.539,37.995-.082,55.78-6.211,19.279-6.636,35.783-19.336,53.536-29.384,47.691-26.894,104.606-34.134,159.088-28.812,18.5,1.8,37.693,5.558,55.062,12.464a165.2,165.2,0,0,1,6.6,46.337Z" transform="translate(-135.155 -164.188)" fill="#585ec7" opacity="0.4"/>
    <path id="Path_378" data-name="Path 378" d="M740.9,519.809a165.084,165.084,0,0,1-165.08,165.08c-5.232,0-10.415-.237-15.508-.718A165.088,165.088,0,0,1,468.42,541.691c18.822.539,37.995-.082,55.78-6.211,19.287-6.636,35.783-19.336,53.536-29.384,47.259-26.658,103.57-34,157.6-28.951q1.837,6.938,3.1,14.112A166.506,166.506,0,0,1,740.9,519.809Z" transform="translate(-148.121 -167.862)" fill="#585ec7" opacity="0.4"/>
    <path id="Path_379" data-name="Path 379" d="M727.909,523.329a165.08,165.08,0,0,1-330.159,0q0-6.252.465-12.406a131.058,131.058,0,0,1,37.693,10.488c19.361,8.693,36.583,22.038,56.719,28.739,14.692,4.9,30.314,6.065,45.773,6.53,19.3.612,39.015.122,57.274-6.171,19.279-6.636,35.775-19.336,53.536-29.343,23.613-13.321,49.512-21.817,76.243-26.356a166.515,166.515,0,0,1,2.457,28.519Z" transform="translate(-135.133 -171.382)" fill="#4884c2"/>
    <path id="Path_380" data-name="Path 380" d="M1038.959,131.3l-14.9,9.444,9.044-16.447a14.692,14.692,0,0,0-8.978-3.216h-.245a17.615,17.615,0,0,1-3.085-.229l-5.052,3.2,2.163-3.934a18.006,18.006,0,0,1-8.832-6.7l-9.035,5.714,5.714-10.382c-5.289-6.342-12.406-10.227-20.25-10.227-9.395,0-17.761,5.583-23.164,14.292a17.32,17.32,0,0,1-15.312,8.26h-.506c-10.374,0-18.773,11.762-18.773,26.274s8.407,26.266,18.773,26.266a14.129,14.129,0,0,0,6.53-1.632,27.1,27.1,0,0,1,22.732-.449,23.735,23.735,0,0,0,19.328.049,27.11,27.11,0,0,1,22.536.433,14.064,14.064,0,0,0,6.473,1.632c10.374,0,18.773-11.762,18.773-26.266A33.349,33.349,0,0,0,1038.959,131.3Z" transform="translate(-232.539 -98.55)" fill="#f2f2f2"/>
    <path id="Path_381" data-name="Path 381" d="M1010.862,177.434a27.751,27.751,0,0,0-16.1,1.747,23.67,23.67,0,0,1-19.32,0,27.118,27.118,0,0,0-22.74.441,14.04,14.04,0,0,1-6.53,1.632c-9.256-.033-16.888-9.346-18.487-21.589a17.615,17.615,0,0,0,4.6-4.963c5.4-8.709,13.778-14.292,23.172-14.292s17.663,5.518,23.066,14.129a17.786,17.786,0,0,0,15.312,8.415h.237C1001.4,162.97,1007.769,168.855,1010.862,177.434Z" transform="translate(-232.528 -106.249)" opacity="0.03"/>
    <path id="Path_382" data-name="Path 382" d="M256.576,121.95l-7.428,4.71,4.514-8.162a7.346,7.346,0,0,0-4.5-1.632h-.114a8.807,8.807,0,0,1-1.543-.114l-2.522,1.632,1.086-1.967a8.978,8.978,0,0,1-4.408-3.338l-4.506,2.857,2.849-5.183a13.214,13.214,0,0,0-10.1-5.1c-4.693,0-8.864,2.791-11.558,7.134a8.644,8.644,0,0,1-7.64,4.081h-.253c-5.175,0-9.37,5.86-9.37,13.1s4.2,13.059,9.37,13.059a7.036,7.036,0,0,0,3.265-.816,13.517,13.517,0,0,1,11.337-.22,11.851,11.851,0,0,0,9.64,0,13.565,13.565,0,0,1,11.239.212,6.93,6.93,0,0,0,3.224.816c5.175,0,9.37-5.86,9.37-13.059a16.536,16.536,0,0,0-1.959-8.007Z" transform="translate(-98.99 -99.86)" fill="#f2f2f2"/>
    <path id="Path_383" data-name="Path 383" d="M242.576,144.967a13.769,13.769,0,0,0-8.023.873,11.851,11.851,0,0,1-9.64,0,13.533,13.533,0,0,0-11.345.22,6.979,6.979,0,0,1-3.265.816c-4.6,0-8.423-4.628-9.223-10.733a8.922,8.922,0,0,0,2.3-2.449c2.694-4.342,6.873-7.126,11.558-7.126s8.807,2.751,11.5,7.044a8.856,8.856,0,0,0,7.64,4.2h.122C237.867,137.752,241.009,140.691,242.576,144.967Z" transform="translate(-98.988 -103.705)" opacity="0.03"/>
    <path id="Path_384" data-name="Path 384" d="M362.628,230.168l11.966,7.566-7.248-13.174a11.819,11.819,0,0,1,7.224-2.571h.188a13.223,13.223,0,0,0,2.449-.188l4.04,2.571-1.755-3.159a14.414,14.414,0,0,0,7.077-5.371l7.24,4.6-4.522-8.276c4.236-5.077,9.941-8.162,16.218-8.162,7.534,0,14.235,4.473,18.569,11.427a13.876,13.876,0,0,0,12.243,6.62h.408c8.309,0,15.043,9.419,15.043,21.042s-6.734,21.05-15.043,21.05a11.313,11.313,0,0,1-5.248-1.314,21.728,21.728,0,0,0-18.21-.359,18.961,18.961,0,0,1-15.508.041,21.711,21.711,0,0,0-18.055.351,11.346,11.346,0,0,1-5.183,1.281c-8.317,0-15.051-9.427-15.051-21.05A26.732,26.732,0,0,1,362.628,230.168Z" transform="translate(-128.097 -117.936)" fill="#f2f2f2"/>
    <path id="Path_385" data-name="Path 385" d="M390.89,267.12a22.266,22.266,0,0,1,12.9,1.4,19,19,0,0,0,15.508,0,21.72,21.72,0,0,1,18.218.351,11.28,11.28,0,0,0,5.24,1.314c7.387,0,13.525-7.436,14.806-17.247a14.235,14.235,0,0,1-3.73-4.016c-4.334-6.97-11.035-11.427-18.569-11.427s-14.145,4.424-18.479,11.329a14.235,14.235,0,0,1-12.243,6.734h-.188C398.464,255.538,393.371,260.248,390.89,267.12Z" transform="translate(-133.872 -124.092)" opacity="0.03"/>
    <path id="Path_386" data-name="Path 386" d="M1022.022,721.717c3.967-7.346-.531-16.324-5.714-22.854s-11.427-13.345-11.329-21.679c.2-11.974,12.9-19.05,23.066-25.4a112.268,112.268,0,0,0,20.716-16.643,30.554,30.554,0,0,0,6.366-8.521c2.1-4.677,2.041-10.007,1.91-15.141q-.661-25.621-2.538-51.209" transform="translate(-246.732 -183.413)" fill="none" stroke="#3f3d56" stroke-miterlimit="10" stroke-width="4"/>
    <path id="Path_387" data-name="Path 387" d="M1080.9,555.111a18.642,18.642,0,0,0-9.329-15.3l-4.179,8.268.122-10.015a18.675,18.675,0,1,0,13.386,17.043Z" transform="translate(-253.825 -179.193)" fill="#26b66e"/>
    <path id="Path_388" data-name="Path 388" d="M1040.56,707.872a18.667,18.667,0,1,1,.906-15.043l-11.672,9.493,12.839-2.971a18.557,18.557,0,0,1-2.072,8.519Z" transform="translate(-246.791 -205.538)" fill="#26b66e"/>
    <path id="Path_389" data-name="Path 389" d="M1032.791,661.163a18.675,18.675,0,0,1-5.926-36.64l-.1,7.7,4.228-8.374h.049a18.681,18.681,0,1,1,1.747,37.321Z" transform="translate(-248.245 -195.093)" fill="#26b66e"/>
    <path id="Path_390" data-name="Path 390" d="M1088.344,624.2a18.683,18.683,0,1,1,8.252-34.958l-3.265,9.044,6.791-6.53a18.569,18.569,0,0,1,6.032,12.888,18.238,18.238,0,0,1-.465,5.183,18.683,18.683,0,0,1-17.345,14.374Z" transform="translate(-258.457 -188.299)" fill="#26b66e"/>
    <path id="Path_391" data-name="Path 391" d="M1078.384,562.393c-4.31.473-8.5,1.812-12.831,2.081s-9.076-.767-11.811-4.13c-1.477-1.812-2.212-4.081-3.461-6.081a13.278,13.278,0,0,0-4.7-4.424,18.683,18.683,0,1,0,34.918,12.374C1079.829,562.271,1079.086,562.32,1078.384,562.393Z" transform="translate(-253.819 -181.496)" opacity="0.1"/>
    <path id="Path_392" data-name="Path 392" d="M1088.355,626.617A18.7,18.7,0,0,1,1070.6,600a13.613,13.613,0,0,1,3.754,3.763c1.331,2.008,2.139,4.326,3.706,6.171,2.906,3.42,7.877,4.538,12.382,4.334s8.856-1.485,13.353-1.894c.62-.057,1.249-.1,1.877-.114a18.683,18.683,0,0,1-17.32,14.357Z" transform="translate(-258.468 -190.714)" opacity="0.1"/>
    <path id="Path_393" data-name="Path 393" d="M1032.788,663.648a18.675,18.675,0,0,1-17.957-26.3,15.215,15.215,0,0,1,3.951,3.8c1.445,2.049,2.351,4.408,4.081,6.3,3.151,3.51,8.448,4.742,13.223,4.628,4.628-.1,9.076-1.232,13.68-1.583a18.691,18.691,0,0,1-16.977,13.158Z" transform="translate(-248.242 -197.579)" opacity="0.1"/>
    <path id="Path_394" data-name="Path 394" d="M1040.556,710.569A18.683,18.683,0,0,1,1006.5,695.33a18.775,18.775,0,0,1,4.081,3.648c1.779,2.171,2.947,4.62,5,6.636,3.82,3.755,9.982,5.3,15.508,5.444A81.04,81.04,0,0,0,1040.556,710.569Z" transform="translate(-246.786 -208.234)" opacity="0.1"/>
    <path id="Path_395" data-name="Path 395" d="M991.36,745.936s14.741-.457,19.181-3.616,22.674-6.946,23.776-1.869,22.152,25.229,5.51,25.368-38.672-2.6-43.1-5.3S991.36,745.936,991.36,745.936Z" transform="translate(-244.229 -216.071)" fill="#656380"/>
    <path id="Path_396" data-name="Path 396" d="M1040.129,765.846c-16.643.131-38.672-2.6-43.1-5.3-3.379-2.057-4.726-9.435-5.175-12.839h-.49s.931,11.884,5.363,14.586,26.462,5.428,43.1,5.3c4.807-.041,6.464-1.747,6.375-4.277C1045.532,764.859,1043.7,765.814,1040.129,765.846Z" transform="translate(-244.229 -217.861)" opacity="0.2"/>
    <path id="Path_397" data-name="Path 397" d="M916.844,730.255c-2.587-4.791.351-10.66,3.722-14.929s7.485-8.717,7.395-14.161c-.122-7.819-8.423-12.439-15.059-16.585a73.166,73.166,0,0,1-13.525-10.872,19.858,19.858,0,0,1-4.154-5.558c-1.371-3.061-1.331-6.53-1.241-9.884q.432-16.749,1.632-33.465" transform="translate(-226.326 -195.272)" fill="none" stroke="#3f3d56" stroke-miterlimit="10" stroke-width="4"/>
    <path id="Path_398" data-name="Path 398" d="M880.557,621.387a12.178,12.178,0,0,1,6.073-9.974l2.726,5.4-.082-6.53a12.2,12.2,0,1,1-8.717,11.1Z" transform="translate(-223.862 -192.512)" fill="#25b26b"/>
    <path id="Path_399" data-name="Path 399" d="M906.894,721.153a12.194,12.194,0,0,0,23.025-5.036,12.017,12.017,0,0,0-.816-4.946,12.2,12.2,0,0,0-22.854.131l7.623,6.2-8.383-1.943a11.957,11.957,0,0,0,1.4,5.591Z" transform="translate(-228.448 -209.702)" fill="#26b66e"/>
    <path id="Path_400" data-name="Path 400" d="M911.967,690.67a12.243,12.243,0,0,0,12.758-11.615,11.958,11.958,0,0,0-1.053-5.558,12.243,12.243,0,0,0-7.828-6.758l.057,5.028-2.775-5.469h0a12.243,12.243,0,0,0-12.749,11.615,11.942,11.942,0,0,0,.522,4.163,12.244,12.244,0,0,0,11.068,8.595Z" transform="translate(-227.505 -202.897)" fill="#26b66e"/>
    <path id="Path_401" data-name="Path 401" d="M875.692,666.516a12.188,12.188,0,1,0-5.4-22.83l2.155,5.909-4.432-4.261a12.2,12.2,0,0,0,7.672,21.181Z" transform="translate(-220.834 -198.463)" fill="#26b66e"/>
    <path id="Path_402" data-name="Path 402" d="M882.261,626.153c2.808.31,5.55,1.184,8.374,1.363s5.926-.506,7.713-2.7a38.593,38.593,0,0,0,2.261-3.967,8.777,8.777,0,0,1,3.069-2.9,12.194,12.194,0,1,1-22.789,8.1C881.339,626.079,881.8,626.153,882.261,626.153Z" transform="translate(-223.926 -194.013)" opacity="0.1"/>
    <path id="Path_403" data-name="Path 403" d="M875.757,668.082a12.243,12.243,0,0,0,12.758-11.615,12.072,12.072,0,0,0-1.159-5.787,8.977,8.977,0,0,0-2.449,2.449,36.341,36.341,0,0,1-2.449,4.032c-1.9,2.228-5.15,2.963-8.089,2.824s-5.787-.963-8.725-1.232c-.4-.041-.816-.065-1.224-.073a12.194,12.194,0,0,0,11.337,9.4Z" transform="translate(-220.899 -200.029)" opacity="0.1"/>
    <path id="Path_404" data-name="Path 404" d="M912.084,692.293a12.243,12.243,0,0,0,12.758-11.615,11.958,11.958,0,0,0-1.053-5.558,9.794,9.794,0,0,0-2.579,2.449,37.951,37.951,0,0,1-2.645,4.081c-2.057,2.293-5.518,3.1-8.635,3.028S904,683.862,901,683.641a12.243,12.243,0,0,0,11.084,8.652Z" transform="translate(-227.622 -204.52)" opacity="0.1"/>
    <path id="Path_405" data-name="Path 405" d="M907.21,722.922a12.194,12.194,0,0,0,23.025-5.036,12.017,12.017,0,0,0-.816-4.946,12.177,12.177,0,0,0-2.677,2.391c-1.159,1.412-1.926,3.012-3.265,4.334-2.5,2.449-6.53,3.453-10.1,3.551a51.747,51.747,0,0,1-6.162-.294Z" transform="translate(-228.764 -211.471)" opacity="0.1"/>
    <path id="Path_406" data-name="Path 406" d="M936.47,746.038s-9.631-.3-12.529-2.367-14.814-4.53-15.508-1.216-14.463,16.479-3.6,16.561,25.254-1.69,28.151-3.453S936.47,746.038,936.47,746.038Z" transform="translate(-227.562 -216.597)" fill="#656380"/>
    <path id="Path_407" data-name="Path 407" d="M904.606,759.033c10.872.09,25.3-1.69,28.151-3.453,2.212-1.347,3.085-6.171,3.379-8.391h.327s-.612,7.762-3.51,9.525-17.279,3.542-28.151,3.453c-3.134,0-4.22-1.135-4.163-2.792C901.08,758.388,902.272,759.017,904.606,759.033Z" transform="translate(-227.556 -217.766)" opacity="0.2"/>
    <path id="Path_408" data-name="Path 408" d="M554.815,627.834c18.569-3.428,18.65-30.494,18.65-30.494-.816,3.869-2.718,4.244-12.39,7.346s-15.508,13.1-15.508,13.1c-28.9-32.951-53.748,2.93-53.748,2.93a34.281,34.281,0,0,0,17.3,13.394c-1.143,2.791-2.351,6.685-.93,8.113,1.632,1.632,6.1-3.387,8.5-6.4.718.082,1.437.155,2.155.2,1.379,2.767,4.8,10.039,4.791,14.357,0,0,7.885-.6,6.889-14.978a59.468,59.468,0,0,0,14.5-4.318s-.816,22.421,5.714,23.6,12.929,9.125,12.929,9.125C573.36,644.9,554.815,627.834,554.815,627.834Z" transform="translate(-152.421 -190.225)" fill="#c99a68" opacity="0.91"/>
    <path id="Path_409" data-name="Path 409" d="M698,574.383c18.512,3.706,28.625-21.4,28.625-21.4-2.163,3.265-4.081,2.93-14.227,2.2s-19.255,6.383-19.255,6.383c-14.618-41.284-51.005-17.141-51.005-17.141a34.282,34.282,0,0,0,11.1,18.855c-2.1,2.171-4.661,5.338-3.869,7.183.914,2.163,6.913-.882,10.26-2.792.637.351,1.281.677,1.926.988.253,3.085.735,11.109-.873,15.116,0,0,7.55,2.359,11.949-11.362a59.207,59.207,0,0,0,14.994,1.371s-9.093,20.511-3.428,24.046,8.619,13.263,8.619,13.263C708.857,597.09,698,574.383,698,574.383Z" transform="translate(-180.048 -179.21)" fill="#f9a825" opacity="0.79"/>
    <path id="Path_410" data-name="Path 410" d="M316.283,354.552l.049-.073-.188-.122-.384-.269.073.065a1.583,1.583,0,0,0-2.073.4l-.229.335h0l-11.1,15.99-1.943,2.791c-5.844-1.755-15.329,5.656-20.136,9.9l-.816.751c-.384-.857-.6-1.4-.6-1.4-.237,2.612-9.444,6.53-11.6,7.942a7.812,7.812,0,0,1-3.208,1.086c.31-9.925-7.346-20.365-7.346-20.365l-18.765-23.9a21.05,21.05,0,0,1,1.918-12.651c.147-.31.31-.62.482-.922h.922a26.2,26.2,0,0,0,4.563-.408,24.976,24.976,0,0,0,20.52-23.025,4.091,4.091,0,0,0,3.224-4.252,3.265,3.265,0,0,0,0-1.159h0a4.219,4.219,0,0,0-.22-.71h0a21.633,21.633,0,0,0-2.506-3.689,11.427,11.427,0,0,1-1.779-6.073,24.2,24.2,0,0,1,.873-5.567,9.362,9.362,0,0,0,.531-3.363v-.229a5.56,5.56,0,0,0-.041-.9,4.128,4.128,0,0,0-.147-.628h0a6.016,6.016,0,0,0-2.514-3.061c-2.963-1.934-6.766-1.959-10.1-3.175-4.832-1.771-9.207-6.146-14.251-5.085-2.759.571-4.9,2.685-7.264,4.179a17.532,17.532,0,0,1-8.766,2.661c-2.612.082-5.248-.416-7.819,0a8.74,8.74,0,0,0-1.355.367,20.217,20.217,0,0,0-6.791-1.069,11.427,11.427,0,0,0-6.407,1.763c-3.469,2.449-4.4,7.134-4.342,11.345v.914c0,2.016.2,4.081.229,6.081a18.2,18.2,0,0,1-.759,5.55c-1.632,4.987-6.179,8.8-7.1,13.957a12.447,12.447,0,0,0-.155,2.694c-.065,2.922.873,5.852,1.739,8.685a63.552,63.552,0,0,1,3.216,18.145,29.825,29.825,0,0,1-2.212,10.994,16.632,16.632,0,0,1-1.567,2.906,8.368,8.368,0,0,1-.645.816l-.1.106c-.2.229-.408.441-.62.653l-.18.163a6.534,6.534,0,0,1-.645.506l-.212.163a6.481,6.481,0,0,1-.93.522l1.592-.09a7.021,7.021,0,0,1-1.592,1.012l8.423-.49a.676.676,0,0,0,.041.278,3.975,3.975,0,0,1-.122.62,4.9,4.9,0,0,1-.2.579.245.245,0,0,0,0,.082,5.029,5.029,0,0,1-.653,1.053l-.065.082a5.522,5.522,0,0,1-.424.449h0a4.035,4.035,0,0,1-.457.359l-.106.073a4.8,4.8,0,0,1-.522.3h0a5.242,5.242,0,0,1-.539.2l-.139.041a3.762,3.762,0,0,1-.588.122l.816-.1c.531-.065,1.061-.131,1.583-.22h.155a4.219,4.219,0,0,1-2.53,1.257,22.92,22.92,0,0,0,5.33-1.045c1.1,7.346,3.534,29.816,2.2,33.963-1.551,4.473,2.122,36.844,2.122,36.844s.5,2.449,1.371,6.187c-2.253,5.314-4.824,11.207-6.113,13.566-2.6,4.742-1.314,28.919,7.607,39.668,0,0,3.7,5.207,2.726,7.109s.163,5.216.163,5.216l1.412,31.286a81.562,81.562,0,0,1-.637,9.607c-3.8,4.718-9.68,11.6-12.447,12.725-4.269,1.73-36.15,40.452-36.15,40.452s.253.465.751,1.224l-.9,1.037-6.122,7.093-.482.563a147.388,147.388,0,0,0-14.855-2.049h-.6v-.114a23.054,23.054,0,0,0-6.4.171h-.049a2.113,2.113,0,0,0-1.053.555c-2.065,2.53-3.183,42.353-3.183,42.353s2.2,19.891,9.06,21.042a3.822,3.822,0,0,0,1.1.2h.073a2,2,0,0,0,.384,0,9.432,9.432,0,0,0,8.162-5.118,8.493,8.493,0,0,0,.686-1.836,14.57,14.57,0,0,1,1.355-8.456c2.171-4.9,6.138-13.435,6.138-13.435s7.281-7.664,5.983-11.386l.7-1.012c2.742-3.9,8.268-11.607,12.741-16.757l.882-.988a22.319,22.319,0,0,0,5.077,1.477s6.856-2.685,9.411-8.693c1.086-2.555,5.338-7.077,9.868-11.427-.1.751-.147,1.167-.147,1.167l-.155,38.076a27.115,27.115,0,0,0,4.685,2.587v.939a121.9,121.9,0,0,1-.979,16.243c-.041.286-.09.563-.139.816-.563-.4-1.053-.539-1.363-.22-1.4,1.42-2.277,10.5-2.359,14.692v.237h0c-.1,1.739-.563,3.8-.563,5.64-.041,2.677.816,4.9,5.118,5.109,5.371.229,28.47.58,40.811.759a27.376,27.376,0,0,0,18.259-6.473c2.269-1.943,4.008-4.081,4.081-6.138.114-1.559-.735-3.061-3.093-4.359a.206.206,0,0,1-.049.155c-.31-.171-.645-.335-1.012-.5l-11.876-1.861-20.242-10.35s-.122-6.252-2.555-5.216a6.831,6.831,0,0,0-2.049.816c-.122-.229-.245-.473-.367-.726a23.515,23.515,0,0,1-2.5-10.545,7.067,7.067,0,0,1,.049-1.012,17.707,17.707,0,0,0,1.673-1.722s-.155-14.219,1.437-16.912,6.53-29.865,6.53-29.865.163-5.052,3.346-8.056,2.073-11.7,2.073-11.7,4.465-2.367,5.9-10.113,6.056-24.65,6.056-24.65,9.566-24.968,8.929-40.77.955-24.021.955-24.021l1.992-36.73v-.571a14.4,14.4,0,0,1,1.322,1.094v-.4l.457.4s1.012-16.659.669-23.27c5.583-1.894,14.072-5.012,14.553-6.6.718-2.367,10.276-9.835,10.276-9.835a1.9,1.9,0,0,1-.579-.22c.3-.139.612-.3.947-.482,6.269-3.355,17.916-13.174,15.957-19.173l12.733-18.324a3.11,3.11,0,0,0-.294-3.893ZM212.55,336.7a9.109,9.109,0,0,0-.93.073,71.093,71.093,0,0,0-2.334-9.656c-1.477-4.963-3.061-9.958-3.306-15.124v-.677a19.089,19.089,0,0,1,.531-4.032c.31.563.645,1.118,1,1.632,2.032,3.077,4.416,6,5.673,9.468a27,27,0,0,0,1.771,4.775,4.489,4.489,0,0,0,4.179,2.449,3.265,3.265,0,0,0,1.575-.726A66.545,66.545,0,0,1,212.55,336.7Z" transform="translate(-85.22 -130.547)" fill="url(#linear-gradient)"/>
    <path id="Path_411" data-name="Path 411" d="M319.23,423.608a8.162,8.162,0,0,1-3.012,1.143c-3.926.114-7.158-10.513-7.158-10.513s1.118-1.126,2.9-2.71c5.256-4.685,16.324-13.321,21.466-8.489C339.211,408.459,325.98,419.951,319.23,423.608Z" transform="translate(-118.833 -154.254)" fill="#ecb4b6"/>
    <path id="Path_412" data-name="Path 412" d="M242.7,733.879l-14.471,15.6s-13.394.147-10.774-7.24a27.107,27.107,0,0,0,1.11-4.9,119.607,119.607,0,0,0,.947-15.818c0-3.469-.057-5.9-.057-5.9s21.091-9.24,18.936.384a18,18,0,0,0-.433,3.665,23.017,23.017,0,0,0,2.408,10.276A23.317,23.317,0,0,0,242.7,733.879Z" transform="translate(-101.935 -211.229)" fill="#ecb4b6"/>
    <path id="Path_413" data-name="Path 413" d="M242.7,738l-14.471,15.6s-13.394.147-10.774-7.24a27.106,27.106,0,0,0,1.11-4.9c1.91,1.477,4.661,5.836,4.661,5.836s9.24,2.693,11.778-5.387c1.42-4.522,3.665-6.758,5.363-7.844A23.318,23.318,0,0,0,242.7,738Z" transform="translate(-101.935 -215.354)" opacity="0.1"/>
    <path id="Path_414" data-name="Path 414" d="M275.646,761.505a26.4,26.4,0,0,1-17.638,6.3c-11.933-.18-34.281-.522-39.431-.743-6.921-.294-4.628-6.211-4.4-10.292v-.408c.073-4.081.922-12.929,2.277-14.316s6.113,6.154,6.113,6.154,9.24,2.7,11.778-5.387,7.713-8.84,7.713-8.84c2.351-1.02,2.449,5.077,2.449,5.077l19.589,10.08,11.476,1.812c.367.171.71.343,1.02.506C281.735,754.314,279.442,758.216,275.646,761.505Z" transform="translate(-101.295 -215.316)" fill="#4884c2"/>
    <circle id="Ellipse_89" data-name="Ellipse 89" cx="0.849" cy="0.849" r="0.849" transform="translate(137.377 528.967)" fill="#fff" opacity="0.25"/>
    <circle id="Ellipse_90" data-name="Ellipse 90" cx="0.849" cy="0.849" r="0.849" transform="translate(145.303 532.893)" fill="#fff" opacity="0.25"/>
    <circle id="Ellipse_91" data-name="Ellipse 91" cx="0.849" cy="0.849" r="0.849" transform="translate(149.384 534.722)" fill="#fff" opacity="0.25"/>
    <circle id="Ellipse_92" data-name="Ellipse 92" cx="0.849" cy="0.849" r="0.849" transform="translate(157.856 537.97)" fill="#fff" opacity="0.25"/>
    <circle id="Ellipse_93" data-name="Ellipse 93" cx="0.849" cy="0.849" r="0.849" transform="translate(153.546 536.583)" fill="#fff" opacity="0.25"/>
    <path id="Path_415" data-name="Path 415" d="M275.646,765.464a26.4,26.4,0,0,1-17.638,6.3c-11.933-.18-34.281-.522-39.431-.743-6.921-.294-4.628-6.211-4.4-10.292l43.512,2.685s17.818-2.7,18.879-8.015C281.735,758.273,279.442,762.175,275.646,765.464Z" transform="translate(-101.295 -219.274)" fill="#4884c2"/>
    <path id="Path_416" data-name="Path 416" d="M275.647,765.246a26.323,26.323,0,0,1-17.638,6.3c-11.933-.171-34.281-.514-39.423-.735-6.93-.3-4.636-6.22-4.408-10.3L257.69,763.2s17.818-2.7,18.879-8.007C281.736,758.063,279.442,761.965,275.647,765.246Z" transform="translate(-101.295 -219.236)" fill="#fff" opacity="0.25"/>
    <path id="Path_417" data-name="Path 417" d="M183.549,688.471a29.373,29.373,0,0,0-4.367,4.375c-4.318,5.02-9.656,12.529-12.309,16.324l-1.632,2.4-5.787-.89s-6.236-9.542-6.154-9.795,4.9-10.472,4.9-10.472l1.877-2.2,5.909-6.913,2.677-3.134S188.789,684.7,183.549,688.471Z" transform="translate(-90.206 -205.081)" fill="#ecb4b6"/>
    <path id="Path_418" data-name="Path 418" d="M166.873,711.432l-1.632,2.4-5.787-.89s-6.236-9.542-6.154-9.795,4.9-10.472,4.9-10.472l1.877-2.2.612.106h1.469c-5.167,5.387.384,17.247.384,17.247S164.964,708.118,166.873,711.432Z" transform="translate(-90.206 -207.343)" opacity="0.1"/>
    <path id="Path_419" data-name="Path 419" d="M156.281,723.207s-3.853,8.317-5.934,13.059a14.437,14.437,0,0,0-1.306,8.236,7.583,7.583,0,0,1-.661,1.787,9.059,9.059,0,0,1-7.885,4.987,2.752,2.752,0,0,1-.367,0c-7.019-.188-9.248-20.56-9.248-20.56s1.069-38.8,3.069-41.268a2,2,0,0,1,1.02-.539,21.309,21.309,0,0,1,6.187-.163c6.35.457,14.5,2.016,14.5,2.016h1.469c-5.167,5.387.375,17.238.375,17.238s2.449.237,4.391,3.7S156.281,723.207,156.281,723.207Z" transform="translate(-86.086 -206.997)" fill="#4884c2"/>
    <circle id="Ellipse_94" data-name="Ellipse 94" cx="0.849" cy="0.849" r="0.849" transform="translate(60.89 503.787)" fill="#fff" opacity="0.25"/>
    <circle id="Ellipse_95" data-name="Ellipse 95" cx="0.849" cy="0.849" r="0.849" transform="translate(60.473 510.513)" fill="#fff" opacity="0.25"/>
    <path id="Path_420" data-name="Path 420" d="M147.7,746.1a9.076,9.076,0,0,1-7.885,5h-.367c-7.019-.171-9.256-20.577-9.256-20.577s1.077-38.795,3.077-41.26a1.935,1.935,0,0,1,1.02-.547,21.868,21.868,0,0,1,6.179-.163c-.114,6.97-.449,29.016.041,31.2S144.906,740.238,147.7,746.1Z" transform="translate(-85.959 -206.961)" fill="#4884c2"/>
    <path id="Path_421" data-name="Path 421" d="M148.318,746.279a9.068,9.068,0,0,1-7.885,4.987,2.794,2.794,0,0,1-.367,0c-7.028-.188-9.256-20.56-9.256-20.56s1.077-38.8,3.077-41.268a1.934,1.934,0,0,1,1.012-.539,21.335,21.335,0,0,1,6.187-.163c-.114,6.97-.449,29.016,0,31.2S145.518,740.41,148.318,746.279Z" transform="translate(-86.073 -206.995)" fill="#fff" opacity="0.25"/>
    <path id="Path_422" data-name="Path 422" d="M139.446,751.163c-7.019-.171-9.256-20.577-9.256-20.577s1.077-38.795,3.077-41.26a1.935,1.935,0,0,1,1.02-.547c1.469,2.2,2.759,7.044,1.632,17.712-2.2,20.209.449,21.475.449,21.475S139.609,745.132,139.446,751.163Z" transform="translate(-85.959 -207.031)" fill="#4884c2"/>
    <path id="Path_423" data-name="Path 423" d="M139.376,751.163c-7.019-.171-9.256-20.577-9.256-20.577s1.077-38.795,3.077-41.26a1.935,1.935,0,0,1,1.02-.547c1.469,2.2,2.759,7.044,1.632,17.712-2.2,20.209.449,21.475.449,21.475S139.531,745.132,139.376,751.163Z" transform="translate(-85.946 -207.031)" opacity="0.1"/>
    <path id="Path_424" data-name="Path 424" d="M319.23,425.84a8.163,8.163,0,0,1-3.012,1.143c-3.926.114-7.158-10.513-7.158-10.513s1.118-1.126,2.9-2.71C313.206,416.658,316.749,424.4,319.23,425.84Z" transform="translate(-118.833 -156.486)" opacity="0.1"/>
    <path id="Path_425" data-name="Path 425" d="M289.812,421.877s3.265.229,5.314-1.159,10.97-5.2,11.2-7.738c0,0,5.314,12.937,8.317,13.394,0,0-9.24,7.281-9.933,9.59S286,443.931,286,443.931Z" transform="translate(-114.595 -156.343)" fill="#ff748e"/>
    <path id="Path_426" data-name="Path 426" d="M289.812,421.877s3.265.229,5.314-1.159,10.97-5.2,11.2-7.738c0,0,5.314,12.937,8.317,13.394,0,0-9.24,7.281-9.933,9.59S286,443.931,286,443.931Z" transform="translate(-114.595 -156.343)" fill="#4884c2"/>
    <path id="Path_427" data-name="Path 427" d="M186.412,688.484a29.37,29.37,0,0,0-4.367,4.375c-6.962-2.922-11.427-8.872-13.166-11.484l2.677-3.134S191.652,684.713,186.412,688.484Z" transform="translate(-93.07 -205.094)" opacity="0.1"/>
    <path id="Path_428" data-name="Path 428" d="M219.394,610.53s-11.3,15.084-15.426,16.781-34.918,39.415-34.918,39.415,6.619,12.162,18.773,14.161c0,0,6.619-2.62,9.084-8.464S218.8,650.092,218.8,650.092Z" transform="translate(-93.101 -192.65)" fill="#5e5a6b"/>
    <path id="Path_429" data-name="Path 429" d="M219.394,610.53s-11.3,15.084-15.426,16.781-34.918,39.415-34.918,39.415,6.619,12.162,18.773,14.161c0,0,6.619-2.62,9.084-8.464S218.8,650.092,218.8,650.092Z" transform="translate(-93.101 -192.65)" opacity="0.1"/>
    <path id="Path_430" data-name="Path 430" d="M188.81,672.426a48.779,48.779,0,0,0,10.276,0C205.208,671.855,200.588,675.544,188.81,672.426Z" transform="translate(-96.733 -204.014)" opacity="0.1"/>
    <path id="Path_431" data-name="Path 431" d="M185.41,677.25s8.089,4.62,11.207,2.31S193.6,681.788,185.41,677.25Z" transform="translate(-96.108 -204.912)" opacity="0.1"/>
    <path id="Path_432" data-name="Path 432" d="M238.916,716.015a18,18,0,0,0-.433,3.665c-6.244,5.665-13.753,3.91-18.446,1.853,0-3.469-.057-5.9-.057-5.9S241.071,706.4,238.916,716.015Z" transform="translate(-102.461 -211.232)" opacity="0.1"/>
    <path id="Path_433" data-name="Path 433" d="M274.807,470.673l-.237,4.261-1.9,35.783s-1.543,8.007-.922,23.409-8.627,39.717-8.627,39.717-4.465,16.479-5.852,24.021-5.714,9.852-5.714,9.852,1.077,8.472-2,11.427-3.265,7.852-3.265,7.852-4.775,26.478-6.309,29.1-1.388,16.479-1.388,16.479c-10.007,11.852-24.633,1.077-24.633,1.077l.155-37.105s4.155-34.183,7.232-38.958,3.077-17.859,3.077-17.859l-1.363-30.486s-1.094-3.265-.155-5.077-2.636-6.93-2.636-6.93c-8.619-10.472-9.852-34.028-7.346-38.648S222.9,475.5,222.9,475.5l10.3-6.007,18.61.555Z" transform="translate(-100.953 -166.729)" fill="#5e5a6b"/>
    <path id="Path_434" data-name="Path 434" d="M235.35,693.24s2.449,8.432,4.4,9.354S235.35,693.24,235.35,693.24Z" transform="translate(-105.286 -207.85)" opacity="0.1"/>
    <path id="Path_435" data-name="Path 435" d="M239.46,658.86s6.309,4.979,8.978,4.971S239.46,658.86,239.46,658.86Z" transform="translate(-106.041 -201.532)" opacity="0.1"/>
    <path id="Path_436" data-name="Path 436" d="M274.875,390.041v10.2l-6.709-2.889-6.685-2.881-14.553-14.316s-11.509-7.485-17.671-14.3c-3.518-3.885-5.289-7.558-2.187-9.493a19.4,19.4,0,0,0,4.024-3.534,65.716,65.716,0,0,0,8.032-11.843l.286-.522c3-5.493,4.979-10.194,4.979-10.194s8.44,2.71,13.876,6.53c.441.3.857.62,1.249.939,3.028,2.489,4.53,5.363,1.747,8.227a20.077,20.077,0,0,0-1.992,2.375h0a19.787,19.787,0,0,0-1.233,1.951c-.171.294-.326.6-.473.9a20.658,20.658,0,0,0-1.845,12.325Z" transform="translate(-103.47 -141.142)" fill="#ecb4b6"/>
    <path id="Path_437" data-name="Path 437" d="M264.328,345.926a20.079,20.079,0,0,0-1.992,2.375h0a19.793,19.793,0,0,0-1.232,1.951c-.171.294-.327.6-.473.9a24.176,24.176,0,0,1-18.144-9.795c-.1-.139-.2-.269-.286-.408l.286-.522c3-5.493,4.979-10.194,4.979-10.194s8.44,2.71,13.876,6.53c.441.3.857.62,1.249.939C265.609,340.188,267.111,343.1,264.328,345.926Z" transform="translate(-106.545 -141.135)" opacity="0.1"/>
    <path id="Path_438" data-name="Path 438" d="M285.228,319.61a24.234,24.234,0,0,1-24.25,24.25h-.922A24.258,24.258,0,1,1,285.2,319.626Z" transform="translate(-105.53 -134.726)" fill="#ecb4b6"/>
    <path id="Path_439" data-name="Path 439" d="M268.339,393.446s12.243,6.9,9.084,1.077L261.531,371h0l18.087,23.254s11.549,15.859,5.24,26.788c0,0-.922,9.084.155,11.239s-.31,25.1-.31,25.1-4.31-4.008-6.62-3.265-18.634,2.155-18.634,2.155Z" transform="translate(-109.715 -148.628)" opacity="0.1"/>
    <path id="Path_440" data-name="Path 440" d="M283.67,470.787l-.237,4.261c-1.461-1.061-3.493-2.253-4.848-1.8-2.261.767-18.585,2.155-18.585,2.155l.751-5.3Z" transform="translate(-109.816 -166.843)" opacity="0.1"/>
    <path id="Path_441" data-name="Path 441" d="M268.9,393.446s12.243,6.9,9.084,1.077L262.057,371h0l18.087,23.254s11.549,15.859,5.232,26.788c0,0-.922,9.084.155,11.239s-.31,25.1-.31,25.1-4.31-4.008-6.62-3.265S260,456.27,260,456.27Z" transform="translate(-109.816 -148.628)" fill="#464353"/>
    <path id="Path_442" data-name="Path 442" d="M267.054,402.967a84.53,84.53,0,0,1-3.763,16.2s-2.147,21.866-4.9,28.339-1.543,15.394-3.077,31.832c-.555,5.934-2.449,10.007-5.044,12.757-4.244,4.522-10.292,5.469-15.076,5.191l-1.135-.09c-7.7-.767-15.084-37.872-15.084-37.872s-3.542-31.563-2.155-35.873-1.388-28.951-2.31-34.338c-.588-3.412,1.175-8.978,2.547-12.627.816-2.09,1.453-3.542,1.453-3.542s2.62-8.309,6.93-12.619a6.342,6.342,0,0,1,4.571-1.918,11.329,11.329,0,0,1,5.714,1.788l.2.131s28.021,28.633,30.633,35.252A17.531,17.531,0,0,1,267.054,402.967Z" transform="translate(-101.435 -146.314)" opacity="0.1"/>
    <path id="Path_443" data-name="Path 443" d="M265.924,402.375a84.511,84.511,0,0,1-3.763,16.21s-2.155,21.866-4.9,28.331-1.543,15.394-3.085,31.832c-.547,5.926-2.449,10-5.044,12.757-4.236,4.522-10.284,5.461-15.067,5.183a10.289,10.289,0,0,1-1.135-.09c-7.7-.767-15.084-37.872-15.084-37.872s-3.542-31.563-2.155-35.873-1.388-28.943-2.31-34.338c-.588-3.412,1.175-8.978,2.547-12.619.816-2.1,1.453-3.542,1.453-3.542s2.62-8.317,6.93-12.627a6.342,6.342,0,0,1,4.563-1.918,11.427,11.427,0,0,1,5.714,1.788l.2.131s28.021,28.641,30.633,35.26A17.99,17.99,0,0,1,265.924,402.375Z" transform="translate(-101.228 -146.204)" fill="#4884c2"/>
    <path id="Path_444" data-name="Path 444" d="M237.319,550.49s-6.35,5.665-8.546,5.428S237.319,550.49,237.319,550.49Z" transform="translate(-104.023 -181.615)" opacity="0.1"/>
    <path id="Path_445" data-name="Path 445" d="M239.352,557.13a86.885,86.885,0,0,1-8.693,3.575C228.66,561.17,236.773,556.33,239.352,557.13Z" transform="translate(-104.366 -182.819)" opacity="0.1"/>
    <path id="Path_446" data-name="Path 446" d="M273.13,452.968s9.925.114,11.427,3.265S276.362,451.711,273.13,452.968Z" transform="translate(-112.229 -163.666)" opacity="0.1"/>
    <path id="Path_447" data-name="Path 447" d="M271.43,459.67s7.623,1.632,9.925,3.461S271.43,459.67,271.43,459.67Z" transform="translate(-111.917 -164.924)" opacity="0.1"/>
    <path id="Path_448" data-name="Path 448" d="M254.559,436.61s-.922,31.335-4.334,35.334S254.559,436.61,254.559,436.61Z" transform="translate(-107.86 -160.686)" opacity="0.1"/>
    <path id="Path_449" data-name="Path 449" d="M244.9,544.531s-6.342,27.6,6.407,29.327,8.831-31.408,8.831-31.408Z" transform="translate(-106.752 -180.137)" opacity="0.1"/>
    <path id="Path_450" data-name="Path 450" d="M244.335,543.941s-6.342,27.6,6.415,29.335,8.823-31.416,8.823-31.416Z" transform="translate(-106.648 -180.029)" fill="#ecb4b6"/>
    <path id="Path_451" data-name="Path 451" d="M250.917,399.219c-.653-16.585-23.866-20.014-29.278-4.326l-.114.318c-3.534,10.611-2,37.546-2,37.546s.465,18.063,2.155,24.062,6.464,23.254,6.464,26.021,4.424,13.394,6.293,14.169,2.808,6.775,3.265,7.852,1.837,15.084,1.837,15.084,17.4-1.078,17.712-3.844-3.853-16.324-3.853-16.324-3.069-5.542-3.461-10.007-2.849-6.464-2.392-9.542-1.388-4.62-1.388-6.628a49.159,49.159,0,0,0-1.379-7.387s-2.93-2.31-2.449-5.077-4.155-8.317-2.922-10.317,1.534-6.93,1.534-6.93,1.526-22.2,2.579-28.2,7.346-15.7,7.346-15.7A3.226,3.226,0,0,0,250.917,399.219Z" transform="translate(-102.317 -151.16)" opacity="0.1"/>
    <path id="Path_452" data-name="Path 452" d="M249.783,496.4c-4.236,4.522-10.284,5.46-15.067,5.183-.547-2.1-1.355-4.677-2.538-5.167-1.869-.767-6.293-11.427-6.293-14.161s-4.775-20.022-6.464-26.021-2.155-24.038-2.155-24.038-1.543-26.935,2-37.546c.041-.106.073-.212.106-.326,5.42-15.688,28.625-12.243,29.286,4.334v.759s-6.318,9.7-7.346,15.7-2.62,28.176-2.62,28.176-.31,4.9-1.543,6.93,3.387,7.55,2.93,10.317,2.449,5.085,2.449,5.085a48.9,48.9,0,0,1,1.388,7.387c0,2.008,1.845,3.542,1.388,6.619s2,5.077,2.392,9.55a25.041,25.041,0,0,0,2.09,7.215Z" transform="translate(-101.901 -151.057)" opacity="0.1"/>
    <path id="Path_453" data-name="Path 453" d="M249.786,398.658c-.661-16.585-23.866-20.022-29.286-4.326a.976.976,0,0,1-.106.318c-3.542,10.611-2,37.546-2,37.546s.465,18.055,2.155,24.062,6.44,23.221,6.44,26,4.424,13.394,6.293,14.161,2.808,6.775,3.265,7.852,1.869,15.092,1.869,15.092,17.4-1.077,17.7-3.852-3.844-16.324-3.844-16.324-3.069-5.542-3.461-10.007-2.857-6.473-2.392-9.55-1.388-4.62-1.388-6.619a49.538,49.538,0,0,0-1.379-7.395s-2.93-2.31-2.449-5.077-4.163-8.317-2.93-10.317,1.543-6.93,1.543-6.93,1.543-22.168,2.62-28.176,7.346-15.7,7.346-15.7A2.521,2.521,0,0,0,249.786,398.658Z" transform="translate(-102.109 -151.057)" fill="#4884c2"/>
    <path id="Path_454" data-name="Path 454" d="M221.91,452.475c.465-.465,9.24-10.162,12.015-6.693S221.91,452.475,221.91,452.475Z" transform="translate(-102.816 -162.234)" opacity="0.1"/>
    <path id="Path_455" data-name="Path 455" d="M222.9,461.845c.351-.351,8.774-.694,10.856-5.428S222.9,461.845,222.9,461.845Z" transform="translate(-102.998 -164.095)" opacity="0.1"/>
    <g id="Group_41" data-name="Group 41" transform="translate(108.545 170.543)" opacity="0.1">
      <path id="Path_456" data-name="Path 456" d="M210.736,358.164a2.375,2.375,0,0,1,.465.816,3.616,3.616,0,0,0-.465-3.151c-.408-.465-1.012-.751-1.379-1.249,0-.041-.049-.09-.082-.131a2.449,2.449,0,0,0,.082,2.449C209.724,357.437,210.328,357.715,210.736,358.164Z" transform="translate(-208.986 -316.129)"/>
      <path id="Path_457" data-name="Path 457" d="M225.327,319.629c0-.873.041-1.747,0-2.612-.155-3.142-.743-6.366-.873-9.517-.188,3.861.677,7.909.873,11.827Z" transform="translate(-211.824 -307.5)"/>
    </g>
    <path id="Path_458" data-name="Path 458" d="M325.561,412.777l.473.326a1.9,1.9,0,0,1-.49-2.645l21.4-31.065a1.91,1.91,0,0,1,2.653-.49l-.482-.327a3.061,3.061,0,0,1,.816,4.253l-20.1,29.163a3.045,3.045,0,0,1-4.277.784Z" transform="translate(-121.801 -150.019)" fill="#464353"/>
    <path id="Path_459" data-name="Path 459" d="M1.4,0H2V41.529H1.42A1.42,1.42,0,0,1,0,40.109V1.42A1.42,1.42,0,0,1,1.4,0Z" transform="translate(226.268 227.82) rotate(34.56)" fill="#9f9eff"/>
    <rect id="Rectangle_97" data-name="Rectangle 97" width="0.383" height="3.383" rx="0.17" transform="matrix(0.821, 0.571, -0.571, 0.821, 222.839, 232.913)" fill="#464353"/>
    <path id="Path_460" data-name="Path 460" d="M281.878,314.269c-.343-1.632-1.7-2.881-2.628-4.285-2.334-3.518-1.967-8.162-.873-12.243a8.734,8.734,0,0,0,.49-3.469,5.468,5.468,0,0,0-2.571-3.6c-2.857-1.885-6.53-1.91-9.746-3.093-4.669-1.73-8.9-5.991-13.77-4.954-2.661.563-4.71,2.62-7.011,4.081a16.855,16.855,0,0,1-8.464,2.6c-2.522.073-5.077-.416-7.558,0a6.74,6.74,0,0,0-1.306.359,19.3,19.3,0,0,0-6.53-1.053,11.076,11.076,0,0,0-6.187,1.722c-3.355,2.367-4.244,6.946-4.2,11.052s.743,8.325-.514,12.243c-1.559,4.9-5.967,8.57-6.848,13.6-.612,3.412.522,6.864,1.526,10.186,2.889,9.542,4.8,20.087.963,29.294-.971,2.334-2.449,4.644-4.726,5.714l8.162-.473a4.432,4.432,0,0,1-3.714,5.036,18.9,18.9,0,0,0,5.975-1.363,6.391,6.391,0,0,0,3.763-4.563,24.839,24.839,0,0,1,.229-3.314c.531-1.828,2.449-2.84,3.926-4.008,3.975-3.093,5.852-8.309,6.007-13.345s-1.184-9.99-2.612-14.822-2.963-9.7-3.191-14.692a19.131,19.131,0,0,1,.506-5.485c.294.547.62,1.086.955,1.592,1.967,3,4.269,5.852,5.477,9.231a25.906,25.906,0,0,0,1.714,4.644,4.255,4.255,0,0,0,4.04,2.359c1.641-.253,2.865-2.016,3.4-3.7s.775-3.518,1.8-4.954c1.943-2.71,5.82-2.955,9.15-2.857,7.019.22,16.7,1.29,22.193-4.081,1.045-1.02,1.543-2.587,3.175-2.2,1.461.343,2.277,2.718,3.836,3.265C279.226,319.476,282.466,317.093,281.878,314.269Z" transform="translate(-99.144 -132.356)" opacity="0.1"/>
    <path id="Path_461" data-name="Path 461" d="M281.878,313.169c-.343-1.632-1.7-2.881-2.628-4.285-2.334-3.518-1.967-8.162-.873-12.243a8.734,8.734,0,0,0,.49-3.469,5.468,5.468,0,0,0-2.571-3.6c-2.857-1.885-6.53-1.91-9.746-3.093-4.669-1.73-8.9-5.991-13.77-4.954-2.661.563-4.71,2.62-7.011,4.081a16.855,16.855,0,0,1-8.464,2.6c-2.522.073-5.077-.416-7.558,0a6.742,6.742,0,0,0-1.306.359,19.3,19.3,0,0,0-6.53-1.053,11.076,11.076,0,0,0-6.187,1.722c-3.355,2.367-4.244,6.946-4.2,11.052s.743,8.325-.514,12.243c-1.559,4.857-5.967,8.57-6.848,13.6-.612,3.412.522,6.864,1.526,10.186,2.889,9.542,4.8,20.087.963,29.294-.971,2.334-2.449,4.644-4.726,5.714l8.162-.482a4.432,4.432,0,0,1-3.714,5.036,18.894,18.894,0,0,0,5.975-1.363,6.391,6.391,0,0,0,3.763-4.563,24.839,24.839,0,0,1,.229-3.314c.531-1.828,2.449-2.84,3.926-4.008,3.975-3.093,5.852-8.309,6.007-13.345s-1.184-9.99-2.612-14.822-2.963-9.7-3.191-14.733a19.131,19.131,0,0,1,.506-5.485c.294.547.62,1.086.955,1.632,1.967,3,4.269,5.852,5.477,9.231a25.906,25.906,0,0,0,1.714,4.644,4.255,4.255,0,0,0,4.04,2.359c1.641-.253,2.865-2.016,3.4-3.7s.775-3.518,1.8-4.954c1.943-2.71,5.82-2.955,9.15-2.857,7.019.22,16.7,1.29,22.193-4.081,1.045-1.02,1.543-2.587,3.175-2.2,1.461.343,2.277,2.718,3.836,3.265C279.226,318.376,282.466,315.993,281.878,313.169Z" transform="translate(-99.144 -132.154)" fill="#464353"/>
    <g id="Group_42" data-name="Group 42" transform="translate(102.778 160.405)" opacity="0.1">
      <path id="Path_462" data-name="Path 462" d="M213.686,302.62c0,.531-.041,1.069,0,1.592,0,1.714.147,3.444.2,5.167C213.939,307.15,213.759,304.873,213.686,302.62Z" transform="translate(-204.079 -296.466)"/>
      <path id="Path_463" data-name="Path 463" d="M209.2,362.891c.212-6.342-1.232-12.888-3.085-19.026a36.358,36.358,0,0,1-1.632-6.775c-.343,3.183.677,6.383,1.632,9.468a65.534,65.534,0,0,1,3.085,16.332Z" transform="translate(-202.379 -302.801)"/>
      <path id="Path_464" data-name="Path 464" d="M294.6,303.634a24.227,24.227,0,0,1,.816-4.473,8.734,8.734,0,0,0,.49-3.469,3.723,3.723,0,0,0-.147-.612c-.1.465-.22.931-.343,1.4A21.1,21.1,0,0,0,294.6,303.634Z" transform="translate(-218.947 -295.08)"/>
      <path id="Path_465" data-name="Path 465" d="M210.033,387.69l-4.9.286a8.162,8.162,0,0,1-3.216,2.889l7.672-.457A4.081,4.081,0,0,0,210.033,387.69Z" transform="translate(-201.92 -312.1)"/>
      <path id="Path_466" data-name="Path 466" d="M285.823,319.257a4.252,4.252,0,0,1-5,2.334c-1.559-.53-2.375-2.906-3.836-3.265-1.632-.384-2.13,1.184-3.175,2.2-5.493,5.4-15.173,4.326-22.193,4.081-3.33-.1-7.207.147-9.15,2.857-1.02,1.437-1.249,3.265-1.8,4.954s-1.632,3.428-3.4,3.7a4.133,4.133,0,0,1-4.04-2.359,25.905,25.905,0,0,1-1.714-4.644c-1.208-3.379-3.51-6.228-5.477-9.231-.335-.506-.661-1.045-.955-1.592a19.13,19.13,0,0,0-.506,5.485q0,.2,0,.392a17.214,17.214,0,0,1,.473-3.183c.294.547.62,1.086.955,1.632,1.967,3,4.269,5.852,5.477,9.231a25.91,25.91,0,0,0,1.714,4.644,4.255,4.255,0,0,0,4.04,2.359c1.641-.253,2.865-2.016,3.4-3.7s.775-3.518,1.8-4.954c1.943-2.71,5.82-2.955,9.15-2.857,7.019.22,16.7,1.29,22.193-4.081,1.045-1.02,1.543-2.587,3.175-2.2,1.461.343,2.277,2.718,3.836,3.265,2.563.873,5.8-1.51,5.216-4.334a3.809,3.809,0,0,0-.18-.735Z" transform="translate(-206.079 -299.341)"/>
      <path id="Path_467" data-name="Path 467" d="M221.2,374.734c-1.5,1.167-3.4,2.179-3.926,4.008a24.834,24.834,0,0,0-.229,3.314,6.391,6.391,0,0,1-3.763,4.563,11.823,11.823,0,0,1-2.343.816,4.44,4.44,0,0,1-3.632,3.265,18.9,18.9,0,0,0,5.975-1.363,6.391,6.391,0,0,0,3.763-4.563,24.831,24.831,0,0,1,.229-3.314c.531-1.828,2.449-2.84,3.926-4.008,3.975-3.093,5.852-8.309,6.007-13.345V361.87C226.924,366.735,225.063,371.771,221.2,374.734Z" transform="translate(-202.911 -307.355)"/>
    </g>
  </g>
</svg>
