<svg xmlns="http://www.w3.org/2000/svg" width="715.468" height="748.746" viewBox="0 0 715.468 748.746">
  <g id="undraw_nature_m5ll" transform="translate(22.862 0)">
    <circle id="Ellipse_1" data-name="Ellipse 1" cx="75.365" cy="75.365" r="75.365" transform="translate(410.024 177.125)" fill="#ff9700"/>
    <path id="Path_1" data-name="Path 1" d="M945.818,384.315c.166-.03.291-.146.485-.117a6.418,6.418,0,0,0-.33-.954l-.7.953Z" transform="translate(-253.697 -75.633)" fill="#fff"/>
    <path id="Path_2" data-name="Path 2" d="M440.33,506.5a175.147,175.147,0,0,0,8.182,48.416c.114.364.233.722.353,1.086H479.4c-.033-.326-.065-.69-.1-1.086-2.036-23.4-13.773-165.851.261-190.21C478.333,366.68,437.963,432.132,440.33,506.5Z" transform="translate(-253.697 -75.633)" fill="#e6e6e6"/>
    <path id="Path_3" data-name="Path 3" d="M442.621,554.914c.255.364.521.727.793,1.086h22.9c-.174-.309-.375-.673-.608-1.086-3.784-6.83-14.984-27.248-25.381-48.416-11.173-22.747-21.423-46.358-20.56-54.9C419.5,453.522,411.773,512.275,442.621,554.914Z" transform="translate(-253.697 -75.633)" fill="#e6e6e6"/>
    <path id="Path_4" data-name="Path 4" d="M680.636,558.829a152.69,152.69,0,0,1-7.133,42.21c-.1.317-.2.629-.308.947H646.577c.028-.284.057-.6.085-.947,1.775-20.4,12.008-144.591-.227-165.828C647.5,436.934,682.7,494,680.636,558.829Z" transform="translate(-253.697 -75.633)" fill="#e6e6e6"/>
    <path id="Path_5" data-name="Path 5" d="M678.638,601.039c-.222.317-.454.634-.691.947H657.979c.151-.27.327-.587.53-.947,3.3-5.954,13.063-23.755,22.127-42.21,9.741-19.832,18.677-40.416,17.924-47.866C698.792,512.644,705.532,563.865,678.638,601.039Z" transform="translate(-253.697 -75.633)" fill="#e6e6e6"/>
    <path id="Path_6" data-name="Path 6" d="M376.281,136.806l12.414-9.928c-9.643-1.064-13.606,4.2-15.227,8.358-7.534-3.128-15.735.972-15.735.972l24.837,9.017a18.8,18.8,0,0,0-6.288-8.418Z" transform="translate(-253.697 -75.633)" fill="#3f3d56"/>
    <path id="Path_7" data-name="Path 7" d="M750.165,85.7l12.414-9.928c-9.643-1.064-13.606,4.2-15.227,8.358-7.534-3.128-15.735.972-15.735.972l24.837,9.017a18.8,18.8,0,0,0-6.288-8.418Z" transform="translate(-253.697 -75.633)" fill="#3f3d56"/>
    <path id="Path_8" data-name="Path 8" d="M932.807,478.323q0,12.34-.86,24.478a344.113,344.113,0,0,1-63.923,177.14q-7.324,10.222-15.381,19.871a347.511,347.511,0,0,1-46.153,45.846l-73.571-43.17L688.931,599.82S754.563,466.933,932.69,469.342Q932.8,473.817,932.807,478.323Z" transform="translate(-253.697 -75.633)" fill="#3f3d56"/>
    <path id="Path_9" data-name="Path 9" d="M931.947,502.8A346.076,346.076,0,0,1,802.658,748.768l-68.349-40.1L695.3,617.611S758.511,489.628,931.947,502.8Z" transform="translate(-253.697 -75.633)" fill="#4884c2"/>
    <path id="Path_10" data-name="Path 10" d="M868.025,679.941q-7.324,10.222-15.381,19.871a346.169,346.169,0,0,1-133.98,98.527q-15.795,6.512-32.333,11.485a378.837,378.837,0,0,1-240.246-15.253A347.292,347.292,0,0,1,274.114,626.824q-7.165-15.063-12.886-30.889C327.751,547.2,458.834,477.42,601.7,545.228q59.278,28.135,105.861,51.291C786.365,635.582,838.813,663.743,868.025,679.941Z" transform="translate(-253.697 -75.633)" fill="#3f3d56"/>
    <path id="Path_11" data-name="Path 11" d="M852.644,699.812a346.28,346.28,0,0,1-578.53-72.987c55.558-43.935,183.7-122.888,324.326-56.153q54.247,25.746,96.86,46.939C778.117,658.658,829.132,686.554,852.644,699.812Z" transform="translate(-253.697 -75.633)" fill="#4884c2"/>
    <path id="Path_12" data-name="Path 12" d="M754.584,781.026a349.553,349.553,0,0,1-35.921,17.313A346.411,346.411,0,0,1,310.544,686.8C393.191,678.083,621.644,666.333,754.584,781.026Z" transform="translate(-253.697 -75.633)" fill="#3f3d56"/>
    <path id="Path_13" data-name="Path 13" d="M718.663,798.339A346.418,346.418,0,0,1,334.7,715.416C364.765,711,600.775,680.674,718.663,798.339Z" transform="translate(-253.697 -75.633)" fill="#4884c2"/>
    <path id="Path_14" data-name="Path 14" d="M874.765,286.428v.011c-247.092-182.692-530.19-54.1-532.376-53.117v-.011A345,345,0,0,1,586.764,132.279C706.892,132.279,812.721,193.495,874.765,286.428Z" transform="translate(-253.697 -75.633)" fill="#e6e6e6"/>
    <path id="Path_20" data-name="Path 20" d="M76.906,0c42.474,0,76.906,70.255,76.906,156.919S119.38,313.838,76.906,313.838,0,243.583,0,156.919,34.432,0,76.906,0Z" transform="translate(-22.862 114.184) rotate(-10.221)" fill="#26b66e"/>
    <path id="Path_15" data-name="Path 15" d="M372.949,584.638C370.471,397.3,307.791,221.5,307.158,219.745l-5.716,2.062c.63,1.744,62.966,176.627,65.431,362.913Z" transform="translate(-253.697 -75.633)" fill="#4884c2"/>
    <rect id="Rectangle_6" data-name="Rectangle 6" width="6.078" height="78.867" transform="translate(6.175 239.56) rotate(-72.079)" fill="#4884c2"/>
    <rect id="Rectangle_7" data-name="Rectangle 7" width="78.87" height="6.078" transform="translate(87.374 276.227) rotate(-38.378)" fill="#4884c2"/>
    <path id="Path_19" data-name="Path 19" d="M83.219,0c45.961,0,83.219,76.022,83.219,169.8S129.18,339.6,83.219,339.6,0,263.579,0,169.8,37.259,0,83.219,0Z" transform="translate(226.28 42.788)" fill="#26b66e"/>
    <path id="Path_16" data-name="Path 16" d="M555.512,566.159c33.33-199.975.336-399.227,0-401.215l-6.483,1.1c.336,1.978,33.141,200.183,0,399.037Z" transform="translate(-253.697 -75.633)" fill="#4884c2"/>
    <rect id="Rectangle_8" data-name="Rectangle 8" width="6.577" height="85.341" transform="translate(233.129 181.878) rotate(-61.858)" fill="#4884c2"/>
    <rect id="Rectangle_9" data-name="Rectangle 9" width="85.344" height="6.577" transform="translate(312.56 236.516) rotate(-28.158)" fill="#4884c2"/>
    <path id="Path_17" data-name="Path 17" d="M924.676,403.4A634.413,634.413,0,0,0,829.3,359.8c-182.14-65.908-362.751-40.506-433.446,53.817,55.017-115.553,251.327-151.888,449.432-80.206a646.933,646.933,0,0,1,67.585,28.872A343.563,343.563,0,0,1,924.676,403.4Z" transform="translate(-253.697 -75.633)" fill="#e6e6e6"/>
    <path id="Path_18" data-name="Path 18" d="M678.684,217.456l12.414-9.928c-9.643-1.064-13.606,4.2-15.227,8.358-7.534-3.128-15.735.971-15.735.971l24.837,9.017A18.8,18.8,0,0,0,678.684,217.456Z" transform="translate(-253.697 -75.633)" fill="#3f3d56"/>
  </g>
</svg>
