<svg xmlns="http://www.w3.org/2000/svg" width="730.964" height="610" viewBox="0 0 730.964 610">
  <g id="undraw_shopping_app_flsj" transform="translate(0 0)">
    <path id="Path_78" data-name="Path 78" d="M457.19,223.018h-3.319V132.1a52.622,52.622,0,0,0-52.622-52.622H208.622A52.622,52.622,0,0,0,156,132.1v498.8a52.622,52.622,0,0,0,52.622,52.622H401.249a52.622,52.622,0,0,0,52.622-52.622V287.737h3.319Z" transform="translate(-156 -79.476)" fill="#e6e6e6"/>
    <path id="Path_79" data-name="Path 79" d="M406.492,96.107H381.348a18.67,18.67,0,0,1-17.286,25.721H253.709a18.67,18.67,0,0,1-17.286-25.721H212.938a39.3,39.3,0,0,0-39.3,39.3V633.469a39.3,39.3,0,0,0,39.3,39.3H406.492a39.3,39.3,0,0,0,39.3-39.3V135.405a39.3,39.3,0,0,0-39.3-39.3Z" transform="translate(-159.12 -82.417)" fill="#fff"/>
    <path id="Path_80" data-name="Path 80" d="M266.86,219.111H255.3a1.532,1.532,0,0,0-1.532,1.532v5.073a1.532,1.532,0,0,0,1.532,1.532h1.915v7.6h7.726v-7.6h1.915a1.532,1.532,0,0,0,1.532-1.532v-5.072A1.532,1.532,0,0,0,266.86,219.111Z" transform="translate(-173.29 -104.169)" fill="#e6e6e6"/>
    <path id="Path_81" data-name="Path 81" d="M276.15,267.2a59.414,59.414,0,0,1-10.336-35.226,1.253,1.253,0,0,0-.978-1.25v-2.192h-12.2v2.161h-.168a1.252,1.252,0,0,0-1.251,1.254q0,.046,0,.091a54.222,54.222,0,0,1-9.741,36.061,3.451,3.451,0,0,0-.625,2.092l1.335,41.282a3.574,3.574,0,0,0,3.543,3.449h27.606a3.575,3.575,0,0,0,3.545-3.51l.514-40.082A7.234,7.234,0,0,0,276.15,267.2Z" transform="translate(-171.005 -105.835)" fill="#e6e6e6"/>
    <path id="Path_82" data-name="Path 82" d="M272.733,292.166H248.7a2.467,2.467,0,0,0-2.438,2.842l3.631,23.6h20.851l4.411-23.523a2.467,2.467,0,0,0-2.425-2.922Z" transform="translate(-171.958 -117.088)" fill="#fff"/>
    <path id="Path_83" data-name="Path 83" d="M423.145,369.345H411.588a1.532,1.532,0,0,0-1.532,1.532v5.073a1.532,1.532,0,0,0,1.532,1.532H413.5v7.6h7.726v-7.6h1.915a1.532,1.532,0,0,0,1.532-1.532v-5.073a1.532,1.532,0,0,0-1.532-1.532Z" transform="translate(-200.928 -130.737)" fill="#e6e6e6"/>
    <path id="Path_84" data-name="Path 84" d="M432.435,417.435A59.414,59.414,0,0,1,422.1,382.209a1.253,1.253,0,0,0-.978-1.25v-2.191H408.915v2.161h-.168a1.252,1.252,0,0,0-1.251,1.254q0,.046,0,.091a54.222,54.222,0,0,1-9.741,36.061,3.451,3.451,0,0,0-.625,2.092l1.335,41.282a3.574,3.574,0,0,0,3.543,3.449h27.606a3.575,3.575,0,0,0,3.545-3.51l.514-40.082a7.234,7.234,0,0,0-1.243-4.131Z" transform="translate(-198.642 -132.403)" fill="#e6e6e6"/>
    <path id="Path_85" data-name="Path 85" d="M429.018,442.4h-24.03a2.467,2.467,0,0,0-2.438,2.842l3.631,23.6h20.851l4.411-23.523a2.467,2.467,0,0,0-2.425-2.922Z" transform="translate(-199.595 -143.656)" fill="#fff"/>
    <path id="Path_86" data-name="Path 86" d="M248.6,581.733h-5.482a.727.727,0,0,0-.727.727v2.406a.727.727,0,0,0,.727.727h.908V589.2h3.665v-3.605h.908a.727.727,0,0,0,.727-.727V582.46a.727.727,0,0,0-.727-.727Z" transform="translate(-171.278 -168.296)" fill="#e6e6e6"/>
    <path id="Path_87" data-name="Path 87" d="M253.008,604.544a28.183,28.183,0,0,1-4.9-16.709.594.594,0,0,0-.464-.593V586.2h-5.789v1.025h-.08a.594.594,0,0,0-.593.595c0,.014,0,.029,0,.043a25.72,25.72,0,0,1-4.62,17.105,1.637,1.637,0,0,0-.3.992l.633,19.582a1.7,1.7,0,0,0,1.681,1.636h13.095a1.7,1.7,0,0,0,1.682-1.665L253.6,606.5A3.431,3.431,0,0,0,253.008,604.544Z" transform="translate(-170.194 -169.086)" fill="#e6e6e6"/>
    <rect id="Rectangle_21" data-name="Rectangle 21" width="12.495" height="6.247" transform="translate(68.435 442.656)" fill="#fff"/>
    <path id="Path_88" data-name="Path 88" d="M279.6,581.733h-5.482a.727.727,0,0,0-.727.727v2.406a.727.727,0,0,0,.727.727h.908V589.2h3.665v-3.605h.908a.727.727,0,0,0,.727-.727V582.46A.727.727,0,0,0,279.6,581.733Z" transform="translate(-176.76 -168.296)" fill="#e6e6e6"/>
    <path id="Path_89" data-name="Path 89" d="M284.008,604.544a28.183,28.183,0,0,1-4.9-16.709.594.594,0,0,0-.464-.593V586.2h-5.789v1.025h-.08a.594.594,0,0,0-.593.595c0,.014,0,.029,0,.043a25.72,25.72,0,0,1-4.621,17.105,1.637,1.637,0,0,0-.3.992l.633,19.582a1.7,1.7,0,0,0,1.681,1.636h13.095a1.7,1.7,0,0,0,1.682-1.665L284.6,606.5A3.431,3.431,0,0,0,284.008,604.544Z" transform="translate(-175.676 -169.086)" fill="#e6e6e6"/>
    <rect id="Rectangle_22" data-name="Rectangle 22" width="12.495" height="6.247" transform="translate(93.953 442.656)" fill="#fff"/>
    <path id="Path_90" data-name="Path 90" d="M310.6,581.733h-5.482a.727.727,0,0,0-.727.727v2.406a.727.727,0,0,0,.727.727h.908V589.2h3.665v-3.605h.908a.727.727,0,0,0,.727-.727V582.46A.727.727,0,0,0,310.6,581.733Z" transform="translate(-182.242 -168.296)" fill="#e6e6e6"/>
    <path id="Path_91" data-name="Path 91" d="M315.008,604.544a28.183,28.183,0,0,1-4.9-16.709.594.594,0,0,0-.464-.593V586.2h-5.789v1.025h-.08a.594.594,0,0,0-.593.595c0,.014,0,.029,0,.043a25.72,25.72,0,0,1-4.62,17.105,1.637,1.637,0,0,0-.3.992l.633,19.582a1.7,1.7,0,0,0,1.681,1.636h13.095a1.7,1.7,0,0,0,1.682-1.665L315.6,606.5A3.431,3.431,0,0,0,315.008,604.544Z" transform="translate(-181.158 -169.086)" fill="#e6e6e6"/>
    <rect id="Rectangle_23" data-name="Rectangle 23" width="12.495" height="6.247" transform="translate(119.471 442.656)" fill="#fff"/>
    <path id="Path_92" data-name="Path 92" d="M398.755,523.613H387.2a1.532,1.532,0,0,0-1.532,1.532v5.073a1.532,1.532,0,0,0,1.532,1.532h1.915v7.6h7.726v-7.6h1.915a1.532,1.532,0,0,0,1.532-1.532v-5.073A1.532,1.532,0,0,0,398.755,523.613Z" transform="translate(-196.615 -158.018)" fill="#e6e6e6"/>
    <path id="Path_93" data-name="Path 93" d="M408.045,571.7a59.414,59.414,0,0,1-10.336-35.226,1.253,1.253,0,0,0-.978-1.25v-2.192h-12.2V535.2h-.168a1.252,1.252,0,0,0-1.251,1.254q0,.046,0,.091a54.222,54.222,0,0,1-9.741,36.061,3.451,3.451,0,0,0-.625,2.092l1.335,41.282a3.574,3.574,0,0,0,3.543,3.449h27.606a3.575,3.575,0,0,0,3.545-3.51l.514-40.082a7.234,7.234,0,0,0-1.244-4.13Z" transform="translate(-194.329 -159.684)" fill="#e6e6e6"/>
    <path id="Path_94" data-name="Path 94" d="M404.628,596.668H380.6a2.467,2.467,0,0,0-2.438,2.842l3.631,23.6h20.851l4.411-23.523a2.467,2.467,0,0,0-2.425-2.922Z" transform="translate(-195.282 -170.937)" fill="#fff"/>
    <path id="Path_95" data-name="Path 95" d="M394.432,320.324H325.544c4.816-26.039,3.708-57.483,0-91.3h68.888C390.823,262.842,389.744,294.285,394.432,320.324Z" transform="translate(-185.983 -105.923)" fill="#e6e6e6"/>
    <circle id="Ellipse_19" data-name="Ellipse 19" cx="16.6" cy="16.6" r="16.6" transform="translate(157.821 149.664)" fill="#fff"/>
    <path id="Path_96" data-name="Path 96" d="M317.8,467.534H248.914c4.816-26.039,3.708-57.483,0-91.3H317.8C314.193,410.052,313.115,441.5,317.8,467.534Z" transform="translate(-172.431 -131.956)" fill="#e6e6e6"/>
    <circle id="Ellipse_20" data-name="Ellipse 20" cx="16.6" cy="16.6" r="16.6" transform="translate(94.742 270.841)" fill="#fff"/>
    <path id="Path_97" data-name="Path 97" d="M441.821,327.382H372.933c4.816-26.039,3.708-57.483,0-91.3h68.888C438.212,269.9,437.134,301.343,441.821,327.382Z" transform="translate(-194.363 -107.171)" fill="#e6e6e6"/>
    <circle id="Ellipse_21" data-name="Ellipse 21" cx="16.6" cy="16.6" r="16.6" transform="translate(196.83 155.473)" fill="#fff"/>
    <path id="Path_98" data-name="Path 98" d="M441.821,322.341H372.933c4.816-26.039,3.708-57.483,0-91.3h68.888C438.212,264.859,437.134,296.3,441.821,322.341Z" transform="translate(-194.363 -106.279)" fill="#e6e6e6"/>
    <circle id="Ellipse_22" data-name="Ellipse 22" cx="16.6" cy="16.6" r="16.6" transform="translate(196.83 151.323)" fill="#fff"/>
    <path id="Path_99" data-name="Path 99" d="M441.821,327.382H372.933c4.816-26.039,3.708-57.483,0-91.3h68.888C438.212,269.9,437.134,301.343,441.821,327.382Z" transform="translate(-194.363 -107.171)" fill="#e6e6e6"/>
    <circle id="Ellipse_23" data-name="Ellipse 23" cx="16.6" cy="16.6" r="16.6" transform="translate(196.83 155.473)" fill="#fff"/>
    <rect id="Rectangle_24" data-name="Rectangle 24" width="225.754" height="24.899" transform="translate(37.474 209.422)" fill="#e6e6e6"/>
    <rect id="Rectangle_25" data-name="Rectangle 25" width="225.754" height="24.899" transform="translate(37.474 333.088)" fill="#e6e6e6"/>
    <rect id="Rectangle_26" data-name="Rectangle 26" width="225.754" height="24.899" transform="translate(37.474 456.756)" fill="#e6e6e6"/>
    <path id="Path_100" data-name="Path 100" d="M940.772,732.516l-56.242-39.78c18.969-18.478,36.221-44.789,52.72-74.538l56.242,39.78C971.018,683.5,951.98,708.55,940.772,732.516Z" transform="translate(-284.835 -174.745)" fill="#4884c2"/>
    <circle id="Ellipse_24" data-name="Ellipse 24" cx="16.6" cy="16.6" r="16.6" transform="translate(639.353 482.219)" fill="#fff"/>
    <path id="Path_101" data-name="Path 101" d="M621.76,536.554h-6.174a.819.819,0,0,0-.818.818v2.71a.819.819,0,0,0,.818.819h1.023v4.06h4.128V540.9h1.023a.818.818,0,0,0,.818-.818v-2.71a.818.818,0,0,0-.818-.819Z" transform="translate(-237.129 -160.306)" fill="#e6e6e6"/>
    <path id="Path_102" data-name="Path 102" d="M626.722,562.244a31.74,31.74,0,0,1-5.522-18.818.669.669,0,0,0-.522-.668v-1.171h-6.52v1.155h-.09a.669.669,0,0,0-.668.67q0,.024,0,.049a28.966,28.966,0,0,1-5.2,19.264,1.843,1.843,0,0,0-.334,1.117l.713,22.054a1.909,1.909,0,0,0,1.893,1.843h14.748a1.91,1.91,0,0,0,1.894-1.875l.275-21.412A3.864,3.864,0,0,0,626.722,562.244Z" transform="translate(-235.908 -161.196)" fill="#4884c2"/>
    <path id="Path_103" data-name="Path 103" d="M620.94,537.627a1.766,1.766,0,0,1-3.532,0" transform="translate(-237.596 -160.496)" opacity="0.2"/>
    <rect id="Rectangle_27" data-name="Rectangle 27" width="12.45" height="8.3" transform="translate(375.493 405.297)" fill="#fff"/>
    <path id="Path_104" data-name="Path 104" d="M857.79,641.218H846.234a1.532,1.532,0,0,0-1.532,1.532v5.072a1.532,1.532,0,0,0,1.532,1.532h1.915v7.6h7.726v-7.6h1.915a1.532,1.532,0,0,0,1.532-1.532V642.75a1.532,1.532,0,0,0-1.532-1.532Z" transform="translate(-277.791 -178.815)" fill="#e6e6e6"/>
    <path id="Path_105" data-name="Path 105" d="M867.08,689.308a59.414,59.414,0,0,1-10.336-35.226,1.253,1.253,0,0,0-.978-1.25V650.64h-12.2V652.8h-.168a1.252,1.252,0,0,0-1.251,1.254q0,.046,0,.091a54.222,54.222,0,0,1-9.741,36.061,3.451,3.451,0,0,0-.625,2.092l1.335,41.282a3.574,3.574,0,0,0,3.543,3.449h27.606a3.575,3.575,0,0,0,3.545-3.51l.514-40.082A7.235,7.235,0,0,0,867.08,689.308Z" transform="translate(-275.506 -180.482)" fill="#4884c2"/>
    <path id="Path_106" data-name="Path 106" d="M856.256,643.226a3.306,3.306,0,0,1-6.611,0" transform="translate(-278.665 -179.171)" opacity="0.2"/>
    <path id="Path_107" data-name="Path 107" d="M863.663,714.273H839.634a2.467,2.467,0,0,0-2.438,2.842l3.631,23.6h20.851l4.411-23.523a2.467,2.467,0,0,0-2.425-2.922Z" transform="translate(-276.459 -191.735)" fill="#fff"/>
    <path id="Path_108" data-name="Path 108" d="M805.746,737.382H736.858c4.816-26.039,3.708-57.483,0-91.3h68.888C802.137,679.9,801.059,711.343,805.746,737.382Z" transform="translate(-258.72 -179.676)" fill="#4884c2"/>
    <circle id="Ellipse_25" data-name="Ellipse 25" cx="16.6" cy="16.6" r="16.6" transform="translate(496.397 492.967)" fill="#fff"/>
    <path id="Path_109" data-name="Path 109" d="M322.243,320.915l15.465-1.406,9.842-23.9-17.574-9.842Z" transform="translate(-56.986 -50.536)" fill="#ffb8b8"/>
    <path id="Path_110" data-name="Path 110" d="M643.115,484.775h0a8.72,8.72,0,0,0-7.575-11.949l-24.011-1.432-3.535,11.756,24.719,6.789A8.72,8.72,0,0,0,643.115,484.775Z" transform="translate(-235.931 -148.783)" fill="#ffb8b8"/>
    <path id="Path_111" data-name="Path 111" d="M593.93,476.481l-.264-22.06-53.335-8.51-41.088-47.124a13.449,13.449,0,0,0-17.529-2.4h0a13.449,13.449,0,0,0-2.343,20.515l33.9,41.716Z" transform="translate(-212.529 -135.128)" fill="#575a89"/>
    <path id="Path_112" data-name="Path 112" d="M463.726,744.6h14.059l34.871-157.663,36.126,48.705,21.089,105.442h13.356L580.415,627.91,533.318,507h-46.4c-12.678,22.945-22.624,46.6-11.247,71Z" transform="translate(-210.419 -155.081)" fill="#2f2e41"/>
    <path id="Path_113" data-name="Path 113" d="M582.168,803.785a3.669,3.669,0,0,0,2.861,4.707l34.4,6.105a5.66,5.66,0,0,0,6.421-3.88h0a5.625,5.625,0,0,0-2.751-6.689,52.6,52.6,0,0,1-18.972-16.495c-3.781,3.521-8.007,3.19-12.495.6l-4.76.6Z" transform="translate(-231.335 -204.69)" fill="#2f2e41"/>
    <path id="Path_114" data-name="Path 114" d="M455.782,803.785a3.669,3.669,0,0,0,2.861,4.707l34.4,6.105a5.66,5.66,0,0,0,6.421-3.88h0a5.625,5.625,0,0,0-2.751-6.689,52.6,52.6,0,0,1-18.972-16.495c-3.781,3.521-8.007,3.19-12.495.6l-4.76.6Z" transform="translate(-208.984 -204.69)" fill="#2f2e41"/>
    <circle id="Ellipse_26" data-name="Ellipse 26" cx="19.683" cy="19.683" r="19.683" transform="translate(271.232 214.495)" fill="#ffb8b8"/>
    <path id="Path_115" data-name="Path 115" d="M484.685,491.434,536,490.028,520.93,442.6c9.365-15.014-.06-30.012-13.4-45.008l-10.544-7.029-16.871-1.406h0a41.416,41.416,0,0,0-11.153,28.852A185.861,185.861,0,0,0,484.685,491.434Z" transform="translate(-211.344 -134.24)" fill="#4884c2"/>
    <path id="Path_116" data-name="Path 116" d="M624.492,546.88h0a8.72,8.72,0,0,0-2.263-13.966l-21.511-10.763-7.875,9.418L612.9,547.534A8.72,8.72,0,0,0,624.492,546.88Z" transform="translate(-233.252 -157.759)" fill="#ffb8b8"/>
    <path id="Path_117" data-name="Path 117" d="M582.159,520.51l8.435-20.385-45.687-28.805L525.67,411.831a13.449,13.449,0,0,0-15.172-9.1h0a13.449,13.449,0,0,0-10.224,17.939l14.754,51.687Z" transform="translate(-216.732 -136.603)" fill="#4884c2"/>
    <path id="Path_118" data-name="Path 118" d="M470.13,349.531c0,7.659,4.974,19.519,11.247,24.6,4.221,3.421,9.8,3.277,11.95-1.406,2.206-4.8,9.812-16.095,23.2-23.2,17.844-9.468-6.328-25.667-23.2-23.2C480.651,328.19,470.13,336.719,470.13,349.531Z" transform="translate(-211.551 -123.086)" fill="#2f2e41"/>
    <circle id="Ellipse_27" data-name="Ellipse 27" cx="14.059" cy="14.059" r="14.059" transform="translate(256.47 187.784)" fill="#2f2e41"/>
    <path id="Path_119" data-name="Path 119" d="M501.5,315.683a14.05,14.05,0,0,0-13-14.006c.349-.026.7-.053,1.054-.053a14.059,14.059,0,0,1,0,28.118c-.356,0-.705-.027-1.054-.053A14.05,14.05,0,0,0,501.5,315.683Z" transform="translate(-214.798 -118.761)" fill="#2f2e41"/>
    <ellipse id="Ellipse_28" data-name="Ellipse 28" cx="3.163" cy="4.218" rx="3.163" ry="4.218" transform="translate(288.103 232.772)" fill="#ffb8b8"/>
    <path id="Path_120" data-name="Path 120" d="M772.28,635.667H553.426L507.081,416.582H467.529v-9.83h47.52l46.345,219.083H772.28Z" transform="translate(-82.679 -71.931)" fill="#3f3d56"/>
    <circle id="Ellipse_29" data-name="Ellipse 29" cx="21.066" cy="21.066" r="21.066" transform="translate(481.753 561.629)" fill="#3f3d56"/>
    <circle id="Ellipse_30" data-name="Ellipse 30" cx="21.066" cy="21.066" r="21.066" transform="translate(639.044 561.629)" fill="#3f3d56"/>
    <path id="Path_121" data-name="Path 121" d="M935.087,718.81H722.154l-37.57-185.665h285.76a10.1,10.1,0,0,1,9.973,11.662L945.059,710.282a10.046,10.046,0,0,1-9.971,8.528ZM724.467,716H935.087a7.248,7.248,0,0,0,7.2-6.155l35.259-165.475a7.285,7.285,0,0,0-7.2-8.417H687.994Z" transform="translate(-249.476 -159.704)" fill="#3f3d56"/>
    <path id="Path_122" data-name="Path 122" d="M619.227,638.992l-24.6-183.438,2.771-.458L622,638.535Z" transform="translate(-105.154 -80.48)" fill="#3f3d56"/>
    <path id="Path_123" data-name="Path 123" d="M790.116,637.585l-2.773-.449L811.229,455.1l2.773.449Z" transform="translate(-139.235 -80.481)" fill="#3f3d56"/>
    <rect id="Rectangle_28" data-name="Rectangle 28" width="2.809" height="183.437" transform="translate(582.891 374.846)" fill="#3f3d56"/>
    <rect id="Rectangle_29" data-name="Rectangle 29" width="2.809" height="271.886" transform="translate(449.449 426.805) rotate(-89.861)" fill="#3f3d56"/>
    <rect id="Rectangle_30" data-name="Rectangle 30" width="238.862" height="2.809" transform="translate(463.302 512.397) rotate(-0.392)" fill="#3f3d56"/>
    <ellipse id="Ellipse_31" data-name="Ellipse 31" cx="15.448" cy="8.426" rx="15.448" ry="8.426" transform="translate(373.616 329.906)" fill="#3f3d56"/>
  </g>
</svg>
