<svg xmlns="http://www.w3.org/2000/svg" xmlns:xlink="http://www.w3.org/1999/xlink" width="714" height="781.1" viewBox="0 0 714 781.1">
  <defs>
    <linearGradient id="linear-gradient" x1="1.371" y1="1" x2="1.371" gradientUnits="objectBoundingBox">
      <stop offset="0" stop-color="gray" stop-opacity="0.251"/>
      <stop offset="0.54" stop-color="gray" stop-opacity="0.122"/>
      <stop offset="1" stop-color="gray" stop-opacity="0.102"/>
    </linearGradient>
    <linearGradient id="linear-gradient-2" x1="-1.264" y1="1" x2="-1.264" y2="0" xlink:href="#linear-gradient"/>
  </defs>
  <g id="Group_39" data-name="Group 39" transform="translate(-958 226)">
    <g id="undraw_romantic_getaway_k2mf" transform="translate(958 -226)">
      <circle id="Ellipse_37" data-name="Ellipse 37" cx="102.23" cy="102.23" r="102.23" transform="translate(93.82 273.29)" fill="#22a463"/>
      <circle id="Ellipse_38" data-name="Ellipse 38" cx="102.23" cy="102.23" r="102.23" transform="translate(202.54 245.36)" fill="#22a463"/>
      <circle id="Ellipse_39" data-name="Ellipse 39" cx="102.23" cy="102.23" r="102.23" transform="translate(322.22 246.36)" fill="#4884c2"/>
      <circle id="Ellipse_40" data-name="Ellipse 40" cx="102.23" cy="102.23" r="102.23" transform="translate(361.12 273.29)" fill="#22a463"/>
      <circle id="Ellipse_41" data-name="Ellipse 41" cx="102.23" cy="102.23" r="102.23" transform="translate(426.95 282.27)" fill="#22a463"/>
      <circle id="Ellipse_42" data-name="Ellipse 42" cx="102.23" cy="102.23" r="102.23" transform="translate(453.88 201.48)" fill="#22a463"/>
      <circle id="Ellipse_43" data-name="Ellipse 43" cx="102.23" cy="102.23" r="102.23" transform="translate(423.96 107.72)" fill="#4884c2"/>
      <circle id="Ellipse_44" data-name="Ellipse 44" cx="102.23" cy="102.23" r="102.23" transform="translate(367.11 107.72)" fill="#4884c2"/>
      <circle id="Ellipse_45" data-name="Ellipse 45" cx="102.23" cy="102.23" r="102.23" transform="translate(334.19 65.83)" fill="#4884c2"/>
      <circle id="Ellipse_46" data-name="Ellipse 46" cx="102.23" cy="102.23" r="102.23" transform="translate(250.41 111.71)" fill="#4884c2"/>
      <circle id="Ellipse_47" data-name="Ellipse 47" cx="102.23" cy="102.23" r="102.23" transform="translate(54.92 201.48)" fill="#22a463"/>
      <circle id="Ellipse_48" data-name="Ellipse 48" cx="102.23" cy="102.23" r="102.23" transform="translate(113.77 150.61)" fill="#4884c2"/>
      <circle id="Ellipse_49" data-name="Ellipse 49" cx="102.23" cy="102.23" r="102.23" transform="translate(151.67 99.74)" fill="#4884c2"/>
      <circle id="Ellipse_50" data-name="Ellipse 50" cx="102.23" cy="102.23" r="102.23" transform="translate(223.48 22.94)" fill="#4884c2"/>
      <circle id="Ellipse_51" data-name="Ellipse 51" cx="102.23" cy="102.23" r="102.23" transform="translate(89.83 107.72)" fill="#4884c2"/>
      <path id="Path_180" data-name="Path 180" d="M489.54,614.12S427,561.58,458,486.79l30.92-11.58L522.44,578.5Z" transform="translate(-243 -59.45)" fill="#67647e"/>
      <path id="Path_181" data-name="Path 181" d="M486.21,471.65l-7.4,2.77,32.94,101.41L483,606.95c2.38,2.37,3.86,3.61,3.86,3.61l32.9-35.62Z" transform="translate(-243 -59.45)" opacity="0.1"/>
      <ellipse id="Ellipse_67" data-name="Ellipse 67" cx="326.07" cy="93.16" rx="326.07" ry="93.16" transform="translate(0 594.78)" fill="#f5f5f5"/>
      <path id="Path_182" data-name="Path 182" d="M371.16,603.1s20.33,20.33,8.85,50.5,19.67,80.33,19.67,80.33l-1-.16c-41.75-7.37-62.5-55.12-39.28-90.6C368.09,630,375.17,614.52,371.16,603.1Z" transform="translate(-243 -59.45)" fill="#1f9359"/>
      <path id="Path_183" data-name="Path 183" d="M371.16,603.1s11.48,24.92,0,45.25-2,77.38,28.53,85.58" transform="translate(-243 -59.45)" fill="none" stroke="#535461" stroke-miterlimit="10" stroke-width="1"/>
      <path id="Path_184" data-name="Path 184" d="M335,685.33s23.2-3.69,25.31,17.1,44.61,23.67,44.61,23.67l-.8.53c-35.09,23-68.63,14.67-63.57-15.91C342.39,699.35,342.23,687.93,335,685.33Z" transform="translate(-243 -59.45)" fill="#22a463"/>
      <path id="Path_186" data-name="Path 186" d="M335,685.33s18,4,16.53,20.33,26.74,36,53.39,20.44" transform="translate(-243 -59.45)" fill="none" stroke="#535461" stroke-miterlimit="10" stroke-width="1"/>
      <path id="Path_187" data-name="Path 187" d="M771.81,504.71l-8.12,32.5s-57.37,7.48-95.62,2.78A49.72,49.72,0,0,1,649,533.11c-3.23-1.91-8.33-2.74-15.3,2.48-11.94,9-70.54,81-61.05,155.7a25.82,25.82,0,0,0,22.17,22.24h0a77.86,77.86,0,0,1,32.67,12.36l29,19.31-297.35-6.5L390,701.32s21.12-17.87,37.37-19.5c4.74-.47,8.65-4.82,11.81-10.73,18.51-34.65,40.65-67.23,64.65-98.34,17.48-22.66,32.15-46.54,30.78-61.54-3.25-35.75,0-94.24,0-94.24l61.74-8.12s-8.12,78,66.62,97.49S771.81,504.71,771.81,504.71Z" transform="translate(-243 -59.45)" fill="#67647e"/>
      <g id="Group_3" data-name="Group 3" opacity="0.1">
        <path id="Path_188" data-name="Path 188" d="M721.44,519.34S687.31,540.46,612.57,521,546,423.47,546,423.47L534.19,425c.22-5,.39-8,.39-8l61.74-8.12s-8.12,78,66.62,97.49,108.87-1.62,108.87-1.62l-8.12,32.5s-21.92,2.86-47.7,3.93Z" transform="translate(-243 -59.45)"/>
        <path id="Path_189" data-name="Path 189" d="M577.11,740.51a77.86,77.86,0,0,0-32.67-12.36h0A25.78,25.78,0,0,1,522.28,706c-9.54-74.7,49.09-146.83,61-155.79,13-9.75,19.5,1.62,19.5,1.62a104.6,104.6,0,0,0,14,2.67c-21.06,28-51.19,81.71-44.14,136.87a25.78,25.78,0,0,0,22.16,22.15h0a77.86,77.86,0,0,1,32.67,12.36l29,19.31-74.76-1.63Z" transform="translate(-243 -59.45)"/>
      </g>
      <path id="Path_190" data-name="Path 190" d="M730.13,742.18s12.35-41.93-2.32-72.8a66.23,66.23,0,0,1-5.36-41.55,111.387,111.387,0,0,1,5.88-19.5" transform="translate(-243 -59.45)" fill="none" stroke="#535461" stroke-miterlimit="10" stroke-width="2"/>
      <path id="Path_191" data-name="Path 191" d="M719.22,588.82c0,5.14,9.31,20,9.31,20s9.31-14.9,9.31-20a9.31,9.31,0,0,0-18.61,0Z" transform="translate(-243 -59.45)" fill="#26b66e"/>
      <path id="Path_192" data-name="Path 192" d="M703.83,617.29c2.79,4.31,18.7,11.77,18.7,11.77s-.29-17.57-3.08-21.88a9.31,9.31,0,0,0-15.62,10.11Z" transform="translate(-243 -59.45)" fill="#26b66e"/>
      <path id="Path_193" data-name="Path 193" d="M704.51,665.94c4.59,2.31,22.09.72,22.09.72s-9.12-15-13.71-17.33a9.31,9.31,0,1,0-8.38,16.62Z" transform="translate(-243 -59.45)" fill="#22a463"/>
      <path id="Path_194" data-name="Path 194" d="M713.3,702.63c4.13,3.06,21.65,4.44,21.65,4.44s-6.45-16.34-10.58-19.4a9.321,9.321,0,1,0-11.07,15Z" transform="translate(-243 -59.45)" fill="#26b66e"/>
      <path id="Path_195" data-name="Path 195" d="M742.08,630.05c-3.69,3.58-20.86,7.29-20.86,7.29s4.21-17.06,7.89-20.64a9.317,9.317,0,0,1,13,13.35Z" transform="translate(-243 -59.45)" fill="#22a463"/>
      <path id="Path_196" data-name="Path 196" d="M751.82,673.09c-4.59,2.31-22.09.72-22.09.72s9.12-15,13.71-17.33a9.31,9.31,0,0,1,8.38,16.62Z" transform="translate(-243 -59.45)" fill="#26b66e"/>
      <path id="Path_197" data-name="Path 197" d="M755.55,716.23c-4.13,3.06-21.65,4.44-21.65,4.44s6.45-16.34,10.58-19.4a9.321,9.321,0,0,1,11.07,15Z" transform="translate(-243 -59.45)" fill="#22a463"/>
      <path id="Path_198" data-name="Path 198" d="M757,738.1s-22.57-4.51-28.59-10.53-33.1-16.55-36.11-9-40.62,33.1-15,37.62,60.18,6,67.71,3S757,738.1,757,738.1Z" transform="translate(-243 -59.45)" fill="#a8a8a8"/>
      <path id="Path_199" data-name="Path 199" d="M677.26,753.36c25.58,4.51,60.18,6,67.71,3,5.73-2.29,9.71-13.3,11.28-18.43l.75.16s-4.51,18.06-12,21.06-42.13,1.5-67.71-3c-7.38-1.3-9.49-4.36-8.7-8.24C669.19,750.45,671.76,752.4,677.26,753.36Z" transform="translate(-243 -59.45)" opacity="0.2"/>
      <path id="Path_200" data-name="Path 200" d="M547.38,731.46s-34.43-6.89-43.62-16.07-50.5-25.25-55.09-13.77-62,50.5-23,57.39,91.82,9.18,103.3,4.59S547.38,731.46,547.38,731.46Z" transform="translate(-243 -59.45)" fill="#a8a8a8"/>
      <path id="Path_201" data-name="Path 201" d="M425.72,754.74c39,6.89,91.82,9.18,103.3,4.59,8.74-3.5,14.82-20.3,17.22-28.11l1.15.24S540.5,759,529,763.6s-64.28,2.3-103.3-4.59c-11.27-2-14.49-6.66-13.27-12.56C413.41,750.3,417.33,753.27,425.72,754.74Z" transform="translate(-243 -59.45)" opacity="0.2"/>
      <path id="Path_202" data-name="Path 202" d="M314.34,535.8a21.82,21.82,0,0,0,3.71,11.51,21.82,21.82,0,0,0,3.77-11.49c0-6.35-1.64-11.5-3.71-11.51S314.36,529.45,314.34,535.8Z" transform="translate(-243 -59.45)" fill="#ff9700"/>
      <path id="Path_204" data-name="Path 204" d="M289,643.54a21.82,21.82,0,0,0-3.74,11.5,21.82,21.82,0,0,0,9.79-7.1c3.74-5.14,5.41-10.29,3.74-11.5S292.71,638.41,289,643.54Z" transform="translate(-243 -59.45)" fill="#1f9359"/>
      <path id="Path_205" data-name="Path 205" d="M408.44,583.33a21.82,21.82,0,0,0,3.74,11.5,21.82,21.82,0,0,0,3.74-11.5c0-6.35-1.67-11.5-3.74-11.5S408.44,577,408.44,583.33Z" transform="translate(-243 -59.45)" fill="#4884c2"/>
      <path id="Path_208" data-name="Path 208" d="M861.71,575.88a21.82,21.82,0,0,0-2.47,11.84,21.819,21.819,0,0,0,9-8.12c3.16-5.51,4.26-10.81,2.47-11.84S864.86,570.36,861.71,575.88Z" transform="translate(-243 -59.45)" fill="#22a463"/>
      <path id="Path_209" data-name="Path 209" d="M708.92,736.12A21.82,21.82,0,0,0,706.45,748a21.819,21.819,0,0,0,9-8.12c3.16-5.51,4.26-10.81,2.47-11.84S712.08,730.61,708.92,736.12Z" transform="translate(-243 -59.45)" fill="#4884c2"/>
      <path id="Path_210" data-name="Path 210" d="M554.05,674.06A21.82,21.82,0,0,0,565,679.19a21.82,21.82,0,0,0-5.83-10.59c-4.63-4.34-9.54-6.64-10.95-5.14S549.42,669.72,554.05,674.06Z" transform="translate(-243 -59.45)" fill="#1f9359"/>
      <path id="Path_212" data-name="Path 212" d="M486,667.54a21.82,21.82,0,0,0,11,5.13,21.82,21.82,0,0,0-5.83-10.59c-4.63-4.34-9.54-6.64-10.95-5.14S481.41,663.19,486,667.54Z" transform="translate(-243 -59.45)" fill="#26b66e"/>
      <path id="Path_216" data-name="Path 216" d="M606.23,688a21.82,21.82,0,0,0,10.95,5.14,21.82,21.82,0,0,0-5.83-10.59c-4.63-4.34-9.54-6.64-10.95-5.14S601.59,683.69,606.23,688Z" transform="translate(-243 -59.45)" fill="#4884c2"/>
      <path id="Path_217" data-name="Path 217" d="M606.23,688a21.82,21.82,0,0,0,10.95,5.14,21.82,21.82,0,0,0-5.83-10.59c-4.63-4.34-9.54-6.64-10.95-5.14S601.59,683.69,606.23,688Z" transform="translate(-243 -59.45)" opacity="0.1"/>
      <path id="Path_219" data-name="Path 219" d="M671.44,655.43a21.819,21.819,0,0,0,10.95,5.14A21.82,21.82,0,0,0,676.56,650c-4.63-4.34-9.54-6.64-10.95-5.14S666.81,651.08,671.44,655.43Z" transform="translate(-243 -59.45)" fill="#22a463"/>
      <g id="Group_4" data-name="Group 4" transform="translate(251.702 -77.386) rotate(28)">
        <path id="Path_289" data-name="Path 289" d="M7.809,3.567a4.17,4.17,0,0,1,4.306-1.126c2.355.6,4.173,3.362,4.173,5.8A8.144,8.144,0,0,1,0,8.24a6.2,6.2,0,0,1,3.75-5.8A4.341,4.341,0,0,1,7.809,3.567Z" transform="translate(296 495.515)" fill="#ff5d00"/>
        <path id="Path_290" data-name="Path 290" d="M.016-.261c.272-.9.816-.9,1.088,0S1.021-.1.749.8.288,4.247.016,3.346A8.076,8.076,0,0,1,.016-.261Z" transform="translate(303.633 496.399)" fill="#00ff57"/>
      </g>
      <g id="Group_38" data-name="Group 38" transform="translate(957.135 269.472) rotate(77)">
        <path id="Path_289-2" data-name="Path 289" d="M7.809,3.567a4.17,4.17,0,0,1,4.306-1.126c2.355.6,4.173,3.362,4.173,5.8A8.144,8.144,0,0,1,0,8.24a6.2,6.2,0,0,1,3.75-5.8A4.341,4.341,0,0,1,7.809,3.567Z" transform="translate(296 495.515)" fill="#ff5d00"/>
        <path id="Path_290-2" data-name="Path 290" d="M.016-.261c.272-.9.816-.9,1.088,0S1.021-.1.749.8.288,4.247.016,3.346A8.076,8.076,0,0,1,.016-.261Z" transform="translate(303.633 496.399)" fill="#00ff57"/>
      </g>
      <path id="Path_221" data-name="Path 221" d="M683.72,579.7c3.54,3.32,9,3.28,9,3.28s-.31-5.42-3.85-8.74-7.55-4.78-9-3.28S680.18,576.39,683.72,579.7Z" transform="translate(-243 -59.45)" fill="#22a463"/>
      <path id="Path_223" data-name="Path 223" d="M797.21,700.14a21.82,21.82,0,0,0,10.95,5.14,21.82,21.82,0,0,0-5.83-10.59c-4.63-4.34-9.54-6.64-10.95-5.14S792.58,695.8,797.21,700.14Z" transform="translate(-243 -59.45)" fill="#22a463"/>
      <path id="Path_225" data-name="Path 225" d="M396.33,736.52c2.36-.78,5.87-1.68,8.67-1.36,2.64-1,8.87-3.48,13.11-7.21a94.549,94.549,0,0,1,.28-11.08c2.17-24.71-2.71-41-2.71-41s-3.84-12.42-3.42-22.73c-.25.47-.39.74-.39.74-.34-8.89-3.37-18.1-5.64-23.83L406,630l-2.59-6a5.222,5.222,0,0,1-.48-1.11l-.41-1,.12-.05-.12-.49h0c-1.62-6.85-2.86-23.11-2.86-23.11-4.34-17.1,6-27.69,6-27.69l17.51-15.07a2.219,2.219,0,0,0-.17.61l.15-.13c.25-.71.52-1.56.78-2.53a14.544,14.544,0,0,1-5.67-8.48,26.552,26.552,0,0,1-.26-6.35l.29-7.27a23.069,23.069,0,0,1,.43-4.24c1.32-5.78,7.23-9.81,13.16-10.06a48.1,48.1,0,0,1,5.65.3,37.992,37.992,0,0,0,4.59.1.83.83,0,0,0,.49-.13.72.72,0,0,0,.22-.5,2.5,2.5,0,0,0-.61-1.87,2.33,2.33,0,0,0-.79-.46l.42.1a2.31,2.31,0,0,0-.69-.37,13.42,13.42,0,0,1,4.37,1.58,5.639,5.639,0,0,1,1,.86,4.45,4.45,0,0,1,1.47,2.75,5.1,5.1,0,0,0,1.56-2.3,2.33,2.33,0,0,0,0-1.12l.3.39v-.12a11.65,11.65,0,0,1,2.28,4.69,1.83,1.83,0,0,0,.41-1.35q.135.405.24.81a1.88,1.88,0,0,0,0-.54,18.56,18.56,0,0,1,.91,6.45c0,2.18-1,5.57-3.3,6.34l-.37.1a14.65,14.65,0,0,1-9.88,22.38q-.06.4-.11.83h-.09q-.09.885-.15,1.86a12.492,12.492,0,0,0,1.92,1.55,15.869,15.869,0,0,0,6.41,2.12,19.079,19.079,0,0,1,7.71,2.29c2.79,1.56,5.88,3.84,6.85,6.61,1.62,4.62,10.5,11.79,16.46,12.66l2.12-.12h1.38s.05.25.13.68c3-1,9.37-3.89,17.66-11.41,9.24-8.38,21.7-6.73,26.5-5.67a.82.82,0,0,1,.22,1.52c-1.94,1.07-5,2.62-6.36,2.79,0,0,2.91,3-.18,4.62a2.23,2.23,0,0,1-2.33-.23c-1.49-1.09-5.62,1.38-11.61,2.66,0,0-16.9,17.49-25.29,20.2a12.071,12.071,0,0,1-.64,1.11h-.59l-.06.55s-13-.69-17.28-5.42a6.8,6.8,0,0,1-.83-.88l4.53,57.07h0v.54h-3.34a125.789,125.789,0,0,0,.89,21v37.19s.17,3.28-6.63,8a254.193,254.193,0,0,0-20.59,16L436,734c1.25,11.38,3.87,32.59,6,33.39l-1.35.24c2.32,2.92,8.85,10.94,10.85,11.17,2.44.27,4.07,4.07,0,4.89a45.649,45.649,0,0,1-24.19-2.39,3.69,3.69,0,0,1-2.32-3.93l.79-6a.84.84,0,0,0-.35.37c-.54,1.63,0-2.17,0-2.17a169.863,169.863,0,0,1-5.25-21.91l-8.05,7-.44-.56c-2,4.49-5.51,13.66-4.71,20.38,1.09,9.23-9.23,1.09-8.14-4.34.88-4.39-3-23-4.57-30A3.09,3.09,0,0,1,396.33,736.52Z" transform="translate(-243 -59.45)" fill="url(#linear-gradient)"/>
      <path id="Path_226" data-name="Path 226" d="M480.63,585.91s7.69-1.33,19.09-11.66c9-8.18,21.19-6.57,25.88-5.54a.8.8,0,0,1,.22,1.49c-1.89,1-4.84,2.55-6.21,2.73,0,0,2.84,2.94-.18,4.51a2.17,2.17,0,0,1-2.27-.22c-1.45-1.06-5.49,1.35-11.33,2.6,0,0-22.8,23.59-28.1,19.62Z" transform="translate(-243 -59.45)" fill="#fec3be"/>
      <path id="Path_227" data-name="Path 227" d="M441.4,553.83s-2.12,9,0,15.38l-9.54,1.33-8.48-4.24v-5.57a38.229,38.229,0,0,0,2.92-18.29Z" transform="translate(-243 -59.45)" fill="#fec3be"/>
      <path id="Path_228" data-name="Path 228" d="M414.36,749.21s-6.89,13.52-5.83,22.53-9,1.06-8-4.24c.86-4.29-3-22.46-4.46-29.24a3,3,0,0,1,2-3.52c3.19-1,8.52-2.34,11.2-.37C413.3,737.28,414.36,749.21,414.36,749.21Z" transform="translate(-243 -59.45)" fill="#8b416f"/>
      <path id="Path_229" data-name="Path 229" d="M440.6,764.05s9,11.66,11.4,11.93,4,4,0,4.77a44.58,44.58,0,0,1-23.62-2.33,3.61,3.61,0,0,1-2.27-3.84l1.5-11.33Z" transform="translate(-243 -59.45)" fill="#8b416f"/>
      <path id="Path_230" data-name="Path 230" d="M455.45,640.25l8.65,1.15a126.52,126.52,0,0,0,.1,30.39v36.32s.17,3.2-6.47,7.85a248.22,248.22,0,0,0-20.1,15.58l-24.06,20.84s-9.54-11.66-8.22-18.56c0,0,15.91-5,18-13.25,1.21-4.71,7.38-8.63,12.43-11.12a15.46,15.46,0,0,0,8.27-17.55,13.527,13.527,0,0,0-1.35-3.41c-4.24-7.42-10.34-24.12-10.34-24.12L444,642.11Z" transform="translate(-243 -59.45)" fill="#4d4981"/>
      <path id="Path_231" data-name="Path 231" d="M455.45,640.25l8.65,1.15a126.52,126.52,0,0,0,.1,30.39v36.32s.17,3.2-6.47,7.85a248.22,248.22,0,0,0-20.1,15.58l-24.06,20.84s-9.54-11.66-8.22-18.56c0,0,15.91-5,18-13.25,1.21-4.71,7.38-8.63,12.43-11.12a15.46,15.46,0,0,0,8.27-17.55,13.527,13.527,0,0,0-1.35-3.41c-4.24-7.42-10.34-24.12-10.34-24.12L444,642.11Z" transform="translate(-243 -59.45)" opacity="0.05"/>
      <path id="Path_232" data-name="Path 232" d="M442.72,764.85s-15.64,2.65-16.17,4.24,0-2.12,0-2.12-9-27.3-6.89-51.43-2.65-40-2.65-40-5.57-18-2.39-28.36,36.58-5.83,36.58-5.83-11.66,27.3-11.4,40.29c0,0-1.33,39.23-3.71,43.74C436.1,725.35,439.81,763.79,442.72,764.85Z" transform="translate(-243 -59.45)" fill="#4d4981"/>
      <path id="Path_233" data-name="Path 233" d="M440.87,560.73s-1.59,9.81-17.5,5.57L434,646.88s30.75,1.06,30.49-2.65l-6.36-48.78Z" transform="translate(-243 -59.45)" fill="#fff"/>
      <path id="Path_234" data-name="Path 234" d="M440.47,560.2a12.92,12.92,0,0,0,7.66,3.64,18.63,18.63,0,0,1,7.53,2.24c2.73,1.53,5.74,3.75,6.69,6.45,1.86,5.3,13.52,14,18.82,12.19l-1.86,15.91s-15.11-.8-17.76-6.63l4.51,56.73h-4s-2.12-15.38-3.71-18.56-4.77-20.68-5-24.92-4.24-28.63-7.69-32.87l-5.17-12.59Z" transform="translate(-243 -59.45)" opacity="0.1"/>
      <path id="Path_235" data-name="Path 235" d="M440.47,561a16.41,16.41,0,0,0,8.19,3.37,18.629,18.629,0,0,1,7.53,2.24c2.73,1.53,5.74,3.75,6.69,6.45,1.86,5.3,13.52,14,18.82,12.19l-1.86,15.91s-15.11-.8-17.76-6.63l4.51,56.73h-4s-2.12-15.38-3.71-18.56-4.77-20.68-5-24.92-4.24-28.63-7.69-32.87l-5.7-12.33Z" transform="translate(-243 -59.45)" opacity="0.1"/>
      <path id="Path_236" data-name="Path 236" d="M440.47,560.46a16.41,16.41,0,0,0,8.19,3.37,18.629,18.629,0,0,1,7.53,2.24c2.73,1.53,5.74,3.75,6.69,6.45,1.86,5.3,13.52,14,18.82,12.19l-1.86,15.91s-15.11-.8-17.76-6.63l4.51,56.73h-4s-2.12-15.38-3.71-18.56-4.77-20.68-5-24.92-4.24-28.63-7.69-32.87l-5.7-12.33Z" transform="translate(-243 -59.45)" fill="#fd6f8d"/>
      <path id="Path_237" data-name="Path 237" d="M427,550.25c.35-2.51-.34-4.08-.66-7l15.11,11.4s-.36,1.54-.64,3.79a14.406,14.406,0,0,1-2.28.18C433.21,558.6,429.44,554.5,427,550.25Z" transform="translate(-243 -59.45)" opacity="0.1"/>
      <circle id="Ellipse_68" data-name="Ellipse 68" cx="14.31" cy="14.31" r="14.31" transform="translate(181.17 469.74)" fill="#fec3be"/>
      <path id="Path_238" data-name="Path 238" d="M454.11,529.46a18.12,18.12,0,0,0-1.16-7.08,1.77,1.77,0,0,1-.3,2.29,11.34,11.34,0,0,0-3.6-6.37,2,2,0,0,1,1.29,2.43,5.53,5.53,0,0,1-1.77,2.49,4.44,4.44,0,0,0-2.18-3.76,13.1,13.1,0,0,0-4.26-1.55,2.47,2.47,0,0,1,1.64,2.54.71.71,0,0,1-.21.49.811.811,0,0,1-.48.13,37.1,37.1,0,0,1-4.48-.1,47.008,47.008,0,0,0-5.52-.29c-5.79.24-11.56,4.18-12.85,9.83a22.53,22.53,0,0,0-.42,4.14l-.28,7.09a25.917,25.917,0,0,0,.25,6.2,13.14,13.14,0,0,0,6.75,8.92c2.08-3,2.26-6.89,3-10.48a5.3,5.3,0,0,1,.9-2.32,2,2,0,0,1,2.22-.75,1.27,1.27,0,0,1,.47,2c.56.68,1.66.17,2.29-.43A12.38,12.38,0,0,0,439,538.5c.26-1.24.52-2.76,1.71-3.17a3.221,3.221,0,0,1,1.28-.09c2.52.17,6.47,1.22,8.92.42C453.16,534.91,454.11,531.59,454.11,529.46Z" transform="translate(-243 -59.45)" opacity="0.1"/>
      <path id="Path_239" data-name="Path 239" d="M453.84,529.2a18.12,18.12,0,0,0-1.16-7.08,1.77,1.77,0,0,1-.3,2.29,11.34,11.34,0,0,0-3.6-6.37,2,2,0,0,1,1.29,2.43A5.53,5.53,0,0,1,448.3,523a4.44,4.44,0,0,0-2.18-3.76,13.1,13.1,0,0,0-4.26-1.55,2.47,2.47,0,0,1,1.64,2.54.71.71,0,0,1-.21.49.81.81,0,0,1-.48.13,37.1,37.1,0,0,1-4.48-.1,46.994,46.994,0,0,0-5.52-.29c-5.79.24-11.56,4.18-12.85,9.83a22.531,22.531,0,0,0-.42,4.14l-.28,7.09a25.922,25.922,0,0,0,.25,6.2,13.14,13.14,0,0,0,6.75,8.92c2.08-3,2.26-6.89,3-10.48a5.3,5.3,0,0,1,.9-2.32,2,2,0,0,1,2.22-.75,1.27,1.27,0,0,1,.47,2c.56.68,1.66.17,2.29-.43a12.38,12.38,0,0,0,3.59-6.41c.26-1.24.52-2.76,1.71-3.17a3.221,3.221,0,0,1,1.28-.09c2.52.17,6.47,1.22,8.92.42C452.9,534.64,453.84,531.33,453.84,529.2Z" transform="translate(-243 -59.45)" fill="#784f69"/>
      <path id="Path_240" data-name="Path 240" d="M482.36,584.72s2.12,9.81-1.86,15.91l-2.25-.18,1.23-15.55Z" transform="translate(-243 -59.45)" opacity="0.1"/>
      <path id="Path_241" data-name="Path 241" d="M481.83,584.72s2.12,9.81-1.86,15.91l-2.25-.18,1.23-15.55Z" transform="translate(-243 -59.45)" fill="#fd6f8d"/>
      <path id="Path_242" data-name="Path 242" d="M424.83,557.94l-17.1,14.71s-10.07,10.34-5.83,27c0,0,1.86,24.39,4,25.45,0,0,7.42,14.85,8,28.89,0,0,9.94-20,14.45-7.82s15,13.92,15,13.92L437.42,588S422.71,562.45,424.83,557.94Z" transform="translate(-243 -59.45)" opacity="0.1"/>
      <path id="Path_243" data-name="Path 243" d="M424.3,557.94l-17.1,14.71s-10.07,10.34-5.83,27c0,0,1.86,24.39,4,25.45,0,0,7.42,14.85,8,28.89,0,0,10.47-21.07,15-8.88s14.45,15,14.45,15L436.89,588S422.18,562.45,424.3,557.94Z" transform="translate(-243 -59.45)" fill="#fd6f8d"/>
      <path id="Path_244" data-name="Path 244" d="M416.48,620.11s-4.24-2.92-11.13,5l17,30.75,5.7-8.62S415.95,623.55,416.48,620.11Z" transform="translate(-243 -59.45)" fill="#fec3be"/>
      <path id="Path_245" data-name="Path 245" d="M420.59,621.83s-9.38,10.54-13,8.85l-3.39-7.89,12.72-5.46Z" transform="translate(-243 -59.45)" opacity="0.1"/>
      <path id="Path_246" data-name="Path 246" d="M420.59,621.3s-9.38,10.54-13,8.85l-3.39-7.89,12.72-5.46Z" transform="translate(-243 -59.45)" fill="#fd6f8d"/>
      <path id="Path_247" data-name="Path 247" d="M427.44,645.28s-4.46,9.15-6.85,9.68l3.45,4,5-9.54Z" transform="translate(-243 -59.45)" opacity="0.1"/>
      <path id="Path_248" data-name="Path 248" d="M427.7,645.55s-4.46,9.15-6.85,9.68l3.45,4,5-9.54Z" transform="translate(-243 -59.45)" fill="#4d4981"/>
      <path id="Path_249" data-name="Path 249" d="M419.26,589s-.53,19.09,1.59,26.24" transform="translate(-243 -59.45)" opacity="0.1"/>
      <path id="Path_250" data-name="Path 250" d="M462.21,592.67S459,591.61,459,589" transform="translate(-243 -59.45)" opacity="0.1"/>
      <path id="Path_251" data-name="Path 251" d="M566.48,623.77c1.2,3.17,4.38,5.22,6.14,8.14a79.508,79.508,0,0,0-1,13.52,78.517,78.517,0,0,0,1.46,14.72l2,10.07a3.85,3.85,0,0,0,.73,2.35,33.693,33.693,0,0,1-3.21,8.36c-7.45,13.82-3.19,31.45-2.13,33.52a1.13,1.13,0,0,0,.49.51,4.789,4.789,0,0,0,.22.52c.9,1.76,3.6-1,7.23,3.91a25.179,25.179,0,0,1,1.28,2.31,7.489,7.489,0,0,0,.9,1.39c5,8.86,30.38,9.72,46.87-10.06a12.891,12.891,0,0,1,2.23,1.42c-3.9,8.29,5,28.68,9.22,39.74a28.34,28.34,0,0,1,1.83,6.42c-3.39.94-5.37,7.75-5.37,7.75l.05.52-.05.17,1.42,14.51h2.84l.71-9.33,7.45,14.17s5,.63,10.28.73v4.45l2.13-.35a4.135,4.135,0,0,0-.08-.68h.08s-.21-1.52-.28-3.4a28.45,28.45,0,0,0,7.55-.83,73.005,73.005,0,0,1,3.37,7c8.51,3.11,17.38-1.38,18.08-1.73.12-.06-.06-.23-.44-.48l.44-.21c.71-.35-8.91-4.65-8.91-4.65h-.2a34.256,34.256,0,0,1-.82-6.8,25.62,25.62,0,0,0-3.55-11.75s-13.12-47.34-14.54-49.07l-.15-.21-.05-.09-.11-.19-.06-.12-.11-.21-.07-.14-.11-.24-.07-.15L660,719l-.06-.14-.18-.46h0l-.19-.51-.06-.18-.13-.36-.07-.22-.12-.35-.08-.23-.12-.37-.07-.23-.13-.4-.06-.2-.18-.59h0l-.19-.61-.06-.2-.12-.42-.07-.23-.11-.37-.07-.24-.1-.36v-.15a25.39,25.39,0,0,1-.87-6.13c0-.06,0-.12,0-.19v-.76a2.427,2.427,0,0,0-.08-.36v-.17a9.13,9.13,0,0,0-.37-1.08l-.08-.18-.16-.36-.11-.21-.17-.33-.09-.17q.38.49.74,1a28.882,28.882,0,0,0-3.54-7c-1.42-2.23-3.3-4.23-5.51-4.23a20.3,20.3,0,0,1-5.38-1.25c-3-2.94-7-6.35-7-6.35l-5.52-6.55h.2l-.39-.66h.39l-7.33-12.43a71.648,71.648,0,0,0,.34-14.73,12.63,12.63,0,0,0,4.44-9.59c0-2.56-.87-5.11-.57-7.65s1.62-4.65,2.33-7a14.49,14.49,0,0,0,0-8.21c-.71-2.44-2.07-4.69-2.67-7.16a24.54,24.54,0,0,1-.39-6.49l.27-9.57a18.818,18.818,0,0,0-.48-6,12.89,12.89,0,0,0-3.66-5.5,26.991,26.991,0,0,0-3.26-2.72,35.759,35.759,0,0,0-14.09-6.39,23.39,23.39,0,0,0-15.23,2c-5.58,3-9.32,8.47-11.58,14.26s-3.31,12.3-6.28,17.92c-1.35,2.56-3.1,4.92-4.3,7.56S565.45,621.07,566.48,623.77ZM606,644.45l-.3-.07-.12-.45Zm20.92,39.46c-1.79-1-3.55-2.08-5.2-3.2a4.647,4.647,0,0,1,.65-.63c1.25,1.01,2.93,2.4,4.56,3.83Zm35.61,86.66-.12-.32c-2.3-.39-3.42,1-4,2.72a131.922,131.922,0,0,0-5.38-12.55c-3.19-5.87-4.61-18.66-4.61-18.66v-.77c4.08,7.5,10,18.18,12.41,21.85,2.29,3.37,2.17,6.05,1.71,7.73Z" transform="translate(-243 -59.45)" fill="url(#linear-gradient-2)"/>
      <rect id="Rectangle_49" data-name="Rectangle 49" width="23.27" height="27.65" transform="translate(378.64 621.99) rotate(180)" fill="#fd6f8d"/>
      <rect id="Rectangle_50" data-name="Rectangle 50" width="23.27" height="27.65" transform="translate(378.64 621.99) rotate(180)" opacity="0.1"/>
      <path id="Path_252" data-name="Path 252" d="M626.87,674.86l7.76,9.44s14.58,12.85,8.43,9.78c-2-1-9.1-3-12.14-6.41a121.727,121.727,0,0,0-10.12-9.1Z" transform="translate(-243 -59.45)" fill="#fec3be"/>
      <path id="Path_253" data-name="Path 253" d="M620.46,662l9.1,15.85s-6.74.34-8.09,3.71-4.72-9.78-4.72-9.78Z" transform="translate(-243 -59.45)" opacity="0.1"/>
      <path id="Path_254" data-name="Path 254" d="M620.46,661.37l9.1,15.85s-6.74.34-8.09,3.71-4.72-9.78-4.72-9.78Z" transform="translate(-243 -59.45)" fill="#fd6f8d"/>
      <path id="Path_255" data-name="Path 255" d="M620.46,661.37l9.1,15.85s-6.74.34-8.09,3.71-4.72-9.78-4.72-9.78Z" transform="translate(-243 -59.45)" opacity="0.05"/>
      <path id="Path_256" data-name="Path 256" d="M604.84,582.09a10,10,0,0,1,2.65,1.54l3.77,2.74c2,1.48,4.14,3,5.27,5.29,1.49,3,1,6.56,0,9.74s-2.33,6.32-2.45,9.65c-.08,2.07.34,4.19-.13,6.21a9.69,9.69,0,0,1-3.94,5.48,26,26,0,0,1-6.18,3C600.47,627,597,628.2,593.36,628a14.45,14.45,0,0,1-11.82-7.63,3.08,3.08,0,0,1-.45-1.56,4.59,4.59,0,0,1,.89-1.95c1.7-2.86,1.16-6.45.67-9.73-.64-4.33-1.08-8.8-.06-13.05.91-3.76,3.47-8.35,7.28-9.85a35.218,35.218,0,0,1,6.09-1.37C598.66,582.33,602.13,581.2,604.84,582.09Z" transform="translate(-243 -59.45)" fill="#784f69"/>
      <path id="Path_257" data-name="Path 257" d="M604.84,582.09a10,10,0,0,1,2.65,1.54l3.77,2.74c2,1.48,4.14,3,5.27,5.29,1.49,3,1,6.56,0,9.74s-2.33,6.32-2.45,9.65c-.08,2.07.34,4.19-.13,6.21a9.69,9.69,0,0,1-3.94,5.48,26,26,0,0,1-6.18,3C600.47,627,597,628.2,593.36,628a14.45,14.45,0,0,1-11.82-7.63,3.08,3.08,0,0,1-.45-1.56,4.59,4.59,0,0,1,.89-1.95c1.7-2.86,1.16-6.45.67-9.73-.64-4.33-1.08-8.8-.06-13.05.91-3.76,3.47-8.35,7.28-9.85a35.218,35.218,0,0,1,6.09-1.37C598.66,582.33,602.13,581.2,604.84,582.09Z" transform="translate(-243 -59.45)" opacity="0.1"/>
      <path id="Path_258" data-name="Path 258" d="M647.78,694.08s9.44,7.76,7.42,13.15c0,0,2.7,10.79,4,12.48s13.82,47.88,13.82,47.88A25.441,25.441,0,0,1,676.44,779c.34,6.74,1,10.79,5.39,10.12h-9.78L665,784.1l-4-9.1-1-4.72s3-3.71-.67-9.44-15.85-29-15.85-29l-6.74-21.92-5.39-9.1Z" transform="translate(-243 -59.45)" fill="#fec3be"/>
      <path id="Path_259" data-name="Path 259" d="M647.78,694.08s7.53,6.18,7.7,11.35a25.359,25.359,0,0,0,.83,6c.9,3.23,2.15,7.31,2.93,8.29,1.35,1.69,13.82,47.88,13.82,47.88a25.439,25.439,0,0,1,3.38,11.4c.34,6.74,1,10.79,5.39,10.12h-9.78L665,784.1l-4-9.1-1-4.72s3-3.71-.67-9.44-15.85-29-15.85-29l-6.74-21.92-5.39-9.1Z" transform="translate(-243 -59.45)" opacity="0.05"/>
      <path id="Path_260" data-name="Path 260" d="M670.7,785.45s3.61,1.72,6.7.86c0,0,9.15,4.2,8.48,4.54s-9.1,4.72-17.2,1.69c0,0-5.15-12.92-8.31-12.36s-1.81,10.34-1.81,10.34l-2,.34V776s-.79-8.13,4.16-7.27C660.7,768.74,666.66,785.79,670.7,785.45Z" transform="translate(-243 -59.45)" fill="#4d4981"/>
      <path id="Path_261" data-name="Path 261" d="M670.7,784.78s3.61,1.72,6.7.86c0,0,9.15,4.2,8.48,4.54s-9.1,4.72-17.2,1.69c0,0-5.15-12.92-8.31-12.36s-1.81,10.34-1.81,10.34l-2,.34V775.34s-.79-8.13,4.16-7.27C660.7,768.07,666.66,785.12,670.7,784.78Z" transform="translate(-243 -59.45)" opacity="0.05"/>
      <path id="Path_262" data-name="Path 262" d="M647.78,778s4.38,4.72,13.15,0c0,0,10.12,5.23,4.55,7s-18.71.08-18.71.08l-7.08-13.82-.67,9.1h-2.7L635,766.23s1.91-6.74,5.17-7.58C640.13,758.65,642.38,776.69,647.78,778Z" transform="translate(-243 -59.45)" opacity="0.05"/>
      <path id="Path_263" data-name="Path 263" d="M670.7,785.45s3.61,1.72,6.7.86c0,0,9.15,4.2,8.48,4.54s-9.1,4.72-17.2,1.69c0,0-5.15-12.92-8.31-12.36s-1.81,10.34-1.81,10.34l-2,.34V776s-.79-8.13,4.16-7.27C660.7,768.74,666.66,785.79,670.7,785.45Z" transform="translate(-243 -59.45)" opacity="0.05"/>
      <path id="Path_264" data-name="Path 264" d="M636.31,692.39s9.1-3,10.12,11.13,1,36.75,1,36.75,1.35,12.48,4.38,18.21,9.1,23.27,9.1,23.27-12.14,4-15.85-3.37a125.592,125.592,0,0,1-6.41-15.51c-.34-1,3.71.34-.34-10.45s-12.48-30.68-8.77-38.78c0,0-5.06-4.38-10.45-2S636.31,692.39,636.31,692.39Z" transform="translate(-243 -59.45)" fill="#fec3be"/>
      <path id="Path_265" data-name="Path 265" d="M647.78,778.71s4.38,4.72,13.15,0c0,0,10.12,5.23,4.55,7s-18.71.08-18.71.08L639.68,772l-.67,9.1h-2.7L635,766.91s1.91-6.74,5.17-7.58C640.13,759.32,642.38,777.36,647.78,778.71Z" transform="translate(-243 -59.45)" fill="#4d4981"/>
      <path id="Path_266" data-name="Path 266" d="M610.35,602.36s-6.41,14.84-3.71,21.92,10.12,18.21,10.12,18.21S613,654.29,606,643.84s-12.81-28-12.81-28,1.69-2,0-7.76Z" transform="translate(-243 -59.45)" fill="#fec3be"/>
      <path id="Path_267" data-name="Path 267" d="M619.12,640.8s-2.62,11.78-19.46,2.14l-.78-.45C581.35,632,578,658.33,578,658.33s5.06,10.12-2,23.6-3,30.68-2,32.71,4.38-2,8.77,7.08,29.67,10.12,45.52-10.45,22.09-15.34,26.81-8.6c0,0-3.2-9.95-7.92-9.95s-25.63-9.1-32.37-18.21a17.31,17.31,0,0,1,1-12.14C618.78,656.31,622.49,641.14,619.12,640.8Z" transform="translate(-243 -59.45)" opacity="0.1"/>
      <path id="Path_268" data-name="Path 268" d="M618.44,639.79s-2.62,11.78-19.46,2.14l-.78-.45c-17.52-10.48-20.9,15.84-20.9,15.84s5.06,10.12-2,23.6-3,30.68-2,32.71,4.38-2,8.77,7.08,29.67,10.12,45.52-10.45,22.09-15.34,26.81-8.6c0,0-3.2-9.95-7.92-9.95s-25.63-9.1-32.37-18.21a17.31,17.31,0,0,1,1-12.14C618.1,655.3,621.81,640.13,618.44,639.79Z" transform="translate(-243 -59.45)" fill="#4d4981"/>
      <path id="Path_269" data-name="Path 269" d="M594,615.37s1.52-2.22,5.9,8.91a180.822,180.822,0,0,1,8.09,26c1,4.72,2,26,0,29s-21.24-1.35-23.94-4.72-2.7-28.66-2.7-28.66Z" transform="translate(-243 -59.45)" opacity="0.1"/>
      <path id="Path_270" data-name="Path 270" d="M593.66,614.7s1.52-2.22,5.9,8.91a180.815,180.815,0,0,1,8.09,26c1,4.72,2,26,0,29s-21.24-1.35-23.94-4.72-2.7-28.66-2.7-28.66Z" transform="translate(-243 -59.45)" fill="#fd6f8d"/>
      <path id="Path_271" data-name="Path 271" d="M606.13,619.73a6.49,6.49,0,0,1,9.25,4c1.86,6.45,4.48,15.27,6.09,19.48,2.7,7.08,1.69,23.94,0,26.3s-3,10.45-3,10.45-3-2-2.7-16.52-16.19-40.22-9.61-43.67Z" transform="translate(-243 -59.45)" fill="#fd6f8d"/>
      <path id="Path_272" data-name="Path 272" d="M594.84,672.16l21.92,10.45s20.23,7.76,9.78,10.79-19.23-6.4-19.23-6.4l-19.56-7.42Z" transform="translate(-243 -59.45)" fill="#fec3be"/>
      <path id="Path_273" data-name="Path 273" d="M577.64,623.27l-.25.91a79.42,79.42,0,0,0-1.62,36.47l1.88,9.83s-.34,2.36,3.37,5.06a42.571,42.571,0,0,1,7.42,7.76s4.38-7.08,9.78-9.78c0,0-5.39-3.71-7.42-6.07s-.67-28-.67-28S580.34,613.49,577.64,623.27Z" transform="translate(-243 -59.45)" opacity="0.1"/>
      <path id="Path_274" data-name="Path 274" d="M593.66,614.67s-13.32-1.85-16,7.92l-.25.91a79.42,79.42,0,0,0-1.65,36.5l1.88,9.83s-.34,2.36,3.37,5.06a42.572,42.572,0,0,1,7.42,7.76s4.38-7.08,9.78-9.78c0,0-5.39-3.71-7.42-6.07s-.67-28-.67-28Z" transform="translate(-243 -59.45)" fill="#fd6f8d"/>
      <path id="Path_275" data-name="Path 275" d="M610.35,603a70.76,70.76,0,0,0-2.74,7.84,13.16,13.16,0,0,1-13.73,3,15.229,15.229,0,0,0-.73-5.11Z" transform="translate(-243 -59.45)" opacity="0.1"/>
      <circle id="Ellipse_69" data-name="Ellipse 69" cx="13.15" cy="13.15" r="13.15" transform="translate(342.23 528.25)" fill="#fec3be"/>
      <path id="Path_276" data-name="Path 276" d="M599.87,589.38c.95.72,1.07,2.07,1.22,3.25a18.308,18.308,0,0,0,3.55,8.67c1.39,1.83,3.22,3.65,3.21,5.95,0,1.56-.89,3-1.57,4.37-3.27,6.8-2,14.81-.59,22.23.45,2.41,1,5,2.82,6.63.94.83,2.19,1.38,2.79,2.49.71,1.3.27,2.93-.43,4.25a16.4,16.4,0,0,0-1.95,4,5.11,5.11,0,0,0,3.26,5.72l-.24,3.87a3.06,3.06,0,0,0,.26,1.8,2.23,2.23,0,0,0,1.77.92,5.31,5.31,0,0,0,4.84-3.09,12.841,12.841,0,0,0,1.07-5.93,3.16,3.16,0,0,1,.25-1.55,3.5,3.5,0,0,1,1.31-1.12,12.42,12.42,0,0,0,5.69-10.46c0-2.5-.83-5-.54-7.47s1.54-4.54,2.22-6.85a14.5,14.5,0,0,0,0-8c-.68-2.39-2-4.57-2.54-7a24.557,24.557,0,0,1-.37-6.33l.26-9.34a18.83,18.83,0,0,0-.45-5.87c-1-3.22-3.54-5.68-6.24-7.68a33.6,33.6,0,0,0-13.4-6.24,21.73,21.73,0,0,0-14.48,1.94c-5.3,2.9-8.86,8.27-11,13.91s-3.15,12-6,17.48c-1.29,2.5-2.95,4.8-4.09,7.38s-1.73,5.55-.75,8.19c1.16,3.13,4.23,5.14,5.89,8,1.24,2.15,1.64,4.68,2.71,6.92s3.22,4.32,5.68,4a5.19,5.19,0,0,0,2.43-1.06c3.25-2.44,4-7,3.87-11s-1.07-8.18-.17-12.14c.46-2,1.36-3.91,1.54-6,.36-4.06-2.15-7.77-3.2-11.71-.92-3.44.37-9.09,2.73-12.13C593.06,588.12,597.88,587.88,599.87,589.38Z" transform="translate(-243 -59.45)" opacity="0.1"/>
      <path id="Path_277" data-name="Path 277" d="M599.53,589c.95.72,1.07,2.07,1.22,3.25A18.31,18.31,0,0,0,604.3,601c1.39,1.83,3.22,3.65,3.21,5.95,0,1.56-.89,3-1.57,4.37-3.27,6.8-2,14.81-.59,22.23.45,2.41,1,5,2.82,6.63.94.83,2.19,1.38,2.79,2.49.71,1.3.27,2.93-.43,4.25a16.4,16.4,0,0,0-1.95,4,5.11,5.11,0,0,0,3.26,5.72l-.24,3.87a3.06,3.06,0,0,0,.26,1.8,2.23,2.23,0,0,0,1.77.92,5.31,5.31,0,0,0,4.84-3.09,12.84,12.84,0,0,0,1.07-5.93,3.16,3.16,0,0,1,.25-1.55,3.5,3.5,0,0,1,1.31-1.12A12.42,12.42,0,0,0,626.81,641c0-2.5-.83-5-.54-7.47s1.54-4.54,2.22-6.85a14.5,14.5,0,0,0,0-8c-.68-2.39-2-4.57-2.54-7a24.559,24.559,0,0,1-.37-6.33l.26-9.34a18.83,18.83,0,0,0-.45-5.87c-1-3.22-3.54-5.68-6.24-7.68a33.6,33.6,0,0,0-13.4-6.24,21.731,21.731,0,0,0-14.48,1.94c-5.3,2.9-8.86,8.27-11,13.91s-3.15,12-6,17.48c-1.29,2.5-2.95,4.8-4.09,7.38s-1.73,5.55-.75,8.19c1.16,3.13,4.23,5.14,5.89,8,1.24,2.15,1.64,4.68,2.71,6.92s3.22,4.32,5.68,4a5.189,5.189,0,0,0,2.43-1.06c3.25-2.44,4-7,3.87-11s-1.07-8.18-.17-12.14c.46-2,1.36-3.91,1.54-6,.36-4.06-2.15-7.77-3.2-11.71-.92-3.44.37-9.09,2.73-12.13C592.72,587.78,597.54,587.54,599.53,589Z" transform="translate(-243 -59.45)" fill="#784f69"/>
      <path id="Path_278" data-name="Path 278" d="M592,636.92s-3.71,17.2,1.35,26.64" transform="translate(-243 -59.45)" opacity="0.1"/>
      <path id="Path_279" data-name="Path 279" d="M866.53,622.27C851.2,644.9,856.1,725.92,856.1,725.92s77.05-25.51,92.38-48.13a49.49,49.49,0,1,0-81.95-55.51Z" transform="translate(-243 -59.45)" fill="#22a463"/>
      <path id="Path_281" data-name="Path 281" d="M935,609.11S877.22,653.69,855.8,726" transform="translate(-243 -59.45)" fill="none" stroke="#535461" stroke-miterlimit="10" stroke-width="1"/>
      <path id="Path_282" data-name="Path 282" d="M841.26,664.57s41-7,13,60.91c0,0-28.49-10.86-30.71-37.88a21.56,21.56,0,0,1,17.15-22.92Z" transform="translate(-243 -59.45)" fill="#1f9359"/>
      <path id="Path_283" data-name="Path 283" d="M840.65,664.5s-7.81,37.56,13.56,61" transform="translate(-243 -59.45)" fill="none" stroke="#535461" stroke-miterlimit="10" stroke-width="1"/>
      <path id="Path_284" data-name="Path 284" d="M370.37,731.59s-17.11-3.4-21.67-7.93-25.1-12.46-27.38-6.8-30.8,24.92-11.41,28.31,45.63,4.53,51.33,2.27S370.37,731.59,370.37,731.59Z" transform="translate(-243 -59.45)" fill="#a8a8a8"/>
      <path id="Path_285" data-name="Path 285" d="M309.91,743.08c19.39,3.4,45.63,4.53,51.33,2.27,4.34-1.73,7.36-10,8.56-13.87l.57.12s-3.42,13.59-9.13,15.86-31.94,1.13-51.33-2.27c-5.6-1-7.2-3.28-6.6-6.2C303.8,740.88,305.75,742.35,309.91,743.08Z" transform="translate(-243 -59.45)" opacity="0.2"/>
      <circle id="Ellipse_70" data-name="Ellipse 70" cx="102.23" cy="102.23" r="102.23" transform="translate(93.82 250.35)" fill="#26b66e"/>
      <circle id="Ellipse_71" data-name="Ellipse 71" cx="102.23" cy="102.23" r="102.23" transform="translate(202.54 222.42)" fill="#26b66e"/>
      <circle id="Ellipse_72" data-name="Ellipse 72" cx="102.23" cy="102.23" r="102.23" transform="translate(322.22 223.42)" fill="#26b66e"/>
      <circle id="Ellipse_73" data-name="Ellipse 73" cx="102.23" cy="102.23" r="102.23" transform="translate(361.12 250.35)" fill="#26b66e"/>
      <circle id="Ellipse_74" data-name="Ellipse 74" cx="102.23" cy="102.23" r="102.23" transform="translate(426.95 259.33)" fill="#26b66e"/>
      <circle id="Ellipse_75" data-name="Ellipse 75" cx="102.23" cy="102.23" r="102.23" transform="translate(453.88 178.54)" fill="#10a75c"/>
      <circle id="Ellipse_76" data-name="Ellipse 76" cx="102.23" cy="102.23" r="102.23" transform="translate(423.96 84.78)" fill="#26b66e"/>
      <circle id="Ellipse_77" data-name="Ellipse 77" cx="102.23" cy="102.23" r="102.23" transform="translate(367.11 84.78)" fill="#26b66e"/>
      <circle id="Ellipse_78" data-name="Ellipse 78" cx="102.23" cy="102.23" r="102.23" transform="translate(334.19 42.89)" fill="#26b66e"/>
      <circle id="Ellipse_79" data-name="Ellipse 79" cx="102.23" cy="102.23" r="102.23" transform="translate(250.41 88.77)" fill="#26b66e"/>
      <circle id="Ellipse_80" data-name="Ellipse 80" cx="102.23" cy="102.23" r="102.23" transform="translate(54.92 178.54)" fill="#26b66e"/>
      <circle id="Ellipse_81" data-name="Ellipse 81" cx="102.23" cy="102.23" r="102.23" transform="translate(119.77 150.67)" fill="#22a463"/>
      <circle id="Ellipse_82" data-name="Ellipse 82" cx="102.23" cy="102.23" r="102.23" transform="translate(151.67 76.8)" fill="#26b66e"/>
      <circle id="Ellipse_83" data-name="Ellipse 83" cx="102.23" cy="102.23" r="102.23" transform="translate(223.48 0)" fill="#26b66e"/>
      <circle id="Ellipse_84" data-name="Ellipse 84" cx="102.23" cy="102.23" r="102.23" transform="translate(89.83 84.78)" fill="#26b66e"/>
      <path id="Path_286" data-name="Path 286" d="M337.27,262.47s95.21-45.15,152.82,34.87" transform="translate(-187 -106.45)" opacity="0.1"/>
      <path id="Path_287" data-name="Path 287" d="M587.35,171s105.32-3.18,126,93.22" transform="translate(-246 -77.45)" opacity="0.1"/>
      <g id="Group_5" data-name="Group 5" transform="matrix(0.966, -0.259, 0.259, 0.966, -239.368, 0.203)">
        <path id="Path_289-3" data-name="Path 289" d="M8.133,3.18s1.4-1.238,4.484-.783c2.453.42,4.346,2.338,4.346,4.033,0,3.128-3.8,5.663-8.482,5.663S0,9.557,0,6.429C0,4.912,1.31,3.008,3.906,2.4A5.973,5.973,0,0,1,8.133,3.18Z" transform="translate(296 498.174)" fill="#ff5d00"/>
      </g>
      <g id="Group_24" data-name="Group 24" transform="matrix(0.966, -0.259, 0.259, 0.966, 132.632, -52.797)">
        <path id="Path_289-4" data-name="Path 289" d="M8.133,3.18s1.4-1.238,4.484-.783c2.453.42,4.346,2.338,4.346,4.033,0,3.128-3.8,5.663-8.482,5.663S0,9.557,0,6.429C0,4.912,1.31,3.008,3.906,2.4A5.973,5.973,0,0,1,8.133,3.18Z" transform="translate(296 498.174)" fill="#ff5d00"/>
      </g>
      <g id="Group_25" data-name="Group 25" transform="matrix(0.966, -0.259, 0.259, 0.966, 185.632, -108.797)">
        <path id="Path_289-5" data-name="Path 289" d="M8.133,3.18s1.4-1.238,4.484-.783c2.453.42,4.346,2.338,4.346,4.033,0,3.128-3.8,5.663-8.482,5.663S0,9.557,0,6.429C0,4.912,1.31,3.008,3.906,2.4A5.973,5.973,0,0,1,8.133,3.18Z" transform="translate(296 498.174)" fill="#ff5d00"/>
      </g>
      <g id="Group_26" data-name="Group 26" transform="matrix(0.966, -0.259, 0.259, 0.966, 191.632, -142.797)">
        <path id="Path_289-6" data-name="Path 289" d="M8.133,3.18s1.4-1.238,4.484-.783c2.453.42,4.346,2.338,4.346,4.033,0,3.128-3.8,5.663-8.482,5.663S0,9.557,0,6.429C0,4.912,1.31,3.008,3.906,2.4A5.973,5.973,0,0,1,8.133,3.18Z" transform="translate(296 498.174)" fill="#ff5d00"/>
      </g>
      <g id="Group_27" data-name="Group 27" transform="matrix(0.966, -0.259, 0.259, 0.966, 185.632, -7.797)">
        <path id="Path_289-7" data-name="Path 289" d="M8.133,3.18s1.4-1.238,4.484-.783c2.453.42,4.346,2.338,4.346,4.033,0,3.128-3.8,5.663-8.482,5.663S0,9.557,0,6.429C0,4.912,1.31,3.008,3.906,2.4A5.973,5.973,0,0,1,8.133,3.18Z" transform="translate(296 498.174)" fill="#ff5d00"/>
      </g>
      <g id="Group_28" data-name="Group 28" transform="matrix(0.966, -0.259, 0.259, 0.966, 121.632, -258.797)">
        <path id="Path_289-8" data-name="Path 289" d="M8.133,3.18s1.4-1.238,4.484-.783c2.453.42,4.346,2.338,4.346,4.033,0,3.128-3.8,5.663-8.482,5.663S0,9.557,0,6.429C0,4.912,1.31,3.008,3.906,2.4A5.973,5.973,0,0,1,8.133,3.18Z" transform="translate(296 498.174)" fill="#ff5d00"/>
      </g>
      <g id="Group_29" data-name="Group 29" transform="matrix(0.966, -0.259, 0.259, 0.966, 130.632, 35.203)">
        <path id="Path_289-9" data-name="Path 289" d="M8.133,3.18s1.4-1.238,4.484-.783c2.453.42,4.346,2.338,4.346,4.033,0,3.128-3.8,5.663-8.482,5.663S0,9.557,0,6.429C0,4.912,1.31,3.008,3.906,2.4A5.973,5.973,0,0,1,8.133,3.18Z" transform="translate(296 498.174)" fill="#ff5d00"/>
      </g>
      <g id="Group_30" data-name="Group 30" transform="matrix(0.966, -0.259, 0.259, 0.966, 145.632, 57.203)">
        <path id="Path_289-10" data-name="Path 289" d="M8.133,3.18s1.4-1.238,4.484-.783c2.453.42,4.346,2.338,4.346,4.033,0,3.128-3.8,5.663-8.482,5.663S0,9.557,0,6.429C0,4.912,1.31,3.008,3.906,2.4A5.973,5.973,0,0,1,8.133,3.18Z" transform="translate(296 498.174)" fill="#ff5d00"/>
      </g>
      <g id="Group_31" data-name="Group 31" transform="matrix(0.966, -0.259, 0.259, 0.966, -287.368, -6.797)">
        <path id="Path_289-11" data-name="Path 289" d="M8.133,3.18s1.4-1.238,4.484-.783c2.453.42,4.346,2.338,4.346,4.033,0,3.128-3.8,5.663-8.482,5.663S0,9.557,0,6.429C0,4.912,1.31,3.008,3.906,2.4A5.973,5.973,0,0,1,8.133,3.18Z" transform="translate(296 498.174)" fill="#ff5d00"/>
      </g>
      <g id="Group_32" data-name="Group 32" transform="translate(580.533 -406.357) rotate(30)">
        <path id="Path_289-12" data-name="Path 289" d="M8.133,3.18s1.4-1.238,4.484-.783c2.453.42,4.346,2.338,4.346,4.033,0,3.128-3.8,5.663-8.482,5.663S0,9.557,0,6.429C0,4.912,1.31,3.008,3.906,2.4A5.973,5.973,0,0,1,8.133,3.18Z" transform="translate(296 498.174)" fill="#ff5d00"/>
      </g>
      <g id="Group_33" data-name="Group 33" transform="translate(73.533 -316.357) rotate(30)">
        <path id="Path_289-13" data-name="Path 289" d="M8.133,3.18s1.4-1.238,4.484-.783c2.453.42,4.346,2.338,4.346,4.033,0,3.128-3.8,5.663-8.482,5.663S0,9.557,0,6.429C0,4.912,1.31,3.008,3.906,2.4A5.973,5.973,0,0,1,8.133,3.18Z" transform="translate(296 498.174)" fill="#ff5d00"/>
      </g>
      <g id="Group_34" data-name="Group 34" transform="translate(112.533 -420.357) rotate(30)">
        <path id="Path_289-14" data-name="Path 289" d="M8.133,3.18s1.4-1.238,4.484-.783c2.453.42,4.346,2.338,4.346,4.033,0,3.128-3.8,5.663-8.482,5.663S0,9.557,0,6.429C0,4.912,1.31,3.008,3.906,2.4A5.973,5.973,0,0,1,8.133,3.18Z" transform="translate(296 498.174)" fill="#ff5d00"/>
      </g>
      <g id="Group_35" data-name="Group 35" transform="translate(238.533 -510.357) rotate(30)">
        <path id="Path_289-15" data-name="Path 289" d="M8.133,3.18s1.4-1.238,4.484-.783c2.453.42,4.346,2.338,4.346,4.033,0,3.128-3.8,5.663-8.482,5.663S0,9.557,0,6.429C0,4.912,1.31,3.008,3.906,2.4A5.973,5.973,0,0,1,8.133,3.18Z" transform="translate(296 498.174)" fill="#ff5d00"/>
      </g>
      <g id="Group_36" data-name="Group 36" transform="translate(73.533 -226.357) rotate(30)">
        <path id="Path_289-16" data-name="Path 289" d="M8.133,3.18s1.4-1.238,4.484-.783c2.453.42,4.346,2.338,4.346,4.033,0,3.128-3.8,5.663-8.482,5.663S0,9.557,0,6.429C0,4.912,1.31,3.008,3.906,2.4A5.973,5.973,0,0,1,8.133,3.18Z" transform="translate(296 498.174)" fill="#ff5d00"/>
      </g>
      <g id="Group_37" data-name="Group 37" transform="translate(209.533 -273.357) rotate(30)">
        <path id="Path_289-17" data-name="Path 289" d="M8.133,3.18s1.4-1.238,4.484-.783c2.453.42,4.346,2.338,4.346,4.033,0,3.128-3.8,5.663-8.482,5.663S0,9.557,0,6.429C0,4.912,1.31,3.008,3.906,2.4A5.973,5.973,0,0,1,8.133,3.18Z" transform="translate(296 498.174)" fill="#ff5d00"/>
      </g>
      <g id="Group_6" data-name="Group 6" transform="translate(231.534 -211.281) rotate(28)">
        <path id="Path_289-18" data-name="Path 289" d="M6.172,2.967a4.3,4.3,0,0,1,3.4-.594c1.862.319,3.3,1.774,3.3,3.061,0,2.374-2.882,4.3-6.437,4.3S0,7.807,0,5.433A3.491,3.491,0,0,1,2.964,2.372,4.533,4.533,0,0,1,6.172,2.967Z" transform="translate(296 498.174)" fill="#ff5d00"/>
      </g>
      <g id="Group_7" data-name="Group 7" transform="translate(325.534 -264.281) rotate(28)">
        <path id="Path_289-19" data-name="Path 289" d="M6.172,2.967a4.3,4.3,0,0,1,3.4-.594c1.862.319,3.3,1.774,3.3,3.061,0,2.374-2.882,4.3-6.437,4.3S0,7.807,0,5.433A3.491,3.491,0,0,1,2.964,2.372,4.533,4.533,0,0,1,6.172,2.967Z" transform="translate(296 498.174)" fill="#ff5d00"/>
      </g>
      <g id="Group_8" data-name="Group 8" transform="translate(454.534 -187.281) rotate(28)">
        <path id="Path_289-20" data-name="Path 289" d="M6.172,2.967a4.3,4.3,0,0,1,3.4-.594c1.862.319,3.3,1.774,3.3,3.061,0,2.374-2.882,4.3-6.437,4.3S0,7.807,0,5.433A3.491,3.491,0,0,1,2.964,2.372,4.533,4.533,0,0,1,6.172,2.967Z" transform="translate(296 498.174)" fill="#ff5d00"/>
      </g>
      <g id="Group_9" data-name="Group 9" transform="translate(381.534 -219.281) rotate(28)">
        <path id="Path_289-21" data-name="Path 289" d="M6.172,2.967a4.3,4.3,0,0,1,3.4-.594c1.862.319,3.3,1.774,3.3,3.061,0,2.374-2.882,4.3-6.437,4.3S0,7.807,0,5.433A3.491,3.491,0,0,1,2.964,2.372,4.533,4.533,0,0,1,6.172,2.967Z" transform="translate(296 498.174)" fill="#ff5d00"/>
      </g>
      <g id="Group_10" data-name="Group 10" transform="translate(380.534 -192.281) rotate(28)">
        <path id="Path_289-22" data-name="Path 289" d="M6.172,2.967a4.3,4.3,0,0,1,3.4-.594c1.862.319,3.3,1.774,3.3,3.061,0,2.374-2.882,4.3-6.437,4.3S0,7.807,0,5.433A3.491,3.491,0,0,1,2.964,2.372,4.533,4.533,0,0,1,6.172,2.967Z" transform="translate(296 498.174)" fill="#ff5d00"/>
      </g>
      <g id="Group_11" data-name="Group 11" transform="translate(409.534 -200.281) rotate(28)">
        <path id="Path_289-23" data-name="Path 289" d="M6.172,2.967a4.3,4.3,0,0,1,3.4-.594c1.862.319,3.3,1.774,3.3,3.061,0,2.374-2.882,4.3-6.437,4.3S0,7.807,0,5.433A3.491,3.491,0,0,1,2.964,2.372,4.533,4.533,0,0,1,6.172,2.967Z" transform="translate(296 498.174)" fill="#ff5d00"/>
      </g>
      <g id="Group_12" data-name="Group 12" transform="translate(488.534 -149.281) rotate(28)">
        <path id="Path_289-24" data-name="Path 289" d="M6.172,2.967a4.3,4.3,0,0,1,3.4-.594c1.862.319,3.3,1.774,3.3,3.061,0,2.374-2.882,4.3-6.437,4.3S0,7.807,0,5.433A3.491,3.491,0,0,1,2.964,2.372,4.533,4.533,0,0,1,6.172,2.967Z" transform="translate(296 498.174)" fill="#ff5d00"/>
      </g>
      <g id="Group_13" data-name="Group 13" transform="translate(493.534 -320.281) rotate(28)">
        <path id="Path_289-25" data-name="Path 289" d="M6.172,2.967a4.3,4.3,0,0,1,3.4-.594c1.862.319,3.3,1.774,3.3,3.061,0,2.374-2.882,4.3-6.437,4.3S0,7.807,0,5.433A3.491,3.491,0,0,1,2.964,2.372,4.533,4.533,0,0,1,6.172,2.967Z" transform="translate(296 498.174)" fill="#ff5d00"/>
      </g>
      <g id="Group_14" data-name="Group 14" transform="translate(357.534 -370.281) rotate(28)">
        <path id="Path_289-26" data-name="Path 289" d="M6.172,2.967a4.3,4.3,0,0,1,3.4-.594c1.862.319,3.3,1.774,3.3,3.061,0,2.374-2.882,4.3-6.437,4.3S0,7.807,0,5.433A3.491,3.491,0,0,1,2.964,2.372,4.533,4.533,0,0,1,6.172,2.967Z" transform="translate(296 498.174)" fill="#ff5d00"/>
      </g>
      <g id="Group_15" data-name="Group 15" transform="translate(249.534 -367.281) rotate(28)">
        <path id="Path_289-27" data-name="Path 289" d="M6.172,2.967a4.3,4.3,0,0,1,3.4-.594c1.862.319,3.3,1.774,3.3,3.061,0,2.374-2.882,4.3-6.437,4.3S0,7.807,0,5.433A3.491,3.491,0,0,1,2.964,2.372,4.533,4.533,0,0,1,6.172,2.967Z" transform="translate(296 498.174)" fill="#ff5d00"/>
      </g>
      <g id="Group_16" data-name="Group 16" transform="translate(119.534 -306.281) rotate(28)">
        <path id="Path_289-28" data-name="Path 289" d="M6.172,2.967a4.3,4.3,0,0,1,3.4-.594c1.862.319,3.3,1.774,3.3,3.061,0,2.374-2.882,4.3-6.437,4.3S0,7.807,0,5.433A3.491,3.491,0,0,1,2.964,2.372,4.533,4.533,0,0,1,6.172,2.967Z" transform="translate(296 498.174)" fill="#ff5d00"/>
      </g>
      <g id="Group_17" data-name="Group 17" transform="translate(90.534 -283.281) rotate(28)">
        <path id="Path_289-29" data-name="Path 289" d="M6.172,2.967a4.3,4.3,0,0,1,3.4-.594c1.862.319,3.3,1.774,3.3,3.061,0,2.374-2.882,4.3-6.437,4.3S0,7.807,0,5.433A3.491,3.491,0,0,1,2.964,2.372,4.533,4.533,0,0,1,6.172,2.967Z" transform="translate(296 498.174)" fill="#ff5d00"/>
      </g>
      <g id="Group_18" data-name="Group 18" transform="translate(155.534 -429.281) rotate(28)">
        <path id="Path_289-30" data-name="Path 289" d="M6.172,2.967a4.3,4.3,0,0,1,3.4-.594c1.862.319,3.3,1.774,3.3,3.061,0,2.374-2.882,4.3-6.437,4.3S0,7.807,0,5.433A3.491,3.491,0,0,1,2.964,2.372,4.533,4.533,0,0,1,6.172,2.967Z" transform="translate(296 498.174)" fill="#ff5d00"/>
      </g>
      <g id="Group_19" data-name="Group 19" transform="translate(454.534 -403.281) rotate(28)">
        <path id="Path_289-31" data-name="Path 289" d="M6.172,2.967a4.3,4.3,0,0,1,3.4-.594c1.862.319,3.3,1.774,3.3,3.061,0,2.374-2.882,4.3-6.437,4.3S0,7.807,0,5.433A3.491,3.491,0,0,1,2.964,2.372,4.533,4.533,0,0,1,6.172,2.967Z" transform="translate(296 498.174)" fill="#ff5d00"/>
      </g>
      <g id="Group_20" data-name="Group 20" transform="translate(452.534 -475.281) rotate(28)">
        <path id="Path_289-32" data-name="Path 289" d="M6.172,2.967a4.3,4.3,0,0,1,3.4-.594c1.862.319,3.3,1.774,3.3,3.061,0,2.374-2.882,4.3-6.437,4.3S0,7.807,0,5.433A3.491,3.491,0,0,1,2.964,2.372,4.533,4.533,0,0,1,6.172,2.967Z" transform="translate(296 498.174)" fill="#ff5d00"/>
      </g>
      <g id="Group_21" data-name="Group 21" transform="translate(386.534 -498.281) rotate(28)">
        <path id="Path_289-33" data-name="Path 289" d="M6.172,2.967a4.3,4.3,0,0,1,3.4-.594c1.862.319,3.3,1.774,3.3,3.061,0,2.374-2.882,4.3-6.437,4.3S0,7.807,0,5.433A3.491,3.491,0,0,1,2.964,2.372,4.533,4.533,0,0,1,6.172,2.967Z" transform="translate(296 498.174)" fill="#ff5d00"/>
      </g>
      <g id="Group_22" data-name="Group 22" transform="translate(271.534 -473.281) rotate(28)">
        <path id="Path_289-34" data-name="Path 289" d="M6.172,2.967a4.3,4.3,0,0,1,3.4-.594c1.862.319,3.3,1.774,3.3,3.061,0,2.374-2.882,4.3-6.437,4.3S0,7.807,0,5.433A3.491,3.491,0,0,1,2.964,2.372,4.533,4.533,0,0,1,6.172,2.967Z" transform="translate(296 498.174)" fill="#ff5d00"/>
      </g>
      <g id="Group_23" data-name="Group 23" transform="translate(518.534 -359.281) rotate(28)">
        <path id="Path_289-35" data-name="Path 289" d="M6.172,2.967a4.3,4.3,0,0,1,3.4-.594c1.862.319,3.3,1.774,3.3,3.061,0,2.374-2.882,4.3-6.437,4.3S0,7.807,0,5.433A3.491,3.491,0,0,1,2.964,2.372,4.533,4.533,0,0,1,6.172,2.967Z" transform="translate(296 498.174)" fill="#ff5d00"/>
      </g>
    </g>
  </g>
</svg>
