<svg xmlns="http://www.w3.org/2000/svg" width="81.937" height="98" viewBox="0 0 81.937 98">
  <g id="organic" transform="translate(-41.958)">
    <g id="Group_9" data-name="Group 9" transform="translate(41.958 0)">
      <path id="Path_16" data-name="Path 16" d="M119.267,34.071a4.183,4.183,0,0,1-1.42-5.3c.2-.737,2.917-4.2.559-8.287s-6.73-3.471-7.456-3.659a4.183,4.183,0,0,1-3.88-3.88c-.192-.74.425-5.1-3.659-7.456s-7.564.359-8.287.559a4.183,4.183,0,0,1-5.3-1.42C89.288,4.083,87.642,0,82.927,0s-6.371,4.093-6.9,4.628a4.183,4.183,0,0,1-5.3,1.42c-.737-.2-4.2-2.917-8.287-.559s-3.471,6.73-3.659,7.457a4.183,4.183,0,0,1-3.88,3.88c-.74.192-5.1-.425-7.457,3.659s.359,7.564.559,8.287a4.183,4.183,0,0,1-1.42,5.3c-.545.536-4.628,2.181-4.628,6.9s4.093,6.371,4.628,6.9a4.183,4.183,0,0,1,1.42,5.3c-.2.737-2.917,4.2-.559,8.287s6.73,3.471,7.457,3.659a4.183,4.183,0,0,1,3.334,2.09L49.6,85.62a3,3,0,0,0,3.319,4.215l9.141-1.869a.129.129,0,0,1,.14.065l4.655,8.419a3,3,0,0,0,5.345-.178l2.774-5.915a1.435,1.435,0,1,0-2.6-1.219L69.6,95.054a.116.116,0,0,1-.114.075.119.119,0,0,1-.119-.068l-4.655-8.419a2.989,2.989,0,0,0-3.228-1.488l-9.141,1.869a.131.131,0,0,1-.145-.184l6.925-14.768a7.072,7.072,0,0,0,3.318,4.378c4.1,2.365,7.564-.359,8.287-.559a4.183,4.183,0,0,1,5.3,1.42l1.05,1.539c.023.034.049.067.073.1l-1.916,4.086a1.435,1.435,0,0,0,2.6,1.219l1.536-3.276a7.061,7.061,0,0,0,7.109,0l7.172,15.295A3,3,0,0,0,99,96.451l4.655-8.419a.13.13,0,0,1,.141-.065l9.141,1.869a3,3,0,0,0,3.319-4.215L107.616,67.2a4.183,4.183,0,0,1,3.334-2.09c.74-.192,5.1.425,7.456-3.659s-.359-7.564-.559-8.287a4.183,4.183,0,0,1,1.42-5.3c.545-.536,4.628-2.181,4.628-6.9s-4.093-6.371-4.628-6.9Zm-5.629,52.9a.114.114,0,0,1-.129.047l-9.141-1.869a2.989,2.989,0,0,0-3.228,1.488l-4.655,8.42a.118.118,0,0,1-.119.067.115.115,0,0,1-.114-.075L88.7,78.949c.024-.034.05-.066.073-.1l1.05-1.539a4.183,4.183,0,0,1,5.3-1.42c.737.2,4.2,2.917,8.287.559a7.071,7.071,0,0,0,3.317-4.378l6.925,14.768a.114.114,0,0,1-.016.136Zm4.011-41.481a7.038,7.038,0,0,0-2.389,8.916c.287.919,2.157,3.014.66,5.607s-4.229,2.016-5.186,2.232a7.037,7.037,0,0,0-6.527,6.527c-.212.939.361,3.689-2.232,5.186s-4.671-.368-5.607-.66a7.037,7.037,0,0,0-8.916,2.389c-.635.638-1.456,3.375-4.526,3.375s-3.832-2.679-4.526-3.375a7.038,7.038,0,0,0-5.826-3.1c-3.89,0-5.342,3.308-8.7,1.371a4.15,4.15,0,0,1-2.092-3.328l-.14-1.858a7.037,7.037,0,0,0-6.527-6.527c-.949-.214-3.689.361-5.186-2.232s.368-4.67.66-5.607A7.037,7.037,0,0,0,48.2,45.495c-.715-.659-3.375-1.532-3.375-4.526s2.654-3.861,3.375-4.526a7.037,7.037,0,0,0,2.389-8.916c-.287-.919-2.157-3.014-.66-5.607s4.229-2.016,5.186-2.232a7.037,7.037,0,0,0,6.527-6.527c.212-.939-.361-3.689,2.232-5.186s4.67.368,5.607.66A7.038,7.038,0,0,0,78.4,6.246c.653-.708,1.532-3.375,4.526-3.375s3.861,2.654,4.526,3.375a7.037,7.037,0,0,0,8.916,2.389c.919-.287,3.014-2.157,5.607-.66s2.016,4.229,2.232,5.186a7.037,7.037,0,0,0,6.527,6.527c.949.214,3.689-.361,5.186,2.232s-.368,4.67-.66,5.607a7.037,7.037,0,0,0,2.389,8.916c.708.653,3.375,1.532,3.375,4.526s-2.655,3.861-3.375,4.526Z" transform="translate(-41.958 0)" fill="#fff"/>
      <path id="Path_17" data-name="Path 17" d="M137.733,67.779a27.993,27.993,0,1,0,27.7,32.048,1.435,1.435,0,0,0-2.841-.412,25.13,25.13,0,1,1,.108-6.437,1.435,1.435,0,0,0,2.853-.316,27.947,27.947,0,0,0-27.824-24.884Z" transform="translate(-96.765 -54.806)" fill="#fff"/>
      <path id="Path_18" data-name="Path 18" d="M195.9,139.16a1.925,1.925,0,0,0-2.236-2.236,31.069,31.069,0,0,0-9.314,3.3,33.264,33.264,0,0,0-5.406-12.679,2,2,0,0,0-3.28,0,33.264,33.264,0,0,0-5.406,12.679,31.07,31.07,0,0,0-9.313-3.3,1.925,1.925,0,0,0-2.236,2.236c.942,5.208,3.39,11.059,7.5,14.5h-4.691a1.435,1.435,0,0,0,0,2.871H193.1a1.435,1.435,0,1,0,0-2.871h-4.691C192.513,150.219,194.961,144.367,195.9,139.16Zm-18.6-8.888A28.759,28.759,0,0,1,181.694,142a15.453,15.453,0,0,0-4.387,5.295A15.455,15.455,0,0,0,172.92,142,28.759,28.759,0,0,1,177.307,130.272Zm-15.475,9.77c7.387,1.749,14.039,6.016,14.039,13.582v.032h-3.667C165.383,151.753,162.7,143.664,161.833,140.042Zm16.91,13.614v-.032c0-7.554,6.633-11.829,14.039-13.582-.87,3.621-3.55,11.711-10.372,13.614Z" transform="translate(-136.339 -102.438)" fill="#fff"/>
    </g>
  </g>
</svg>
