<svg xmlns="http://www.w3.org/2000/svg" width="71.808" height="91" viewBox="0 0 71.808 91">
  <g id="shop" transform="translate(-71)">
    <g id="Group_2" data-name="Group 2" transform="translate(71.689 74.535)">
      <g id="Group_1" data-name="Group 1">
        <path id="Path_6" data-name="Path 6" d="M139.231,429.854a62.121,62.121,0,0,0-12.848-2.679,1.456,1.456,0,1,0-.346,2.891c13.18,1.579,16.033,4.288,16.033,4.873,0,.384-1.483,2.138-8.738,3.692a118.142,118.142,0,0,1-23.567,2.087A118.159,118.159,0,0,1,86.2,438.631c-7.254-1.555-8.737-3.308-8.737-3.692,0-.586,2.853-3.3,16.033-4.873a1.456,1.456,0,1,0-.346-2.891A62.1,62.1,0,0,0,80.3,429.854c-3.869,1.383-5.75,3.046-5.75,5.085,0,2.808,3.611,4.947,11.038,6.539a121.108,121.108,0,0,0,24.177,2.151,121.107,121.107,0,0,0,24.177-2.151c7.428-1.592,11.038-3.731,11.038-6.539C144.98,432.9,143.1,431.236,139.231,429.854Z" transform="translate(-74.55 -427.163)" fill="#fff"/>
      </g>
    </g>
    <g id="Group_4" data-name="Group 4" transform="translate(84.1 12.712)">
      <g id="Group_3" data-name="Group 3">
        <path id="Path_7" data-name="Path 7" d="M161.3,65.5a22.8,22.8,0,1,0,22.8,22.8A22.83,22.83,0,0,0,161.3,65.5Zm0,42.7A19.893,19.893,0,1,1,181.2,88.3,19.915,19.915,0,0,1,161.3,108.2Z" transform="translate(-138.5 -65.5)" fill="#fff"/>
      </g>
    </g>
    <g id="Group_6" data-name="Group 6" transform="translate(71)">
      <g id="Group_5" data-name="Group 5">
        <path id="Path_8" data-name="Path 8" d="M106.9,0C87.107,0,71,14.707,71,32.785a30.64,30.64,0,0,0,5.63,17.633l24.217,34.6a7.571,7.571,0,0,0,12.115,0,1.262,1.262,0,0,0-.442-1.836,1.539,1.539,0,0,0-2.01.4,4.505,4.505,0,0,1-7.209,0l-24.217-34.6a28.151,28.151,0,0,1-5.172-16.2c0-16.612,14.8-30.127,32.993-30.127S139.9,16.173,139.9,32.785a28.153,28.153,0,0,1-5.172,16.2l-21.209,30.3a1.262,1.262,0,0,0,.443,1.836,1.54,1.54,0,0,0,2.01-.4l21.209-30.3a30.638,30.638,0,0,0,5.63-17.633C142.808,14.707,126.7,0,106.9,0Z" transform="translate(-71)" fill="#fff"/>
      </g>
    </g>
    <g id="Group_8" data-name="Group 8" transform="translate(95.26 16.21)">
      <g id="Group_7" data-name="Group 7">
        <path id="Path_9" data-name="Path 9" d="M219.279,123.455l-1.941-16.5a1.456,1.456,0,0,0-1.445-1.286h-2.911v-5.337a5.337,5.337,0,1,0-10.674,0v5.337H199.4a1.456,1.456,0,0,0-1.446,1.286l-1.941,16.5a1.456,1.456,0,0,0,1.445,1.626h20.378a1.456,1.456,0,0,0,1.445-1.626Zm-14.06-23.12a2.426,2.426,0,0,1,4.852,0v5.337h-4.852Zm-6.126,21.834,1.6-13.586h1.617v2.338a1.456,1.456,0,0,0,2.911,0v-2.338h4.852v2.338a1.456,1.456,0,0,0,2.911,0v-2.338H214.6l1.6,13.586Z" transform="translate(-196 -94.998)" fill="#fff"/>
      </g>
    </g>
  </g>
</svg>
