<svg xmlns="http://www.w3.org/2000/svg" width="92.3" height="92.3" viewBox="0 0 92.3 92.3">
  <g id="vegetable" transform="translate(-1 -1)">
    <path id="Path_10" data-name="Path 10" d="M93.3,53.029a20.684,20.684,0,0,0-8.407-16.557,6.334,6.334,0,0,0-3.746-1.231,6.268,6.268,0,0,0-4.408,1.813c-.216-.18-.412-.378-.636-.549a6.191,6.191,0,0,0-2.836-1.161l.657-7.219c.015-.173.022-.347.022-.521a5.768,5.768,0,0,0-5.761-5.761H67.8A5.768,5.768,0,0,0,62.037,27.6c0,.174.007.348.024.523l.66,7.25a6.373,6.373,0,0,0-2.628,1.118c-.266.2-.5.429-.759.639-.132-.137-.272-.265-.417-.389a8.7,8.7,0,0,0-1.539-6.714A8.926,8.926,0,0,0,49.608,15.9a8.9,8.9,0,0,0-5.924-5.6,8.809,8.809,0,0,0-7.475-3.332,8.921,8.921,0,0,0-16.151-1.5,8.973,8.973,0,0,0-8.326,6.705A11.962,11.962,0,0,0,3.977,23.331a11.843,11.843,0,0,0,5.209,9.837,8.891,8.891,0,0,0,2.492,10.418,8.62,8.62,0,0,0-.258,2.075,8.947,8.947,0,0,0,7.86,8.868l3.293,9.223a16.461,16.461,0,0,0-4.229,4.585l-7.8-1.733a4.034,4.034,0,0,0-.908-.1,4.176,4.176,0,0,0-4.171,4.171v.59a4.125,4.125,0,0,0,.2,1.194h-.2a4.466,4.466,0,1,0,0,8.932h.2a4.125,4.125,0,0,0-.2,1.194v.59a4.176,4.176,0,0,0,4.171,4.171,4.074,4.074,0,0,0,.905-.1l7.8-1.734A16.363,16.363,0,0,0,32.263,93.3h.35a16.444,16.444,0,0,0,2.489-.191l51.049-7.853A8.412,8.412,0,0,0,88.472,69.33,20.59,20.59,0,0,0,93.3,56.158ZM74.294,38.87a18.3,18.3,0,0,1,7.1,14.479v5.468A18.38,18.38,0,0,1,79.2,67.523L67.258,65.686A29.685,29.685,0,0,1,66.5,59.1V53.06a29.639,29.639,0,0,1,.378-4.485c.365.031.728.064,1.111.064,4.244,0,7.444-1.92,7.444-4.466,0-1.405-.972-2.653-2.656-3.472L73,38.292a3.121,3.121,0,0,1,1.3.578Zm-6.5-14.05h.389A2.787,2.787,0,0,1,70.971,27.6a2.381,2.381,0,0,1-.012.253L69.607,42.724l1.136.365c1.3.417,1.715.966,1.715,1.084,0,.371-1.584,1.489-4.466,1.489s-4.466-1.118-4.466-1.489c0-.118.411-.667,1.715-1.085l1.136-.365L65.025,27.856c-.007-.085-.01-.17-.01-.253A2.787,2.787,0,0,1,67.8,24.819ZM62.99,38.341,63.2,40.7c-1.684.819-2.656,2.066-2.656,3.472,0,1.641,1.338,3.012,3.418,3.786a32.8,32.8,0,0,0-.441,5.1V59.1a32.714,32.714,0,0,0,.578,6.1l-8.776-1.35a17.926,17.926,0,0,1-.734-5.035V53.347a18.135,18.135,0,0,1,7.28-14.469A3.329,3.329,0,0,1,62.99,38.341ZM46.9,62.554a17.313,17.313,0,0,1-1.24-6.4V53.027a17.7,17.7,0,0,1,7.2-14.164,3.355,3.355,0,0,1,1.977-.646,3.289,3.289,0,0,1,2.333.968,21.089,21.089,0,0,0-5.553,14.164v5.468a20.85,20.85,0,0,0,.515,4.542Zm.14-44.73.271,1.532,1.518-.338a5.943,5.943,0,0,1,5.542,9.968L53.349,30.03l1.024,1.044a5.919,5.919,0,0,1,1.709,4.167c0,.045-.009.089-.009.135a6.169,6.169,0,0,0-4.983,1.094,20.754,20.754,0,0,0-6.29,7.561q-.846-2.635-1.767-5.036a21.115,21.115,0,0,1,6.537-11.527l-.932-1.16-.93-1.163a23.562,23.562,0,0,0-6.5,9.386A92.507,92.507,0,0,0,35,22.525L32.5,24.136a87.621,87.621,0,0,1,4.953,9.318,24.527,24.527,0,0,0-9.8-1.184l.3,2.963c2.239-.225,8.581-.116,11.543,2.907,1.044,2.565,2.072,5.377,2.98,8.39a25.2,25.2,0,0,0-10.205-2.358V47.15c.07,0,6.7.045,10.62,3.164a20.1,20.1,0,0,0-.2,2.715V56.16a20.314,20.314,0,0,0,.884,5.883L35.1,60.74c-.447-.068-.9-.115-1.35-.147a5.947,5.947,0,0,1-5.545-8.116l.435-1.139-1.032-.652a5.923,5.923,0,0,1-1.8-8.311l.927-1.393-1.492-.758a8.921,8.921,0,0,1,1.578-16.541l.924-.265.138-.951a5.969,5.969,0,0,1,5.861-5.09,1.178,1.178,0,0,1,.162.019c.1.015.21.028.316.036l1.067.086.42-.986a5.943,5.943,0,0,1,11.325,1.292ZM21.4,51.616h-1.05a5.91,5.91,0,0,1-5.545-8.072l.436-1.139-1.032-.652a5.922,5.922,0,0,1-1.8-8.311l.927-1.393-1.492-.758A8.922,8.922,0,0,1,13.428,14.75l.924-.265.138-.951a5.971,5.971,0,0,1,5.863-5.09,1.243,1.243,0,0,1,.167.019c.1.013.2.027.307.036l1.072.089.421-.99A5.943,5.943,0,0,1,33.643,8.892l.271,1.532,1.518-.338a5.458,5.458,0,0,1,3.254.214,8.912,8.912,0,0,0-5.23,4.1,8.973,8.973,0,0,0-8.326,6.705,11.962,11.962,0,0,0-7.755,11.155A11.843,11.843,0,0,0,22.585,42.1,8.894,8.894,0,0,0,25.077,52.52a8.608,8.608,0,0,0-.258,2.074A8.959,8.959,0,0,0,27.727,61.2a16.214,16.214,0,0,0-2.55.983ZM8.444,71.264v-.59A1.214,1.214,0,0,1,9.9,69.509l7.085,1.575c-.173.45-.328.907-.46,1.374H9.637A1.2,1.2,0,0,1,8.444,71.264Zm-4.466,5.66a1.491,1.491,0,0,1,1.489-1.489h10.5c-.043.491-.074.986-.074,1.489s.031,1,.076,1.489H5.466a1.491,1.491,0,0,1-1.489-1.489ZM9.9,84.339a1.226,1.226,0,0,1-1.451-1.166v-.59A1.2,1.2,0,0,1,9.637,81.39h6.884c.132.467.289.924.46,1.374Zm80.428-7.415A5.423,5.423,0,0,1,85.7,82.313L34.652,90.166a13.428,13.428,0,0,1-2.04.156h-.35a13.4,13.4,0,0,1,0-26.8h.35a13.585,13.585,0,0,1,2.038.155L85.7,71.534A5.425,5.425,0,0,1,90.323,76.924Zm0-20.766a17.624,17.624,0,0,1-5.078,12.294L82.287,68a21.353,21.353,0,0,0,2.081-9.181V53.347a21.358,21.358,0,0,0-5.478-14.222,3.29,3.29,0,0,1,2.258-.908,3.334,3.334,0,0,1,1.977.649,17.7,17.7,0,0,1,7.2,14.162Z" transform="translate(0 0)" fill="#fff"/>
    <path id="Path_11" data-name="Path 11" d="M21,47h2.977V61.887H21Z" transform="translate(9.774 22.481)" fill="#fff"/>
    <path id="Path_12" data-name="Path 12" d="M29,47h2.977V61.887H29Z" transform="translate(13.684 22.481)" fill="#fff"/>
    <path id="Path_13" data-name="Path 13" d="M37,47h2.977V61.887H37Z" transform="translate(17.594 22.481)" fill="#fff"/>
    <path id="Path_14" data-name="Path 14" d="M45,49h2.977v8.932H45Z" transform="translate(21.503 23.458)" fill="#fff"/>
    <path id="Path_15" data-name="Path 15" d="M53,50h2.977v5.955H53Z" transform="translate(25.413 23.947)" fill="#fff"/>
  </g>
</svg>
